<svg xmlns="http://www.w3.org/2000/svg" xmlns:xlink="http://www.w3.org/1999/xlink" viewBox="0 0 1676.68 626.24"><defs><style>.cls-1{fill:url(#linear-gradient);}.cls-2{fill:#fffffd;}.cls-3{fill:#fff;}.cls-10,.cls-3,.cls-4,.cls-5,.cls-6,.cls-7,.cls-8,.cls-9{fill-rule:evenodd;}.cls-4{fill:#774f1a;}.cls-5{fill:url(#linear-gradient-2);}.cls-6{fill:url(#linear-gradient-3);}.cls-7{fill:url(#linear-gradient-4);}.cls-8{fill:url(#linear-gradient-5);}.cls-9{fill:url(#linear-gradient-6);}.cls-10,.cls-11{fill:none;stroke:#bd6418;stroke-miterlimit:10;stroke-width:2px;stroke-dasharray:5;}</style><linearGradient id="linear-gradient" x1="-500.66" y1="-162.91" x2="1605.3" y2="585.79" gradientUnits="userSpaceOnUse"><stop offset="0" stop-color="#fdd289"/><stop offset="1" stop-color="#ef9d00"/></linearGradient><linearGradient id="linear-gradient-2" x1="1468.78" y1="-1529.95" x2="1501.63" y2="-1529.95" gradientTransform="matrix(0.25, -0.97, 0.97, 0.25, 1244.95, 1910.42)" xlink:href="#linear-gradient"/><linearGradient id="linear-gradient-3" x1="1479.91" y1="-1522.28" x2="1505.46" y2="-1522.28" gradientTransform="matrix(0.25, -0.97, 0.97, 0.25, 1244.95, 1910.42)" xlink:href="#linear-gradient"/><linearGradient id="linear-gradient-4" x1="1460.51" y1="-1544.51" x2="1482.5" y2="-1544.51" gradientTransform="matrix(0.25, -0.97, 0.97, 0.25, 1244.95, 1910.42)" xlink:href="#linear-gradient"/><linearGradient id="linear-gradient-5" x1="1452.05" y1="-1559.31" x2="1461.55" y2="-1559.31" gradientTransform="matrix(0.25, -0.97, 0.97, 0.25, 1244.95, 1910.42)" xlink:href="#linear-gradient"/><linearGradient id="linear-gradient-6" x1="1453.28" y1="-1557.69" x2="1463.24" y2="-1557.69" gradientTransform="matrix(0.25, -0.97, 0.97, 0.25, 1244.95, 1910.42)" xlink:href="#linear-gradient"/></defs><g id="Layer_2" data-name="Layer 2"><g id="Layer_1-2" data-name="Layer 1"><rect class="cls-1" width="1676.68" height="626.24"/><path class="cls-2" d="M1563,133s11.46-6.46,11.46-15c0,0,1.87,11.67,9.79,15,0,0-9.37,5.21-9.37,12.92C1574.89,146,1570.09,133,1563,133Z"/><path class="cls-2" d="M761.75,127s9-5.08,9-11.81c0,0,1.47,9.19,7.71,11.81,0,0-7.39,4.1-7.39,10.17C771.1,137.17,767.33,127,761.75,127Z"/><path class="cls-2" d="M786.65,110.91s12.21-6.89,12.21-16c0,0,2,12.44,10.44,16,0,0-10,5.55-10,13.77C799.3,124.68,794.2,110.91,786.65,110.91Z"/><path class="cls-2" d="M198.31,111.67s11.46-6.46,11.46-15c0,0,1.87,11.67,9.79,15,0,0-9.38,5.21-9.38,12.92C210.18,124.59,205.39,111.67,198.31,111.67Z"/><path class="cls-2" d="M1620.52,498.82s15.55-8.76,15.55-20.35c0,0,2.54,15.83,13.28,20.35,0,0-12.72,7.07-12.72,17.53C1636.63,516.35,1630.13,498.82,1620.52,498.82Z"/><path class="cls-2" d="M60.43,547.73S75,539.54,75,528.69c0,0,2.37,14.81,12.43,19,0,0-11.9,6.61-11.9,16.4C75.51,564.13,69.42,547.73,60.43,547.73Z"/><path class="cls-2" d="M99.7,524.52s10.21-5.74,10.21-13.35c0,0,1.66,10.39,8.71,13.35,0,0-8.34,4.64-8.34,11.51C110.28,536,106,524.52,99.7,524.52Z"/><path class="cls-3" d="M87.85,62.9C84,73.39,82.36,84.27,81,95.27c-.32,2.66-.06,5.53-.78,8.13a12.07,12.07,0,0,1,4.93,7.74c4.4,3.9,5.12,3.45,11.35-.32a10.12,10.12,0,0,0,3.25-3.26c.8-2,2.55-3,4-4.43a76.47,76.47,0,0,0,6.73-7.67c2.45-2.73,4.5-5.79,6.88-8.57,1.92-3.06,4.74-5.51,6-9,.73-3.54,2.06-6.61,5.85-7.86a2,2,0,0,0,.64-1.43c-2.06-1.63-6.28,1.59-7-3.21-.9-6.22-5.73-9.44-10.64-11.57C103.39,50,92.47,50.44,87.85,62.9Z"/><path class="cls-3" d="M150.57,106c-.51,2.53-.84,4.46,1.06,7.23,4.65,6.74,4.37,14.45.65,21.72-3.43,6.68-9.44,9.45-16.62,8.35A121.75,121.75,0,0,1,96.14,129.8a16.41,16.41,0,0,1-2.86-3.71c-4.64-7.71-4.26-9.17,3.64-13.7a12.88,12.88,0,0,1,4.68-1.19c2.11.07,3.94-1,5.9-1.54,3.34-.71,6.68-1.42,10-2.16a107.45,107.45,0,0,0,10.85-1.89c3.67-.21,7.24-1.39,10.95-1.14C143,105.81,146.75,105.94,150.57,106Z"/><path class="cls-4" d="M98.82,112.86c-8.1,5.06-8.11,5.07-3.53,13.71.54,1,1.17,2,.85,3.23-2.44,1.33-5.28,2.72-7.79,2.15-7.21-1.64-11.1,1.89-14.15,7.61a2.68,2.68,0,0,1-3.07,1.6c-.63-5.5,8.91-7.55,3.81-15.77-4.93-7.92-10.86-1.18-15.84-4.26C61,118.42,64,119,66.32,118.81c4-.3,6.92-1.22,7.87-5.81.4-2,2.25-3.6,3.44-5.38,2-.18,3.39-4.78,6.14-.81,1.66,2.41,2,6.8,5.41,6.67,2.51-.11,4.91-2.82,7.37-4.37A3.4,3.4,0,0,1,98.82,112.86Z"/><path class="cls-5" d="M150.57,106c-3.9,3.47-7.52.67-11.21-.48a8.49,8.49,0,0,1-4-3.22q-6.18-9.8-11.74-20a9.57,9.57,0,0,1-1-5c.44-3.94.47-8.21,6.27-7.87a7.22,7.22,0,0,1,4,3.3q8.58,14,16.66,28.31a13.22,13.22,0,0,1,1.1,3.94C150.65,105.35,150.61,105.69,150.57,106Z"/><path class="cls-6" d="M158.56,85c-.64,4.64-1.48,9.24-3.83,13.39-2.34.06-3.46-1.67-4.49-3.3q-6.37-10.2-12.19-20.74c-.93-1.68-1.89-3.51-.69-5.53a21,21,0,0,1,12.83,3.22C156.38,74.19,158.11,79.2,158.56,85Z"/><path class="cls-4" d="M137.36,68.85Q146,83.66,154.74,98.43c-.65,2.62-2.31,4.63-4.06,6.58-5.14-5.15-7.63-12-11.44-18-3.63-5.73-6.88-11.69-10.3-17.56l.93-.84Z"/><path class="cls-4" d="M158.56,85c-2.3-4.64-4.12-9.58-8.37-13l23.18-4.58Z"/><path class="cls-4" d="M122.67,77.33l16.69,28.22a37.37,37.37,0,0,1-10.54.9,33.47,33.47,0,0,1-12-20.37Z"/><path class="cls-7" d="M116.86,86.08l12,20.37c-3.63,1.58-7.54,1.83-11.36,2.5a23.12,23.12,0,0,1-8.25-14.08C111.61,91.81,113.76,88.54,116.86,86.08Z"/><path class="cls-4" d="M109.21,94.87A60.88,60.88,0,0,1,117.46,109L108,110.63a8.33,8.33,0,0,1-4.91-8.23Z"/><path class="cls-8" d="M98.82,112.86q-1.12-1.87-2.27-3.75c.83-.88,2.31-1.24,2.27-2.82,1.2-1.57,2.71-3.21,4.66-1.83a7,7,0,0,1,2.81,4.82c.17,2.33-2,2.83-4,3.18Z"/><path class="cls-9" d="M102.34,112.46c2.28-1.29,4.27-2.47,2.21-5.71-1.91-3-3.72-1.6-5.73-.46.19-2.65,2.75-2.68,4.26-3.89l4.91,8.23C106.14,111.35,104.75,113.49,102.34,112.46Z"/><path class="cls-10" d="M184.54,63.61s71-50.64,146.7,17.69S367.37,226,503.31,233.93"/><path class="cls-11" d="M1377.06,516.35s59.74,89,133.42,68.07,52.6-195.16,166.2-195.16"/></g></g></svg>