<svg xmlns="http://www.w3.org/2000/svg" viewBox="0 0 112.67 4.22"><defs><style>.cls-1{fill:#bd7b1c;}.cls-2{fill:#f09d00;}.cls-3{fill:#fedba7;}</style></defs><g id="Layer_2" data-name="Layer 2"><g id="Layer_1-2" data-name="Layer 1"><path class="cls-1" d="M112.67,2.11a2.25,2.25,0,0,1-2.37,2.11H2.37A2.25,2.25,0,0,1,0,2.11H0A2.25,2.25,0,0,1,2.37,0H110.3a2.25,2.25,0,0,1,2.37,2.11Z"/><path class="cls-2" d="M112.67,2.11A2.25,2.25,0,0,0,110.3,0H39.87A2.25,2.25,0,0,0,37.5,2.11a2.25,2.25,0,0,0,2.37,2.11H110.3A2.25,2.25,0,0,0,112.67,2.11Z"/><path class="cls-3" d="M112.67,2.11A2.25,2.25,0,0,0,110.3,0H75.12a2.25,2.25,0,0,0-2.37,2.11,2.25,2.25,0,0,0,2.37,2.11H110.3A2.25,2.25,0,0,0,112.67,2.11Z"/></g></g></svg>