<?xml version="1.0" encoding="utf-8"?>
<!-- Generator: Adobe Illustrator 24.2.3, SVG Export Plug-In . SVG Version: 6.00 Build 0)  -->
<svg version="1.1" id="Layer_1" xmlns="http://www.w3.org/2000/svg" xmlns:xlink="http://www.w3.org/1999/xlink" x="0px" y="0px"
	 viewBox="0 0 841.9 595.3" style="enable-background:new 0 0 841.9 595.3;" xml:space="preserve">
<style type="text/css">
	.st0{fill-rule:evenodd;clip-rule:evenodd;fill:#EF9C23;}
	.st1{fill-rule:evenodd;clip-rule:evenodd;fill:#6F4C20;}
	.st2{fill:#EF9C23;}
</style>
<g>
	<path class="st0" d="M625.6,179.4c0.8-1.1,1.4-1.9,1.9-2.6c1.7-2.3,3.3-4.7,5.3-6.8c10.4-11.3,26.8-9.7,35.8,0.3
		c2.3,2.5,4,5.6,5.9,8.5c0.6,0.9,1,1.8,1.8,3.2c1.1-1.4,2-2.4,2.9-3.5c3.3-4.2,7.1-7.8,11.7-10.6c4.9-2.9,10.3-4.4,15.9-4.4
		c8-0.1,14.8,3,20,9.2c4.1,4.8,6.6,10.4,8.4,16.3c2.4,8,3.6,16.3,4.3,24.7c1,11.8,0.7,23.7,0.4,35.5c-0.2,7.4-1,14.8-1.6,22.1
		c0,0.6-0.2,1.1-0.4,1.9c-7.6-0.8-15.1-1.5-22.9-2.3c0-1.8-0.1-3.3,0-4.8c0.1-2.7,0.4-5.4,0.5-8.1c0.8-11.2,1.2-22.5,0.6-33.7
		c-0.5-9.6-1.3-19.2-4.1-28.5c-0.8-2.6-1.9-5.2-3.2-7.7c-1.3-2.4-2.7-2.8-5-1.2c-1.9,1.4-3.7,3.1-5.2,4.9c-3.9,5.1-6.3,11-8.3,17
		c-3.2,9.6-5.2,19.5-6.4,29.5c-0.2,1.3-0.5,2.6-0.7,4.2c-1.9,0-3.6,0.1-5.3,0c-5.3-0.3-10.6-0.6-15.8-1c-2.3-0.2-2.5-0.3-2.5-2.5
		c0-3.1,0.1-6.2-0.1-9.2c-0.4-11.1-1.1-22.1-4-32.8c-0.8-2.9-1.9-5.6-3-8.4c-0.4-1-1.2-1.9-2.1-3.2c-1,1.4-1.9,2.4-2.5,3.5
		c-3.1,5.6-5.2,11.6-7,17.7c-3.6,12.4-6.1,25-7.8,37.8c-1,8-2,16-2.9,24c-0.3,2.9-0.7,3.3-3.5,3.3c-5.9,0-11.7,0-17.6,0
		c-2.8,0-3-0.4-3.2-3.2c-0.5-9.1-1.1-18.2-1.7-27.3c-0.2-4.1-0.4-8.3-0.7-12.4c-0.5-8.7-1.1-17.5-1.7-26.2
		c-0.2-3.5-0.4-7.1-0.6-10.7c-0.4-5.9-0.7-11.7-1.1-17.6c0-0.4,0-0.8,0-1.2c0-2.7,0-2.8,2.6-3c6.1-0.4,12.3-0.8,18.4-1.1
		c3.3-0.1,3.3,0,3.4,3.3C624.8,174.6,624.7,176.8,625.6,179.4z"/>
	<path class="st0" d="M0,220.2c3.3-0.4,6.4-0.8,9.5-1.2c4-0.5,8-1,12-1.3c2.7-0.2,2.6-0.1,3,2.6c1.2,8.7,2.4,17.3,3.7,26
		c0.1,1,0.5,2,0.9,3.6c4.9-5.3,8.8-10.6,13-15.7c4.3-5.2,8.5-10.4,12.8-15.6c4.2-5.1,8.4-10.2,12.8-15.5c7.1,3.5,14,6.9,21.3,10.5
		c-0.9,1.2-1.6,2.3-2.4,3.3c-14.3,17.6-28.7,35.2-43,52.8c-0.8,0.9-1.4,2-2.4,3.3c24.2,14.2,48,28.4,71.9,43.3
		c-4.5,6.4-8.7,12.5-13.2,18.9c-1.1-0.6-2-1-2.8-1.6c-17.7-10.7-35.4-21.3-53.2-32c-0.9-0.6-2-1-3.2-1.3c1.1,6.8,3,13.3,4.9,19.9
		c1.8,6.5,3.9,12.9,5.9,19.7c-7.3,2.9-14.6,5.5-21.9,8.1C21.4,334.6-0.3,240.9,0,220.2z"/>
	<path class="st0" d="M623,511.2c-0.8,7.1-1.9,13.8-3.1,20.5c-5-0.6-9.5-1.2-14.1-1.7c-4.9-0.5-9.7-1.1-14.6-1.5
		c-17.8-1.4-35.6-1.7-53.3-1.1c-11.7,0.4-23.4,1.2-35.1,2.1c-10.1,0.8-20.1,1.7-30.1,3c-14.5,2-28.9,4.3-43.3,6.7
		c-21.8,3.6-43.4,8.4-64.8,14c-13,3.4-25.9,7.2-38.9,10.9c-0.8,0.2-1.7,0.4-2.4,0.6c-1.4-1.8-6.4-16.6-6.8-19.8
		c3.4-1.1,6.8-2.2,10.3-3.3c27.6-8.3,55.6-15.2,83.9-20.6c15.5-3,31-5.4,46.6-7.8c10.3-1.6,20.7-2.8,31.2-3.9
		c8.3-0.9,16.7-1.3,25-1.9c19.7-1.5,39.4-1.5,59.1-1c7.9,0.2,15.7,0.8,23.6,1.5c7.7,0.7,15.3,1.6,22.9,2.5
		C620.3,510.6,621.4,510.9,623,511.2z"/>
	<path class="st0" d="M453.6,208.1c-1.1-1.6-1.6-2.8-2.5-3.8c-4.2-4.8-9.5-6.7-15.8-6c-7,0.8-13.7,2.9-20,6.1
		c-0.7,0.3-1.4,0.6-2.4,1.1c-4.5-5.9-9.1-11.8-13.8-18c0.8-0.6,1.4-1.2,2.1-1.6c9.7-5.4,20-8.8,31.1-10.1c6.6-0.8,13.1-0.3,19.4,1.6
		c11.5,3.5,19.5,11.3,25,21.8c3.9,7.4,6.1,15.3,7.6,23.5c2.7,14.1,2.7,28.3,2.4,42.5c-0.2,7.5-0.8,15-1.2,22.5
		c-0.1,1.9-0.5,2.3-2.5,2.2c-3.8-0.2-7.7-0.5-11.5-0.7c-2.1-0.1-4.2-0.4-6.3-0.5c-3.2-0.2-3.5-0.4-3.4-3.5c0-1.3,0-2.5,0-3.8
		c0-0.3-0.2-0.5-0.3-1.2c-1.2,0.2-2.4,0.3-3.5,0.6c-6.7,1.7-13.4,2.5-20.3,2.1c-20.7-1.3-32.3-15.7-34.8-30.6
		c-2-11.8,1.7-21.9,9.7-30.4c7.3-7.7,16.5-11.8,27-13.1c3.7-0.4,7.5-0.4,11.2-0.6C451.3,208.3,452,208.2,453.6,208.1z M449.1,230.8
		c-3,0.3-5.7,0.4-8.3,0.9c-5.9,1.1-10.5,4.2-13.2,9.7c-3.3,6.7,0.2,18.4,12,19c7.5,0.4,14.4-1.8,21.3-4.3c1.6-0.6,1.9-1.7,1.8-3.2
		c-0.4-6-0.8-12.1-1.2-18.1c-0.1-1.5-0.8-2.5-2.4-2.7C455.7,231.6,452.3,231.2,449.1,230.8z"/>
	<path class="st0" d="M529.6,244.6c1.6,2.7,3.7,4.2,5.9,5.5c5.5,3.1,11.4,3.9,17.6,3.2c7.9-0.9,15.1-3.6,21.6-8.2
		c0.2-0.2,0.5-0.3,0.8-0.4c0.2-0.1,0.4-0.1,1-0.2c5.4,4.8,10.9,9.8,16.7,14.9c-1,0.9-1.7,1.6-2.4,2.2c-9.5,7.4-20.2,11.7-32.1,13.4
		c-7.9,1.1-15.8,1.2-23.5-0.9c-17.5-4.7-28.8-16-34.3-33.1c-2.8-8.6-3.5-17.5-2.5-26.5c1-9,2.9-17.7,7.1-25.7
		c7.7-14.7,19.5-24.4,36-26.9c20.7-3.2,35.4,8.5,38.6,26.3c2.4,12.9-1.5,23.9-10.4,33.3c-7.1,7.5-15.9,12.7-25.3,16.9
		c-4,1.8-8.2,3.3-12.3,4.9C531.5,243.7,530.7,244.1,529.6,244.6z M522.5,222.9c10.2-3.6,19.8-7.5,27.6-14.7c1.5-1.4,2.9-3.1,4-4.9
		c3-4.5,3-9.4,1.1-14.3c-1.4-3.5-4.1-5.4-7.8-5.3c-2.1,0.1-4.4,0.6-6.4,1.4c-7,3-11.6,8.4-14.6,15.2c-2.9,6.4-3.9,13.2-4.4,20.2
		C522,221.2,522.3,221.8,522.5,222.9z"/>
	<path class="st0" d="M105.3,191.8c8-1.5,15.8-2.9,23.7-4.3c1.4,2.7,1.3,5.4,1.7,8c1.8,12,3.4,24,5.1,35.9c0.2,1.6,0.4,3.2,0.7,4.8
		c0.1,0.5,0.4,1,0.7,2c3.7-3.3,6.9-6.6,10.2-9.7c3.3-3.2,6.6-6.4,10-9.6c3.3-3.2,6.6-6.4,9.9-9.5c2.2,0.9,16.4,11.4,18.6,13.9
		c-12.7,12.6-25.4,25.3-38.4,38.2c1.1,0.9,1.8,1.6,2.6,2.3c15.9,12.4,31.9,24.8,47.9,37.2c0.9,0.7,1.7,1.5,2.5,2.2
		c-0.9,2-11.8,14.7-14.9,17.3c-13-10-26.1-20-39.6-30.4c-0.3,1.1-0.6,1.7-0.6,2.3c0.8,7.8,1.6,15.7,2.4,23.5
		c0.6,5.4,0.6,5.6-4.7,6.3c-5.9,0.8-11.8,1.5-18.1,2.3c-3.6-22.1-6.7-44.1-10-66C111.8,236.4,108.6,214.4,105.3,191.8z"/>
	<path class="st0" d="M261,200.4c7.1-3,14-6,21.2-9c0.6,1.1,1.2,1.9,1.6,2.8c5.5,13.1,9.8,26.5,12,40.5c1.9,12.4,2.3,24.7-1.5,36.8
		c-5.7,18-17.7,29.3-36.4,32.5c-12.1,2.1-23-1.6-32.4-9.6c-8.2-7.1-13.6-16.1-17.5-26.1c-4.2-10.6-6.6-21.7-8.1-33
		c-1.2-8.8-1.8-17.6-1.7-26.4c0-0.7,0-1.3,0-2c0-1.4,0.6-2.1,2.1-2.1c3.7,0.1,7.3,0,11,0.1c2.6,0.1,5.2,0.2,7.8,0.4
		c2.3,0.1,2.5,0.3,2.6,2.5c0.2,4.3,0.2,8.7,0.5,13c1,15.4,3.3,30.6,9.9,44.8c2.2,4.7,5,8.9,8.8,12.4c6.6,6,14.5,6.6,21.9,1.6
		c5.4-3.6,8.4-8.9,10-15c1.7-6.5,1.7-13.2,1-19.8c-1.6-14.7-5.9-28.8-11.8-42.3C261.5,202,261.4,201.5,261,200.4z"/>
	<g>
		<path class="st1" d="M261.1,535c-2.2-7.1-4.3-13.8-6.5-20.9c1.1-0.3,2.1-0.7,3.1-1c25.3-7.3,50.9-13.6,76.7-18.9
			c21.1-4.3,42.3-8.3,63.5-12c15.3-2.6,30.8-4.7,46.3-6.6c15.7-1.9,31.3-3.6,47.1-5c23.1-2,46.3-3.3,69.5-3.2
			c16,0.1,32,0.2,47.9,0.9c13.3,0.6,26.5,2,39.7,3.1c2.4,0.2,4.8,0.5,7.2,0.8c1.1,0.1,2.2,0.4,3.7,0.6c-0.9,7.2-1.8,14.3-2.7,21.5
			c-1.9-0.2-3.6-0.3-5.2-0.5c-34.9-4.3-70-5.3-105.2-4.3c-17.3,0.5-34.6,1.6-51.9,2.9c-20.2,1.5-40.4,3.9-60.5,6.6
			c-54.8,7.5-109,18.5-162.4,33.1C267.9,533,264.7,534,261.1,535z"/>
		<path class="st1" d="M252.6,399.8c22.2,16,44.2,31.8,66.5,47.9c-4.8,6.5-9.4,12.6-14.1,18.9c-18.1-13-36-25.9-53.9-38.8
			c-0.2,0.1-0.4,0.3-0.6,0.4c2.5,13.2,5.3,26.4,8.9,39.7c-7.5,2.4-14.9,4.7-22.2,7c-7.9-17.1-24.6-115.2-22.2-130.3
			c7.8-0.4,15.6-0.9,23.7-1.4c0.9,10.8,1.4,21.5,3.1,32.6c13.1-15,25.8-29.5,38.6-44.2c6.8,4.1,13.6,8.2,20.7,12.4
			C284.9,362.7,268.8,381.2,252.6,399.8z"/>
		<path class="st1" d="M654,445.2c-7.9-1-15.4-2-23.1-3.1c0.2-2.7,0.4-5.3,0.7-8.2c-1.7,0.3-3.2,0.5-4.6,0.8
			c-7.6,1.5-15.3,1.8-22.9-0.1c-18.1-4.5-25.3-19-27.1-30.1c-3.5-20.8,11.4-38.4,29.9-42.7c5.4-1.2,10.8-1.5,16.4-1.2
			c1.1,0.1,2.3,0,3.9,0c-2.6-4.9-5.9-8.2-11.1-9.4c-4.7-1.1-9.4-0.3-14,0.9c-4.3,1.2-8.5,2.9-13.3,4.6c-4-6.1-8.3-12.6-12.7-19.2
			c0.7-0.5,1.3-1,1.9-1.3c10.5-5.6,21.7-8.9,33.7-8.9c16-0.1,28.1,7,36.1,20.9c4.4,7.7,6.7,16.1,8.1,24.8
			c2.2,13.8,2.3,27.6,1.3,41.5c-0.7,9-1.6,18-2.5,27C654.6,442.6,654.3,443.7,654,445.2z M633.5,386.4c-5.3-2.2-14.9-2.9-20.5-1.7
			c-3.7,0.8-6.8,2.6-9.3,5.5c-3.7,4.3-4.2,9.2-2.1,14.3c1.9,4.9,5.8,7.3,10.9,7.7c4.1,0.3,8.1-0.1,12-1c3.1-0.8,6.1-1.4,9-2.8
			C633.5,400.9,633.5,393.6,633.5,386.4z"/>
		<path class="st1" d="M555.3,407.3c5.6,5.2,11.2,10.3,17,15.7c-0.9,0.9-1.7,1.7-2.5,2.4c-8.8,7.3-18.8,11.8-30.1,13.8
			c-9.9,1.7-19.6,1.3-28.9-2.6c-14.1-5.8-22.8-16.6-27.4-30.9c-3.9-12.1-3.9-24.4-1.5-36.8c1.4-7.1,3.6-14,7.3-20.2
			c7-11.7,16.7-19.7,30.1-22.9c6-1.4,12.1-1.3,18,0.5c11.2,3.5,17.9,11.3,20.9,22.4c4.2,15.5-0.3,28.6-11.5,39.7
			c-5.5,5.5-12,9.7-18.9,13.1c-4.3,2.1-8.8,4-13.1,5.9c-1,0.4-1.9,0.8-3.1,1.3c1.2,2.1,3,3.4,4.8,4.6c5.5,3.5,11.5,4,17.8,3.2
			c7.3-1,13.9-3.7,19.7-8.2C554.3,408,554.7,407.7,555.3,407.3z M504,386.1c0.8,0,1.1,0.1,1.3,0c7.7-2.9,15.2-6.2,21.5-11.5
			c2.4-2,4.6-4.4,6.4-6.9c3.1-4.4,3.2-9.4,1.4-14.3c-1.5-4-5-5.9-9.2-5.1c-5.4,1.1-9.4,4.2-12.8,8.3
			C505.9,365.2,504.5,375.4,504,386.1z"/>
		<path class="st1" d="M687.1,343.1c7.8,0.9,15.2,1.8,22.9,2.8c-0.5,4.7-1,9.1-1.6,14.2c1.1-0.9,1.7-1.3,2.3-1.9
			c4.9-4.5,10.4-7.9,17-9.2c12.9-2.7,24.7,1.7,31.6,13.9c3.2,5.7,4.8,11.9,5.8,18.3c1.8,11.9,1.3,23.8,0.2,35.7
			c-1.3,13.7-3.5,27.3-6.5,40.7c-0.3,1.2-0.6,2.4-1,3.9c-7.4-1.8-14.7-3.6-22.1-5.4c0.1-1,0.2-1.9,0.4-2.7c3.8-16.5,6.3-33.2,7-50.2
			c0.4-7.6,0.2-15.2-1.6-22.7c-0.5-2.2-1.5-4.4-2.4-6.5c-1-2.2-2.9-3.2-5.2-2.6c-1.9,0.5-4,1.1-5.5,2.3c-2.5,2-4.7,4.2-6.7,6.7
			c-4.2,5.3-7.1,11.4-9.8,17.6c-5.7,13.5-9.6,27.6-12.7,41.9c-0.8,3.7-1.5,7.5-2.4,11.6c-7.6-1-15-2-22.8-3.1
			C678.4,413.3,682.7,378.4,687.1,343.1z"/>
		<path class="st1" d="M401.4,396.1c-0.1,15.7-2.1,26.3-7.1,36.4c-4.7,9.6-11.5,17.2-21.9,20.5c-16.2,5.2-30.8,1.9-43.3-9.6
			c-9.1-8.4-14.2-19-16.9-30.9c-2.9-12.9-2.5-25.6,2.6-37.9c6.1-14.7,16.8-24.3,32.7-27c21-3.5,38.8,6.2,47.9,25.4
			C399.6,381.8,401.5,391,401.4,396.1z M378.3,399.6c-0.3-1.9-0.6-5.5-1.4-8.9c-1.3-5.6-3.6-10.7-7.5-15.1
			c-7.6-8.5-23.2-8.1-29.8,1.7c-1.8,2.6-3.3,5.5-4.2,8.5c-3.8,13.2-1.5,25.5,5.9,36.9c1.8,2.9,4.3,5.2,7.2,7
			c9.8,6,20.1,3.1,25.2-7.2c0.6-1.3,1.2-2.6,1.6-4C377.3,412.9,378,407.1,378.3,399.6z"/>
		<path class="st1" d="M431,341.4c0.6,3.9,1.1,7.3,1.7,11.2c2.4-2.3,4.3-4.5,6.6-6.4c2.4-1.9,4.9-3.8,7.6-5.2
			c2.6-1.4,5.4-2.6,8.2-3.4c2.9-0.9,6-1.4,9-1.7c2.9-0.3,5.9-0.1,9.3-0.1c-0.4,7.6-1.4,14.9-2.1,22.4c-1,0.1-1.8,0.2-2.7,0.2
			c-7.6,0-13.5,3.2-17.9,9.4c-3.8,5.4-5.9,11.6-7.4,18c-1.9,8.3-1.4,16.6-0.9,25c0.7,10.8,1.5,21.7,2.2,32.5c0,0.4,0,0.8,0,1.5
			c-7.4,1.1-14.8,1.7-22.5,2.5c-4.8-34.3-9.6-68.3-14.5-102.7C415.5,343.6,423.2,342.5,431,341.4z"/>
	</g>
	<path class="st0" d="M349.5,307.5c2.5-0.5,4.5-0.9,6.6-1.4c9.9-2.2,14.3-9.9,14.7-18.6c0.3-5.7-0.8-11.3-2-16.8
		c-2.5-11.6-5.2-23.1-7.4-34.7c-1.3-7-2-14.1-2.7-21.1c-0.5-5.8-0.5-11.7-0.7-17.6c-0.1-3.4,0-3.4,3.3-3.4c5.3,0,10.6,0,15.9,0.1
		c0.4,0,0.8,0,1.2,0c4.1,0.2,4.2,0.3,4.1,4.4c-0.4,16.9,2.4,33.5,6,50c2,8.9,3.9,17.9,5.3,26.9c1.4,9,2.1,18.1-1.6,26.7
		c-6.4,14.9-17.4,24.3-33.6,27.2c-1.2,0.2-2.5,0.1-3.7,0.1c-2.9,0-3.2-0.1-3.5-2.9c-0.7-5.3-1.2-10.7-1.8-16
		C349.5,309.4,349.5,308.6,349.5,307.5z"/>
	<path class="st0" d="M309.2,155.3c8.1,0,15.9,0,23.9,0c0.2,0.8,0.4,1.2,0.4,1.7c-0.1,12.8-0.3,25.6-0.2,38.4
		c0.1,8.4,0.5,16.7,0.9,25.1c0.4,8.3,1,16.5,1.6,24.7c0.7,8.7,1.4,17.4,2.5,26.1c0.8,6.2,2.3,12.3,3.4,18.4c0.1,0.6,0.3,1.1,0.5,2
		c-7.1,2.9-14.2,5.7-21.7,8.7c-0.6-1.5-1.3-2.8-1.5-4.1c-1.4-6.6-3-13.1-4-19.8c-1.2-8.5-2.1-17-2.9-25.5c-0.6-6.3-0.9-12.7-1.3-19
		c-0.6-11.8-1.3-23.6-1.6-35.4c-0.3-13.1-0.3-26.2-0.3-39.3C308.9,156.6,309.1,155.8,309.2,155.3z"/>
	<path class="st0" d="M73.1,396.4c1.6,0.3,3.2,0.4,4.8,0.8c6.3,1.7,12.6,3.5,18.9,5.2c5.9,1.7,9.6,5.5,11.2,11.3
		c1.8,6.6,3.4,13.2,5,19.8c1.4,5.9,0,11-4.4,15.3c-4.8,4.7-9.6,9.4-14.4,14.1c-4.3,4.2-9.5,5.3-15.2,3.8c-6.6-1.7-13.2-3.5-19.7-5.4
		c-5.4-1.6-9.2-5.2-10.8-10.7c-2-7-3.8-14.1-5.4-21.2c-1.1-5.1,0.1-9.8,3.8-13.6c5.2-5.3,10.5-10.4,15.9-15.5
		C65.6,397.7,69.1,396.4,73.1,396.4z M107.1,437.3c-0.2-1-0.3-2.1-0.6-3.1c-1.5-5.9-3-11.7-4.5-17.6c-1-4.3-3.6-7.1-7.9-8.2
		c-5.9-1.6-11.9-3.2-17.8-5c-4.1-1.2-7.5-0.2-10.5,2.8c-4.5,4.5-9,8.9-13.6,13.3c-2.8,2.7-3.6,5.9-2.7,9.5
		c1.6,6.4,3.3,12.8,4.9,19.3c0.9,3.6,3.2,5.9,6.7,6.9c6.5,1.9,12.9,3.7,19.4,5.5c3.4,0.9,6.5,0.2,9.1-2.3c5-4.8,9.9-9.7,14.8-14.6
		C106.3,442,107.1,439.8,107.1,437.3z"/>
	<path class="st0" d="M114.1,403.3c0.1-4.3,1.6-7.9,4.6-10.9c4.8-4.7,9.6-9.5,14.4-14.1c4.4-4.3,9.7-5.7,15.7-4.1
		c6.4,1.7,12.8,3.6,19.1,5.3c6,1.7,9.8,5.5,11.3,11.5c1.8,7,3.6,13.9,5.2,21c1.1,5-0.3,9.5-3.8,13c-5.2,5.4-10.6,10.7-16.1,15.7
		c-4.2,3.9-9.4,4.6-14.8,3.1c-6.1-1.6-12.2-3.4-18.3-5.1c-6.5-1.8-10.6-5.9-12.2-12.5c-1.5-6.2-3.2-12.3-4.7-18.4
		C114.3,406.4,114.3,404.8,114.1,403.3z M144.4,379.9c-2.4,0.1-4.4,1-6.1,2.5c-0.9,0.8-1.8,1.7-2.7,2.6c-3.9,3.8-7.7,7.5-11.6,11.3
		c-2.5,2.4-4.1,5.3-3.3,8.8c1.6,6.9,3.4,13.8,5.3,20.7c0.9,3.5,3.3,5.8,6.9,6.7c6.3,1.8,12.6,3.4,18.9,5.3c3.6,1.1,6.7,0.2,9.3-2.2
		c5-4.8,10-9.6,14.8-14.6c2.4-2.4,3.2-5.4,2.3-8.8c-1.6-6.3-3.2-12.7-4.8-19c-1-3.9-3.3-6.4-7.2-7.4c-6.2-1.7-12.4-3.5-18.6-5.2
		C146.4,380.2,145.4,380.1,144.4,379.9z"/>
	<path class="st0" d="M96.9,475.8c0-4.3,1.6-7.9,4.6-10.9c4.9-4.9,9.9-9.7,14.8-14.6c4.3-4.2,9.6-5.1,15.2-3.8
		c6.6,1.6,13.2,3.6,19.7,5.5c5.5,1.6,9.2,5.2,10.7,10.7c1.9,7,3.7,14.1,5.4,21.2c1.2,5.1-0.2,9.7-3.7,13.3
		c-5.2,5.4-10.6,10.7-16,15.8c-3.8,3.6-8.6,4.7-13.7,3.4c-7-1.8-13.9-3.7-20.8-5.8c-5.6-1.7-9.2-5.5-10.7-11.1
		c-1.8-6.6-3.4-13.2-5-19.8C97.1,478.6,97.1,477.2,96.9,475.8z M137.2,510.6c2.7,0,4.9-1,6.8-2.8c4.7-4.6,9.4-9.1,14.1-13.7
		c2.9-2.8,3.8-6.1,2.8-10c-1.6-6.1-3.2-12.3-4.7-18.4c-1-4-3.4-6.5-7.4-7.6c-6-1.6-12.1-3.3-18-5.1c-4-1.2-7.4-0.4-10.3,2.5
		c-4.5,4.5-9.1,8.9-13.6,13.3c-3,3-4,6.4-2.8,10.5c1.6,5.7,3,11.5,4.4,17.3c1.1,4.5,3.6,7.3,8.1,8.5c6,1.6,12,3.3,18.1,5
		C135.3,510.3,136.3,510.4,137.2,510.6z"/>
	<g>
		<path class="st0" d="M776.5,315.5c-0.1-0.9-0.2-1.5-0.4-2.2c-1-4.4,0.7-8.3,4.6-10.5c0.4-0.2,0.8-0.5,1.3-0.6c1-0.4,1.3-1,1-2
			c-0.3-1-1-1.3-2-1.2c-2.1,0.2-4.2,0.4-6.3,0.4c-6.3,0.1-11.9-2.2-16.9-5.8c-1.3-0.9-2.5-2.2-3.4-3.5c-3-4.4-2.2-9.6,1.9-12.9
			c4-3.2,8.7-3.9,13.7-3.1c2.5,0.4,4.9,1.1,7.3,1.7c0.4,0.1,0.9,0.1,1.7,0.3c0.1-1.1,0.2-2,0.3-2.9c0.4-5.8,5.3-8.6,10.5-6.1
			c1,0.5,1.9,1.3,2.8,2c0.7,0.6,1.4,1.3,2.2,2c1-0.5,1.8-0.9,2.6-1.4c2-1.2,4.2-1.8,6.6-1.8c4.3-0.1,7.4,1.9,9,5.9
			c0.6,1.5,0.9,3.1,1.1,4.7c0.3,3.4,0.2,3.4,3.6,4.5c0.8,0.3,1.6,0.6,2.4,1c5,2.8,5.5,8.6,1,12.2c-0.8,0.6-1.7,1.2-2.9,2
			c0.8,0.7,1.3,1.3,2,1.8c2.9,2.3,5.2,5.1,7,8.4c1.5,2.8,2.2,5.7,2,8.9c-0.3,6.2-5.4,10.3-11.5,9c-7.3-1.6-12.8-6-17-12.1
			c-1.1-1.7-1.9-3.5-2.8-5.3c-1.1-2.1-1.1-2.1-3.7-0.9c0.9,6.5-1.5,11-8.5,12.6c0,2.1,0,4.2,0,6.3c0,1.6-0.8,2.5-2.1,2.5
			c-1.5-0.1-2.4-1.6-1.8-2.9c0.2-0.4,0.6-0.8,0.9-1.1c1.7-1.9,1.5-4-0.6-5.4c-1-0.7-2.1-1.3-3.3-1.8c-2.1-0.9-4,0-4.7,2.3
			c-0.1,0.3-0.1,0.6-0.2,0.8c-0.4,1-1.1,1.8-2.2,1.5c-0.7-0.2-1.5-0.9-1.8-1.6c-0.4-0.9,0.1-1.8,1.1-2.4
			C772.9,317.7,774.6,316.6,776.5,315.5z M796.5,296.2c0,1-0.1,1.4,0,1.9c1.2,5.7,3,11.1,6.5,15.9c3.6,4.9,8.2,8.6,14.3,10.1
			c6.1,1.6,11.1-3,10-9.2c-1-6.2-4.7-10.8-9.6-14.5c-1.5-1.1-3-1.5-4.9-1.2c-4.7,0.7-9.2-0.2-13.5-2
			C798.5,296.9,797.7,296.7,796.5,296.2z M791.3,293.7c0-0.2,0-0.4-0.1-0.5c-0.6-0.6-1.3-1.1-2-1.6c-3.8-2.9-7.1-6.2-8.8-10.8
			c-0.4-1-1.3-1.9-2.3-2.4c-4.5-2.4-9.4-3.3-14.5-2.3c-1.8,0.3-3.6,0.9-5.1,1.8c-4.5,2.6-5.4,7.9-2,11.8c1.2,1.4,2.7,2.7,4.4,3.7
			c9.9,5.9,20,4.8,30.2,0.9C791.2,294.1,791.3,293.9,791.3,293.7z M796.8,293.4c1.8,1.6,4.3,2.7,8.1,3.7c5.1,1.3,9.9,0.7,14.3-2.2
			c4.4-2.8,4-7.3-0.7-9.6c-0.8-0.4-1.6-0.8-2.4-0.9c-3.8-0.6-7.5-0.6-10.8,1.5c-2.6,1.7-5,3.8-7.4,5.9
			C797.4,292.2,797.1,292.9,796.8,293.4z M794,291.9c0.2-0.3,0.5-0.5,0.7-0.9c1.4-4,1.9-8.1,1.2-12.2c-0.6-4-2.7-7.4-6.2-9.7
			c-4.4-2.8-8.4-0.6-8.6,4.5C780.9,281,786.7,289.3,794,291.9z M785,318.2c4.2,0,7.4-3,7.5-7.1c0.1-4-3.4-7.7-7.4-7.7
			c-3.9,0-7.4,3.5-7.4,7.4C777.6,314.9,780.9,318.1,785,318.2z M807.7,282.7c0.9-0.2,1.6-0.2,2.2-0.4c0.7-0.2,1.3-0.6,1.9-0.9
			c-0.5-0.6-0.8-1.5-1.4-1.9c-3.4-2-6.9-3.9-10.3-5.8c-0.8-0.4-1.5-0.9-2.3-1.2c-0.4-0.1-1-0.1-1.3,0.1c-0.3,0.2-0.4,0.9-0.3,1.3
			c0.7,1.9,1.3,3.7,3.5,4.7c2.1,0.9,4,2.2,6.1,3.3C806.5,282.2,807.2,282.5,807.7,282.7z M784.9,298.3c-0.1,1.7,0.2,2.9,1.4,3.3
			c2.4,0.7,4.3,1.9,6.2,3.5c0.5,0.4,1.8,0.1,2.7-0.1c0.3-0.1,0.7-1,0.6-1.4c-0.6-2.6-1.3-5.1-2.1-8
			C790.6,296.5,787.8,297.4,784.9,298.3z M811.6,278.3c0-3.6-0.9-6.5-4.2-8.2c-2.8-1.4-6.1-0.9-8.8,1.5
			C803,274.1,806.9,276.7,811.6,278.3z M798.4,279c-1,4-0.6,4.9,2.1,6.1c1.6,0.7,3.1,0.1,4.8-2.3C803.1,281.6,800.9,280.3,798.4,279
			z M800.8,286.5c-1.2-0.6-1.9-1-2.8-1.5c-0.2,1.4-0.3,2.3-0.5,3.2c0.2,0.1,0.4,0.2,0.6,0.3C798.8,288,799.5,287.5,800.8,286.5z"/>
		<path class="st2" d="M783.7,329.9l-0.1,0c-0.9,0-1.8-0.5-2.3-1.3c-0.5-0.8-0.5-1.7-0.1-2.6c0.2-0.4,0.5-0.7,0.8-1l0.2-0.3
			c0.7-0.8,1-1.6,0.9-2.4c-0.1-0.7-0.6-1.4-1.3-1.9c-1-0.7-2-1.3-3.2-1.7c-1.7-0.7-3.2,0-3.7,1.8c0,0.1,0,0.2,0,0.3
			c0,0.2,0,0.4-0.1,0.6c-0.6,1.5-1.8,2.2-3,1.9c-0.9-0.2-1.8-1.1-2.2-2c-0.5-1.2,0-2.5,1.4-3.3c1.2-0.7,2.4-1.4,3.7-2.2l1.3-0.8
			l-0.1-0.3c-0.1-0.5-0.1-0.9-0.2-1.3c-1.1-4.7,0.7-8.9,4.9-11.3c0.4-0.3,0.9-0.5,1.4-0.7c0.7-0.3,0.8-0.5,0.6-1.2
			c-0.2-0.6-0.6-0.8-1.3-0.8l-0.9,0.1c-1.8,0.1-3.7,0.3-5.5,0.3l-0.2,0c-6,0-11.6-1.9-17.1-5.9c-1.3-0.9-2.5-2.2-3.5-3.7
			c-3.2-4.7-2.4-10.3,2.1-13.8c3.8-3,8.5-4.1,14.2-3.3c1.7,0.2,3.4,0.7,5,1.1c0.8,0.2,1.6,0.4,2.3,0.6c0.3,0.1,0.5,0.1,0.9,0.2
			l0-0.3c0.1-0.7,0.1-1.3,0.2-1.9c0.3-4.6,3.3-7.7,7.4-7.7c1.3,0,2.7,0.3,4.1,1c0.9,0.4,1.7,1.1,2.5,1.7l0.5,0.4
			c0.5,0.4,1,0.9,1.5,1.4l0.3,0.3l0.4-0.2c0.6-0.3,1.2-0.6,1.7-1c2.1-1.2,4.4-1.9,7-1.9l0.2,0c4.6,0,7.8,2.2,9.4,6.4
			c0.6,1.5,1,3.2,1.1,4.9l0,0.2c0.2,2.7,0.2,2.7,3.1,3.7c0.8,0.3,1.7,0.6,2.5,1c2.6,1.4,4.2,3.8,4.4,6.4c0.2,2.6-1,5.1-3.3,7
			c-0.6,0.4-1.1,0.8-1.8,1.3l-0.4,0.2l0.1,0.1c0.4,0.4,0.8,0.8,1.2,1.1c3,2.5,5.4,5.4,7.2,8.6c1.6,2.9,2.3,6,2.1,9.3
			c-0.3,5.8-4.5,9.9-10,9.9c-0.8,0-1.6-0.1-2.4-0.3c-7-1.5-12.9-5.7-17.4-12.4c-0.8-1.2-1.5-2.6-2.2-3.9c-0.2-0.5-0.5-1-0.7-1.5
			c-0.4-0.8-0.7-1.3-0.9-1.3c-0.3,0-0.8,0.2-1.4,0.5c0.8,6.8-2.1,11-8.5,12.8l0,1.3c0,1.5,0,3,0,4.5
			C786.4,328.6,785.4,329.9,783.7,329.9z M777.3,317c0.6,0,1.2,0.1,1.9,0.4c1.2,0.5,2.3,1.1,3.4,1.9c1.1,0.8,1.8,1.8,2,2.9
			c0.1,1.2-0.3,2.4-1.3,3.5l-0.3,0.3c-0.2,0.2-0.4,0.4-0.5,0.7c-0.2,0.4-0.2,0.8,0.1,1.2c0.2,0.4,0.7,0.6,1.1,0.7l0.1,0.7v-0.7
			c1.1,0,1.3-1.1,1.3-1.8c0-1.5,0-3,0-4.5l0-2.4l0.5-0.1c6.3-1.5,8.8-5.4,7.9-11.8l-0.1-0.5l0.5-0.2c1.2-0.6,1.9-0.8,2.5-0.8
			c1.1,0,1.5,0.8,2.1,2.1c0.3,0.5,0.5,1,0.7,1.5c0.6,1.3,1.3,2.6,2.1,3.8c4.4,6.5,9.8,10.3,16.5,11.8c0.7,0.1,1.4,0.2,2.1,0.2
			c4.7,0,8.3-3.6,8.6-8.6c0.2-3-0.5-5.8-2-8.5c-1.7-3-4-5.8-6.8-8.1c-0.4-0.4-0.8-0.7-1.3-1.2L817,298l1.8-1.3
			c0.6-0.4,1.2-0.8,1.7-1.2c1.9-1.5,2.9-3.6,2.8-5.7c-0.2-2.1-1.5-4-3.7-5.2c-0.7-0.4-1.6-0.7-2.3-0.9c-3.6-1.2-3.8-1.4-4.1-4.9
			l0-0.2c-0.1-1.6-0.5-3.2-1-4.5c-1.4-3.6-4.1-5.5-8.1-5.5c-2.5,0-4.5,0.6-6.4,1.7c-0.6,0.3-1.2,0.6-1.8,1l-1.3,0.7l-1.1-1
			c-0.5-0.5-1-0.9-1.5-1.3l-0.5-0.4c-0.7-0.6-1.4-1.2-2.2-1.5c-1.2-0.6-2.3-0.9-3.5-0.9c-3.3,0-5.7,2.6-6,6.4c0,0.6-0.1,1.2-0.2,1.9
			l-0.2,1.8l-1.5-0.2c-0.4-0.1-0.7-0.1-1-0.2c-0.8-0.2-1.6-0.4-2.4-0.6c-1.6-0.4-3.2-0.8-4.8-1.1c-5.3-0.8-9.6,0.2-13.1,3
			c-3.8,3.1-4.6,7.9-1.8,11.9c0.9,1.4,2,2.5,3.2,3.3c5.3,3.8,10.6,5.6,16.3,5.6l0.2,0c1.8,0,3.6-0.2,5.4-0.3l0.9-0.1
			c1.4-0.1,2.3,0.5,2.7,1.7c0.5,1.4,0,2.4-1.4,2.9c-0.4,0.2-0.8,0.4-1.2,0.6c-3.6,2-5.2,5.7-4.2,9.7c0.1,0.4,0.2,0.9,0.3,1.4
			l0.2,1.3l-2.1,1.2c-1.3,0.8-2.5,1.5-3.7,2.2c-0.4,0.2-1.1,0.7-0.7,1.5c0.2,0.5,0.8,1.1,1.3,1.2c0.8,0.2,1.2-0.8,1.3-1.1
			c0-0.1,0-0.2,0-0.3c0-0.2,0-0.3,0.1-0.5C774.1,318.1,775.5,317,777.3,317z M819.7,325.2c-0.8,0-1.7-0.1-2.6-0.3
			c-5.8-1.5-10.7-5-14.7-10.4c-3.1-4.2-5.1-9.2-6.6-16.2c-0.1-0.4-0.1-0.7,0-1.2c0-0.2,0-0.5,0-0.9v-1l2.1,0.7
			c0.7,0.2,1.2,0.4,1.7,0.6c4.6,1.9,8.9,2.5,13.1,1.9c2-0.3,3.7,0.2,5.4,1.4c5.7,4.2,8.9,9.1,9.9,15c0.5,2.8-0.2,5.5-1.8,7.4
			C824.6,324.1,822.3,325.2,819.7,325.2z M797.2,297.2c0,0.3,0,0.6,0,0.7c1.5,6.8,3.4,11.6,6.4,15.6c3.8,5.2,8.4,8.5,13.9,9.9
			c3,0.8,5.9,0,7.6-2.1c1.4-1.6,1.9-3.9,1.5-6.3c-0.9-5.5-4-10.1-9.3-14c-1.3-1-2.7-1.3-4.3-1.1c-4.5,0.6-9,0-13.9-2
			c-0.5-0.2-1-0.4-1.6-0.6L797.2,297.2z M785.1,318.9L785.1,318.9c-2.3,0-4.3-0.9-5.8-2.4c-1.5-1.5-2.3-3.5-2.3-5.7
			c0.1-4.3,3.8-8.1,8.1-8.1h0c2.1,0,4.2,0.9,5.7,2.5c1.6,1.6,2.4,3.8,2.4,5.9C793.1,315.5,789.6,318.9,785.1,318.9z M785.1,303.4
			l0,0.7c-3.5,0-6.7,3.1-6.7,6.7c0,1.8,0.6,3.4,1.9,4.7c1.2,1.2,2.9,2,4.7,2l0,0c3.8,0,6.7-2.7,6.8-6.4c0-1.7-0.7-3.5-2-4.9
			c-1.3-1.3-3-2.1-4.7-2.1V303.4z M793.4,305.9C793.4,305.9,793.4,305.9,793.4,305.9c-0.5,0-1-0.1-1.3-0.4c-2.1-1.7-4-2.7-6-3.3
			c-2.1-0.6-2-3.2-1.9-4l0-0.5l10-3.1l0.8,2.8c0.6,2,1.1,4,1.5,5.9c0.2,0.7-0.3,2-1.1,2.2C794.7,305.8,794,305.9,793.4,305.9z
			 M793,304.5c0,0,0.1,0.1,0.4,0.1h0c0.5,0,1.3-0.2,1.7-0.3c0,0,0.1-0.4,0.1-0.6c-0.4-1.9-1-3.8-1.5-5.8l-0.4-1.4l-7.7,2.4
			c0,1.6,0.5,1.9,0.9,2.1C788.7,301.5,790.7,302.6,793,304.5L793,304.5z M809.8,298.4L809.8,298.4c-1.7,0-3.4-0.2-5.1-0.7
			c-4-1-6.6-2.2-8.4-3.9l-0.4-0.4l0.3-0.5c0.1-0.1,0.2-0.3,0.3-0.5c0.2-0.4,0.5-0.9,0.9-1.3c0.5-0.4,1.1-0.9,1.6-1.3
			c1.9-1.6,3.8-3.2,5.9-4.6c2-1.3,4.4-2,7.3-2c1.2,0,2.5,0.1,4.1,0.3c0.9,0.1,1.8,0.5,2.6,0.9c2.5,1.2,4,3.2,4.1,5.3
			c0.1,2.1-1.1,4.1-3.4,5.6C816.6,297.5,813.3,298.4,809.8,298.4z M797.7,293.2c1.6,1.3,3.9,2.3,7.3,3.2c1.6,0.4,3.2,0.6,4.7,0.6
			l0,0c3.2,0,6.2-0.9,9-2.7c1.8-1.2,2.8-2.7,2.7-4.3c-0.1-1.6-1.3-3.1-3.3-4.1c-0.7-0.4-1.5-0.7-2.2-0.8c-1.5-0.2-2.7-0.3-3.9-0.3
			c-2.6,0-4.7,0.6-6.5,1.7c-2,1.3-3.9,2.9-5.8,4.5c-0.5,0.4-1.1,0.9-1.6,1.3C798.1,292.5,797.9,292.9,797.7,293.2
			C797.7,293.2,797.7,293.2,797.7,293.2z M775.7,298.1L775.7,298.1c-5.5,0-10.4-1.4-15.2-4.2c-1.6-1-3.2-2.3-4.5-3.9
			c-1.8-2.1-2.5-4.5-2.1-7c0.4-2.4,2-4.5,4.3-5.9c1.5-0.9,3.3-1.5,5.3-1.9c5-1,10.1-0.2,15,2.4c1,0.5,2.1,1.6,2.6,2.8
			c1.8,4.7,5.4,8,8.6,10.5c0.7,0.5,1.4,1.1,2,1.7c0.3,0.3,0.3,0.6,0.3,0.8l0,0.2L792,294c-0.1,0.3-0.3,0.7-0.6,0.8
			C785.6,297.1,780.5,298.1,775.7,298.1z M767.7,276.3c-1.3,0-2.6,0.1-3.9,0.4c-1.8,0.4-3.5,1-4.9,1.7c-2,1.1-3.3,2.9-3.6,4.9
			c-0.3,2,0.3,4.1,1.8,5.8c1.2,1.4,2.7,2.7,4.2,3.6c4.5,2.7,9.3,4,14.4,4h0c4.5,0,9.4-1,14.9-3.1c0,0,0,0,0,0c0,0,0,0,0,0
			c-0.6-0.5-1.2-1-1.8-1.5c-3.4-2.6-7.1-6-9.1-11.1c-0.3-0.7-1.1-1.6-1.9-2C774.5,277.2,771.1,276.3,767.7,276.3z M794.2,292.7
			l-0.5-0.2c-7.5-2.7-13.6-11.3-13.3-18.9c0.1-3.9,2.3-6.5,5.5-6.5c1.3,0,2.8,0.5,4.1,1.4c3.5,2.3,5.8,5.8,6.5,10.2
			c0.6,4,0.2,8.3-1.2,12.6c-0.1,0.4-0.4,0.6-0.6,0.9c-0.1,0.1-0.1,0.1-0.2,0.2L794.2,292.7z M785.9,268.6c-2.4,0-4,2-4.1,5.1
			c-0.2,6.9,5.2,14.8,12,17.4c0.1-0.1,0.2-0.2,0.2-0.3c1.4-4.1,1.8-8.1,1.2-11.9c-0.6-4-2.7-7.2-5.8-9.2
			C788.1,269,787,268.6,785.9,268.6z M798.2,289.3l-1.5-0.7l0.7-4.7l0.7,0.4c-1.1-1.2-1-2.8-0.3-5.5l0.1-0.6
			c-1.2-1.1-1.7-2.5-2.3-3.9c-0.3-0.8-0.1-1.8,0.4-2.2c0.4-0.3,0.9-0.4,1.2-0.4c0.1,0,0.2,0,0.3,0l0.6-0.6c2.9-2.6,6.5-3.2,9.6-1.6
			c3.2,1.6,4.6,4.4,4.6,8.8l0,1l-0.9-0.3c-0.4-0.1-0.8-0.3-1.2-0.5c0.2,0.1,0.4,0.2,0.6,0.4c0.6,0.3,0.9,0.9,1.3,1.5
			c0.1,0.2,0.2,0.4,0.4,0.6l0.5,0.7l-0.8,0.4c-0.2,0.1-0.4,0.2-0.6,0.3c-0.5,0.2-0.9,0.5-1.5,0.7c-0.5,0.2-1,0.2-1.5,0.3
			c-0.2,0-0.5,0.1-0.8,0.1l-0.2,0l-0.7-0.3c-0.2-0.1-0.5-0.2-0.7-0.3l-0.3,0.4c-1.4,1.9-2.7,2.9-4.1,2.9l0,0c-0.1,0-0.3,0-0.4,0
			l0.7,0.4L798.2,289.3z M798.5,286.1l-0.2,1.3l1.2-0.9L798.5,286.1z M798.9,280c-0.6,3-0.1,3.5,1.9,4.4c1.2,0.5,2.2,0.1,3.4-1.4
			L798.9,280z M797.3,273.1c-0.2,0-0.3,0-0.3,0c0,0.1-0.1,0.4-0.1,0.5c0.7,1.9,1.3,3.5,3.1,4.3c1.4,0.6,2.8,1.4,4.1,2.2
			c0.7,0.4,1.3,0.8,2,1.1c0.4,0.2,0.9,0.4,1.3,0.6l0.3,0.2c0.2,0,0.4-0.1,0.6-0.1c0.5-0.1,0.9-0.1,1.3-0.3c0.4-0.1,0.8-0.3,1.1-0.5
			c0,0,0,0,0,0c-0.3-0.4-0.5-0.8-0.8-1c-2.6-1.5-5.3-3-7.9-4.5l-2.9-1.6c-0.6-0.3-1.1-0.6-1.7-0.9
			C797.5,273.1,797.4,273.1,797.3,273.1z M799.9,271.6c0.6,0.3,1.2,0.7,1.8,1c3.1,1.8,6,3.5,9.2,4.7c-0.2-3.3-1.3-5.3-3.8-6.5
			C804.9,269.6,802.2,269.9,799.9,271.6z"/>
	</g>
	<path class="st0" d="M367.5,180.3c-3.1,0.1-6.3-0.9-9.3-2.9c-7.7-5.1-8.9-15.6-2.5-22.3c6-6.4,16.6-7.3,23.7-2.1
		c7.1,5.2,8.1,15,2.2,21.5C377.9,178.5,373.4,180.4,367.5,180.3z"/>
	<path class="st1" d="M765.2,43.6c3.9-6.4,7.6-12.5,11.4-18.7c10.7,6.5,20,14,28.6,23c-5.3,5.1-10.6,10-16,15.1
		C782,55.4,774,49.1,765.2,43.6z"/>
	<path class="st1" d="M834.5,218.4c-2.6,11.7-5.8,22.8-10.1,33.9c-6.9-2.6-13.6-5.2-20.2-7.6c3.1-10.4,6.1-20.6,9.2-31
		C820.3,215.2,827.2,216.8,834.5,218.4z"/>
	<path class="st1" d="M807,88c6.6-3.4,12.9-6.7,19.5-10c5.8,11.1,9.6,22.5,12,34.9c-7.2,1.4-14.2,2.7-21.5,4.1
		C814.9,106.9,811.8,97.4,807,88z"/>
	<path class="st1" d="M619.4,63.4c-8.5,6.4-16.4,13-23.5,21.1c-5.5-5-10.8-9.7-16.3-14.7c8-9.2,17-16.9,26.8-24.1
		C610.7,51.6,615,57.4,619.4,63.4z"/>
	<path class="st1" d="M375.1,72.4c2.2,7.1,4.3,13.8,6.4,20.6c-4.6,2-9.2,3.7-13.5,6c-4.2,2.2-8.2,5-12.6,7.7
		c-4.4-5.3-9-10.8-13.8-16.5C351.5,82,362.6,76.3,375.1,72.4z"/>
	<path class="st1" d="M480.5,90c9.5,5.4,18.7,10.6,28.2,16c-2.7,6.4-5.5,13-8.5,19.8c-11-4.7-20.8-10.9-31-17.1
		C473.1,102.3,476.8,96.2,480.5,90z"/>
	<path class="st1" d="M646.5,45.8c-3.3-6.2-6.6-12.5-10-19c10.7-5.7,21.5-10.2,33.1-13.8c2.1,7,4.2,13.8,6.3,20.5
		C666.1,37.6,656.5,41.6,646.5,45.8z"/>
	<path class="st1" d="M411.9,88.7c0-7.4,0-14.5,0-21.8c12.6-0.5,24.7,1.9,36.8,6.5c-2.6,6.8-5.2,13.5-7.8,20.5
		C431.7,90.3,422.3,88.5,411.9,88.7z"/>
	<path class="st1" d="M574.2,110.5c-6.7,9.5-24.4,19.9-34.5,20.1c-1.3-6.9-2.7-13.8-4-20.6c4.2-1.8,8.5-3.2,12.2-5.4
		c3.7-2.2,6.9-5.4,10.6-8.3C563.5,100.9,568.9,105.7,574.2,110.5z"/>
	<path class="st1" d="M742.5,10.4c-1.8,7.1-3.6,13.9-5.5,21.1c-9.9-2.3-19.8-3.5-30.3-3c-0.4-7.4-0.7-14.4-1.1-21.8
		C718.2,6,730.3,7.2,742.5,10.4z"/>
	<path class="st1" d="M840.2,183.6c-7.5-0.8-14.5-1.5-21.5-2.3c0.5-10.9,1.1-21.5,1.6-32.5c7,0,14.1,0,21.5,0
		C842.2,160.4,841.4,171.8,840.2,183.6z"/>
	<path class="st1" d="M332.7,143.8c-6.9-2-13.8-4-20.9-6c1.7-6,3.7-11.5,6.5-17.1c6.6,3.2,13,6.2,19.6,9.3
		C336.1,134.7,334.4,139.1,332.7,143.8z"/>
	<path class="st0" d="M81.1,452.3c-0.5-0.1-1.1-0.1-1.6-0.3c-4.1-1.1-8.2-2.1-12.2-3.4c-3-0.9-5.1-3-5.9-6.2
		c-1.1-4.1-2.2-8.2-3.1-12.3c-0.6-2.8,0.3-5.4,2.3-7.4c2.9-3.1,6-6,9.1-8.8c2.3-2.1,5-2.7,8.1-1.8c3.6,1,7.2,2,10.8,3
		c3.7,1,6,3.3,6.9,7c0.9,3.6,1.8,7.3,2.8,10.9c0.9,3.2,0,6-2.2,8.2c-2.9,3-5.9,5.8-8.9,8.7C85.3,451.5,83.3,452,81.1,452.3z
		 M80.9,445.8c0.7-0.4,1.7-0.8,2.4-1.4c2.5-2.3,4.8-4.7,7.2-7c1.1-1.1,1.4-2.3,1-3.9c-0.9-3.1-1.7-6.3-2.5-9.5
		c-0.4-1.6-1.4-2.5-2.9-2.9c-3.2-0.9-6.5-1.8-9.7-2.7c-1.3-0.4-2.4-0.1-3.4,0.8c-2.5,2.5-5.1,5-7.6,7.5c-0.9,0.9-1.2,1.9-0.9,3.1
		c0.9,3.4,1.7,6.9,2.7,10.3c0.2,0.8,1,1.9,1.7,2.1C72.8,443.6,76.7,444.6,80.9,445.8z"/>
	<path class="st0" d="M147.3,389c0.5,0.1,1.5,0.1,2.4,0.4c3.4,0.9,6.8,1.9,10.3,2.9c3.5,1,5.8,3.3,6.6,6.9c0.8,3.4,1.7,6.7,2.6,10
		c0.9,3.8,0.3,7.2-2.8,10c-2.6,2.3-5,4.8-7.4,7.3c-2.6,2.6-5.7,3.4-9.3,2.5c-3.5-0.9-7-2-10.5-2.9c-3.7-1-5.9-3.3-6.8-7.1
		c-0.8-3.4-1.7-6.7-2.6-10c-1-3.8-0.2-7,2.6-9.7c2.6-2.5,5.2-5.1,7.9-7.6C142.4,389.5,144,388.9,147.3,389z M163.2,412.4
		c-0.1-0.7-0.1-1-0.2-1.3c-0.9-3.4-1.7-6.9-2.6-10.3c-0.4-1.5-1.4-2.2-2.8-2.6c-3.1-0.9-6.3-1.7-9.4-2.6c-1.6-0.5-2.8-0.1-3.9,1
		c-2.3,2.3-4.6,4.6-7,6.9c-1.3,1.2-1.5,2.6-1.1,4.2c0.8,3.1,1.6,6.1,2.4,9.2c0.4,1.6,1.4,2.6,3.1,3c3.1,0.8,6.1,1.7,9.1,2.6
		c1.6,0.5,3,0.1,4.2-1.1c2.3-2.3,4.7-4.6,6.9-6.9C162.5,413.8,162.9,412.9,163.2,412.4z"/>
	<path class="st0" d="M152.3,484.8c0,2.3-0.7,4.4-2.4,6c-2.9,2.9-5.7,5.7-8.6,8.5c-2.6,2.6-5.9,2.7-9.2,1.9c-3.6-0.9-7.2-2-10.8-3.1
		c-3.2-1-5.2-3.2-6.1-6.4c-1-3.8-2-7.6-2.9-11.4c-0.7-3.1,0-5.9,2.3-8.2c2.8-2.8,5.6-5.6,8.4-8.3c2.4-2.3,5.3-3.1,8.5-2.2
		c3.9,1,7.8,2.1,11.6,3.3c2.9,0.9,4.9,2.8,5.7,5.6c1.2,3.9,2.1,7.8,3.1,11.7C152.3,483,152.3,483.9,152.3,484.8z M146,484.8
		c-0.1-0.6-0.1-0.8-0.2-1c-0.9-3.6-1.8-7.3-2.8-10.9c-0.3-0.8-1.3-1.8-2.1-2.1c-3.4-1.1-6.8-2-10.2-3c-1.2-0.3-2.3-0.1-3.2,0.8
		c-2.5,2.5-5.1,5-7.7,7.4c-1,1-1.3,2.1-1,3.4c0.9,3.3,1.8,6.7,2.6,10c0.4,1.5,1.3,2.3,2.7,2.7c3.2,0.9,6.5,1.8,9.7,2.7
		c1.4,0.4,2.4,0.2,3.4-0.8c2.5-2.4,5-4.8,7.4-7.3C145.3,486.3,145.7,485.4,146,484.8z"/>
</g>
</svg>
