<?xml version="1.0" encoding="utf-8"?>
<!-- Generator: Adobe Illustrator 16.0.0, SVG Export Plug-In . SVG Version: 6.00 Build 0)  -->
<!DOCTYPE svg PUBLIC "-//W3C//DTD SVG 1.1//EN" "http://www.w3.org/Graphics/SVG/1.1/DTD/svg11.dtd">
<svg version="1.1" id="Layer_1" xmlns="http://www.w3.org/2000/svg" xmlns:xlink="http://www.w3.org/1999/xlink" x="0px" y="0px"
	 width="584.42px" height="387.58px" viewBox="0 0 584.42 387.58" enable-background="new 0 0 584.42 387.58" xml:space="preserve">
<g>
	<path fill-rule="evenodd" clip-rule="evenodd" fill="#FFFFFF" d="M434.309,120.042c0.578-0.789,0.946-1.308,1.332-1.813
		c1.213-1.589,2.322-3.277,3.67-4.744c7.223-7.864,18.607-6.721,24.854,0.229c1.59,1.77,2.781,3.898,4.129,5.88
		c0.402,0.593,0.707,1.251,1.229,2.188c0.789-0.962,1.416-1.689,2.007-2.447c2.279-2.926,4.922-5.439,8.142-7.326
		c3.421-2.004,7.137-3.056,11.063-3.082c5.578-0.036,10.259,2.112,13.917,6.37c2.843,3.307,4.573,7.204,5.813,11.324
		c1.676,5.582,2.472,11.319,2.951,17.121c0.678,8.207,0.486,16.422,0.281,24.63c-0.127,5.129-0.696,10.248-1.08,15.371
		c-0.028,0.384-0.156,0.76-0.277,1.327c-5.283-0.525-10.486-1.043-15.875-1.58c0-1.274-0.043-2.323,0.01-3.366
		c0.096-1.866,0.251-3.728,0.376-5.591c0.526-7.798,0.809-15.598,0.386-23.413c-0.36-6.671-0.915-13.32-2.85-19.753
		c-0.553-1.838-1.348-3.63-2.251-5.328c-0.896-1.681-1.899-1.94-3.438-0.839c-1.335,0.956-2.592,2.124-3.594,3.421
		c-2.727,3.528-4.402,7.624-5.789,11.819c-2.205,6.671-3.596,13.528-4.47,20.495c-0.114,0.915-0.317,1.817-0.517,2.938
		c-1.301,0-2.484,0.056-3.662-0.011c-3.664-0.205-7.326-0.449-10.988-0.692c-1.605-0.106-1.704-0.198-1.729-1.763
		c-0.033-2.137,0.041-4.277-0.042-6.413c-0.298-7.675-0.774-15.336-2.779-22.796c-0.534-1.987-1.323-3.913-2.093-5.828
		c-0.282-0.704-0.843-1.295-1.465-2.217c-0.714,0.978-1.325,1.663-1.766,2.443c-2.18,3.862-3.617,8.033-4.842,12.269
		c-2.484,8.601-4.242,17.359-5.395,26.235c-0.722,5.552-1.355,11.116-2.016,16.677c-0.242,2.039-0.462,2.279-2.453,2.284
		c-4.074,0.011-8.15,0.02-12.225-0.008c-1.945-0.012-2.104-0.248-2.219-2.219c-0.372-6.329-0.782-12.655-1.16-18.982
		c-0.172-2.865-0.279-5.734-0.453-8.598c-0.369-6.062-0.768-12.122-1.146-18.183c-0.154-2.464-0.284-4.93-0.436-7.396
		c-0.251-4.063-0.51-8.125-0.764-12.188c-0.017-0.266-0.028-0.533-0.033-0.8c-0.034-1.872,0.028-1.948,1.824-2.054
		c4.264-0.251,8.525-0.535,12.791-0.729c2.269-0.103,2.269-0.032,2.358,2.318C433.692,116.722,433.643,118.238,434.309,120.042z"/>
	<path fill-rule="evenodd" clip-rule="evenodd" fill="#FFFFFF" d="M0.003,148.333c2.282-0.291,4.452-0.582,6.626-0.84
		c2.781-0.329,5.561-0.681,8.35-0.926c1.851-0.163,1.815-0.052,2.062,1.781c0.814,6.012,1.678,12.018,2.547,18.023
		c0.099,0.688,0.353,1.354,0.654,2.474c3.428-3.682,6.138-7.366,9.046-10.878c2.982-3.602,5.928-7.232,8.895-10.846
		c2.915-3.549,5.839-7.092,8.864-10.766c4.951,2.434,9.726,4.782,14.768,7.26c-0.613,0.858-1.095,1.616-1.658,2.308
		c-9.952,12.224-19.916,24.438-29.869,36.663c-0.532,0.654-0.987,1.372-1.651,2.302c16.78,9.887,33.341,19.718,49.907,30.087
		c-3.097,4.441-6.059,8.689-9.146,13.117c-0.729-0.4-1.359-0.719-1.962-1.082c-12.303-7.4-24.603-14.807-36.909-22.204
		c-0.657-0.395-1.369-0.698-2.242-0.899c0.744,4.755,2.107,9.262,3.395,13.781c1.277,4.482,2.69,8.926,4.123,13.65
		c-5.051,1.996-10.143,3.836-15.185,5.646C14.854,227.732-0.24,162.72,0.003,148.333z"/>
	<path fill-rule="evenodd" clip-rule="evenodd" fill="#FFFFFF" d="M432.467,350.365c-0.564,4.92-1.324,9.549-2.121,14.252
		c-3.444-0.406-6.612-0.801-9.785-1.148c-3.381-0.373-6.76-0.773-10.148-1.037c-12.328-0.961-24.684-1.156-37.033-0.768
		c-8.131,0.256-16.256,0.848-24.369,1.482c-6.979,0.547-13.963,1.172-20.896,2.117c-10.038,1.369-20.049,2.961-30.044,4.633
		c-15.136,2.533-30.115,5.84-44.958,9.723c-9.031,2.363-17.983,5.025-26.972,7.549c-0.569,0.16-1.147,0.281-1.682,0.412
		c-0.95-1.262-4.47-11.5-4.716-13.768c2.352-0.754,4.737-1.559,7.147-2.279c19.186-5.742,38.607-10.549,58.271-14.313
		c10.736-2.055,21.544-3.752,32.351-5.406c7.18-1.098,14.403-1.945,21.628-2.701c5.77-0.605,11.57-0.898,17.356-1.344
		c13.666-1.047,27.356-1.01,41.042-0.691c5.464,0.129,10.925,0.584,16.374,1.055c5.312,0.459,10.608,1.117,15.908,1.711
		C430.6,349.929,431.366,350.142,432.467,350.365z"/>
	<path fill-rule="evenodd" clip-rule="evenodd" fill="#FFFFFF" d="M314.859,139.961c-0.733-1.133-1.142-1.956-1.724-2.629
		c-2.888-3.344-6.582-4.658-10.936-4.149c-4.889,0.572-9.51,2.035-13.896,4.261c-0.471,0.239-0.963,0.435-1.69,0.76
		c-3.157-4.115-6.308-8.225-9.59-12.506c0.573-0.433,0.993-0.835,1.484-1.11c6.726-3.748,13.882-6.1,21.561-6.986
		c4.596-0.53,9.071-0.225,13.458,1.113c8.011,2.443,13.526,7.839,17.336,15.11c2.687,5.127,4.226,10.646,5.296,16.313
		c1.848,9.775,1.893,19.652,1.632,29.536c-0.137,5.2-0.55,10.394-0.862,15.59c-0.081,1.351-0.32,1.59-1.766,1.525
		c-2.666-0.116-5.328-0.324-7.99-0.504c-1.464-0.1-2.926-0.244-4.391-0.32c-2.227-0.114-2.406-0.283-2.377-2.453
		c0.013-0.868,0.019-1.736,0.004-2.605c-0.004-0.188-0.105-0.375-0.234-0.801c-0.81,0.139-1.641,0.222-2.44,0.427
		c-4.625,1.183-9.31,1.745-14.083,1.438c-14.382-0.921-22.434-10.909-24.174-21.242c-1.377-8.184,1.147-15.173,6.763-21.095
		c5.078-5.355,11.455-8.201,18.717-9.066c2.576-0.307,5.19-0.297,7.786-0.439C313.263,140.103,313.782,140.049,314.859,139.961z
		 M311.727,155.71c-2.049,0.218-3.923,0.296-5.75,0.637c-4.102,0.765-7.293,2.9-9.166,6.716c-2.273,4.63,0.12,12.773,8.323,13.168
		c5.189,0.25,10.02-1.229,14.793-3.018c1.086-0.406,1.327-1.184,1.26-2.211c-0.275-4.193-0.538-8.387-0.803-12.58
		c-0.066-1.071-0.535-1.734-1.68-1.862C316.325,156.292,313.95,155.983,311.727,155.71z"/>
	<path fill-rule="evenodd" clip-rule="evenodd" fill="#FFFFFF" d="M367.627,165.25c1.092,1.883,2.57,2.904,4.13,3.787
		c3.8,2.154,7.912,2.688,12.198,2.198c5.477-0.626,10.496-2.465,15.002-5.663c0.162-0.115,0.344-0.207,0.525-0.283
		c0.119-0.049,0.258-0.049,0.667-0.118c3.729,3.327,7.587,6.77,11.606,10.356c-0.704,0.656-1.148,1.134-1.656,1.529
		c-6.585,5.108-14.042,8.143-22.271,9.321c-5.467,0.782-10.934,0.806-16.292-0.622c-12.163-3.241-19.988-11.117-23.819-22.976
		c-1.929-5.967-2.415-12.118-1.73-18.39c0.679-6.228,1.994-12.257,4.922-17.827c5.357-10.19,13.519-16.904,25.022-18.664
		c14.382-2.201,24.548,5.915,26.815,18.258c1.646,8.963-1.008,16.61-7.197,23.13c-4.959,5.225-11.043,8.808-17.539,11.729
		c-2.796,1.256-5.691,2.292-8.541,3.433C368.928,164.667,368.397,164.914,367.627,165.25z M362.735,150.219
		c7.115-2.467,13.756-5.193,19.186-10.183c1.068-0.982,2.006-2.155,2.803-3.373c2.059-3.147,2.107-6.522,0.763-9.949
		c-0.958-2.443-2.864-3.729-5.429-3.661c-1.49,0.04-3.059,0.407-4.435,0.995c-4.85,2.07-8.029,5.849-10.161,10.562
		c-2.009,4.439-2.724,9.179-3.057,13.99C362.375,149.027,362.575,149.47,362.735,150.219z"/>
	<path fill-rule="evenodd" clip-rule="evenodd" fill="#FFFFFF" d="M73.108,128.629c5.567-1.008,10.982-1.989,16.446-2.979
		c1.004,1.856,0.922,3.765,1.189,5.57c1.229,8.309,2.372,16.63,3.547,24.945c0.159,1.123,0.312,2.246,0.506,3.362
		c0.063,0.359,0.253,0.695,0.517,1.386c2.58-2.257,4.76-4.566,7.052-6.75c2.32-2.211,4.615-4.449,6.925-6.672
		c2.306-2.218,4.615-4.431,6.891-6.616c1.555,0.615,11.357,7.945,12.908,9.653c-8.816,8.78-17.64,17.566-26.642,26.531
		c0.759,0.656,1.271,1.143,1.827,1.574c11.071,8.607,22.148,17.208,33.218,25.815c0.622,0.482,1.2,1.021,1.762,1.503
		c-0.626,1.419-8.174,10.173-10.34,12.015c-9.048-6.945-18.132-13.916-27.482-21.091c-0.197,0.767-0.424,1.179-0.385,1.566
		c0.54,5.44,1.078,10.882,1.694,16.313c0.426,3.746,0.395,3.895-3.297,4.393c-4.088,0.551-8.186,1.027-12.57,1.574
		c-2.486-15.317-4.631-30.597-6.955-45.847C77.592,159.593,75.409,144.291,73.108,128.629z"/>
	<path fill-rule="evenodd" clip-rule="evenodd" fill="#FFFFFF" d="M181.181,134.605c4.947-2.107,9.714-4.138,14.692-6.259
		c0.415,0.733,0.823,1.315,1.095,1.956c3.846,9.064,6.82,18.399,8.353,28.142c1.35,8.582,1.592,17.173-1.047,25.578
		c-3.928,12.512-12.3,20.373-25.284,22.591c-8.4,1.435-16-1.084-22.499-6.666c-5.72-4.914-9.428-11.187-12.137-18.124
		c-2.882-7.378-4.574-15.043-5.624-22.875c-0.818-6.096-1.246-12.211-1.192-18.36c0.004-0.468,0.021-0.936,0.011-1.404
		c-0.02-0.982,0.395-1.476,1.434-1.458c2.538,0.044,5.077,0.013,7.615,0.069c1.801,0.041,3.6,0.172,5.4,0.269
		c1.608,0.087,1.744,0.202,1.803,1.714c0.118,3,0.147,6.006,0.334,9.003c0.667,10.714,2.288,21.229,6.843,31.087
		c1.497,3.239,3.439,6.182,6.094,8.612c4.564,4.179,10.083,4.588,15.221,1.137c3.757-2.524,5.811-6.185,6.911-10.446
		c1.169-4.521,1.201-9.134,0.703-13.73c-1.111-10.237-4.118-19.963-8.221-29.373C181.528,135.71,181.428,135.33,181.181,134.605z"/>
	<g>
		<path fill-rule="evenodd" clip-rule="evenodd" fill="#FFFFFF" d="M181.22,366.873c-1.513-4.896-2.963-9.598-4.482-14.52
			c0.772-0.24,1.445-0.463,2.125-0.66c17.573-5.09,35.329-9.471,53.249-13.131c14.645-2.992,29.338-5.77,44.068-8.305
			c10.652-1.832,21.38-3.264,32.109-4.596c10.864-1.346,21.757-2.521,32.663-3.461c16.043-1.383,32.121-2.287,48.229-2.232
			c11.087,0.039,22.182,0.125,33.255,0.611c9.2,0.404,18.372,1.418,27.556,2.178c1.662,0.137,3.32,0.34,4.978,0.541
			c0.776,0.094,1.546,0.256,2.538,0.424c-0.639,5.023-1.259,9.895-1.9,14.941c-1.292-0.117-2.466-0.188-3.631-0.33
			c-24.256-2.998-48.617-3.68-73.014-2.994c-12.014,0.336-24.022,1.09-36.009,1.98c-14.05,1.043-28.044,2.688-42.005,4.605
			c-38.073,5.227-75.661,12.816-112.73,22.959C185.968,365.5,183.731,366.158,181.22,366.873z"/>
		<path fill-rule="evenodd" clip-rule="evenodd" fill="#FFFFFF" d="M175.378,272.994c15.429,11.107,30.69,22.092,46.147,33.219
			c-3.335,4.48-6.508,8.74-9.762,13.111c-12.546-9.033-24.985-17.99-37.424-26.943c-0.142,0.088-0.284,0.178-0.426,0.268
			c1.706,9.176,3.69,18.293,6.199,27.578c-5.201,1.643-10.309,3.256-15.394,4.863c-5.45-11.891-17.083-79.99-15.424-90.441
			c5.391-0.307,10.83-0.615,16.478-0.939c0.659,7.525,0.965,14.898,2.147,22.596c9.069-10.385,17.879-20.471,26.814-30.701
			c4.751,2.857,9.41,5.66,14.336,8.623C197.745,247.257,186.599,260.083,175.378,272.994z"/>
		<path fill-rule="evenodd" clip-rule="evenodd" fill="#FFFFFF" d="M454,304.537c-5.452-0.721-10.667-1.41-16.036-2.121
			c0.155-1.896,0.3-3.656,0.469-5.705c-1.175,0.209-2.192,0.377-3.204,0.57c-5.303,1.016-10.6,1.236-15.895-0.074
			c-12.546-3.104-17.535-13.217-18.843-20.895c-2.459-14.451,7.942-26.672,20.767-29.615c3.745-0.861,7.531-1.031,11.351-0.855
			c0.78,0.037,1.563,0.006,2.707,0.006c-1.813-3.377-4.087-5.695-7.675-6.494c-3.293-0.732-6.547-0.209-9.701,0.656
			c-3.012,0.826-5.924,2.018-9.21,3.162c-2.786-4.23-5.74-8.717-8.782-13.336c0.488-0.352,0.868-0.699,1.309-0.936
			c7.303-3.918,15.087-6.162,23.387-6.203c11.109-0.057,19.488,4.846,25.035,14.48c3.075,5.34,4.668,11.191,5.641,17.227
			c1.541,9.551,1.6,19.162,0.9,28.777c-0.453,6.258-1.145,12.498-1.75,18.746C454.393,302.71,454.194,303.482,454,304.537z
			 M439.76,263.74c-3.683-1.512-10.35-1.988-14.23-1.193c-2.603,0.533-4.734,1.822-6.436,3.793
			c-2.567,2.977-2.906,6.357-1.486,9.936c1.35,3.406,4.014,5.035,7.574,5.324c2.82,0.23,5.602-0.043,8.348-0.717
			c2.124-0.521,4.264-0.988,6.23-1.973C439.76,273.751,439.76,268.699,439.76,263.74z"/>
		<path fill-rule="evenodd" clip-rule="evenodd" fill="#FFFFFF" d="M385.488,278.251c3.896,3.578,7.771,7.141,11.829,10.869
			c-0.628,0.605-1.154,1.174-1.742,1.67c-6.075,5.102-13.063,8.199-20.861,9.564c-6.859,1.203-13.594,0.877-20.065-1.805
			c-9.782-4.055-15.84-11.533-19.045-21.434c-2.717-8.391-2.687-16.943-1.059-25.535c0.938-4.953,2.468-9.705,5.063-14.057
			c4.832-8.105,11.609-13.693,20.927-15.887c4.172-0.98,8.367-0.92,12.467,0.363c7.745,2.424,12.435,7.863,14.502,15.525
			c2.896,10.74-0.186,19.877-7.982,27.576c-3.838,3.791-8.299,6.725-13.105,9.111c-2.986,1.48-6.079,2.746-9.126,4.102
			c-0.665,0.295-1.342,0.564-2.12,0.889c0.834,1.463,2.057,2.361,3.33,3.178c3.802,2.439,8.013,2.799,12.346,2.223
			c5.066-0.674,9.648-2.574,13.695-5.721C384.797,278.683,385.084,278.519,385.488,278.251z M349.854,263.476
			c0.546,0,0.762,0.055,0.933-0.01c5.337-1.988,10.517-4.32,14.942-7.969c1.676-1.385,3.201-3.047,4.456-4.822
			c2.165-3.064,2.215-6.504,0.939-9.949c-1.04-2.809-3.445-4.082-6.386-3.506c-3.732,0.734-6.558,2.9-8.854,5.795
			C351.151,248.982,350.217,256.066,349.854,263.476z"/>
		<path fill-rule="evenodd" clip-rule="evenodd" fill="#FFFFFF" d="M476.95,233.642c5.392,0.654,10.529,1.277,15.9,1.928
			c-0.363,3.23-0.711,6.314-1.111,9.869c0.748-0.609,1.186-0.932,1.587-1.297c3.419-3.104,7.254-5.455,11.825-6.418
			c8.967-1.889,17.15,1.18,21.936,9.668c2.229,3.953,3.357,8.268,4.015,12.719c1.218,8.25,0.886,16.504,0.117,24.771
			c-0.884,9.518-2.449,18.918-4.527,28.24c-0.187,0.834-0.403,1.662-0.661,2.721c-5.148-1.254-10.173-2.48-15.358-3.746
			c0.098-0.705,0.132-1.287,0.261-1.85c2.621-11.477,4.34-23.08,4.889-34.844c0.248-5.281,0.139-10.559-1.081-15.734
			c-0.364-1.541-1.028-3.021-1.666-4.482c-0.68-1.555-2.017-2.195-3.613-1.799c-1.33,0.33-2.774,0.752-3.815,1.576
			c-1.707,1.354-3.283,2.945-4.638,4.656c-2.922,3.688-4.958,7.908-6.79,12.219c-3.983,9.369-6.66,19.141-8.821,29.064
			c-0.567,2.602-1.064,5.219-1.647,8.084c-5.252-0.711-10.438-1.416-15.847-2.148C470.924,282.396,473.922,258.138,476.95,233.642z"
			/>
		<path fill-rule="evenodd" clip-rule="evenodd" fill="#FFFFFF" d="M278.662,270.484c-0.076,10.865-1.492,18.289-4.916,25.246
			c-3.277,6.656-8.016,11.945-15.237,14.254c-11.239,3.594-21.383,1.344-30.075-6.697c-6.289-5.818-9.856-13.205-11.726-21.469
			c-2.029-8.957-1.725-17.799,1.824-26.342c4.248-10.219,11.653-16.893,22.733-18.732c14.567-2.422,26.946,4.285,33.273,17.666
			C277.416,260.494,278.7,266.921,278.662,270.484z M262.61,272.859c-0.193-1.328-0.393-3.801-0.941-6.193
			c-0.889-3.877-2.486-7.443-5.193-10.467c-5.252-5.869-16.098-5.623-20.706,1.209c-1.215,1.801-2.302,3.811-2.901,5.885
			c-2.647,9.139-1.027,17.697,4.061,25.641c1.271,1.984,2.991,3.584,5.013,4.828c6.802,4.189,13.978,2.15,17.491-4.988
			c0.441-0.896,0.814-1.83,1.145-2.771C261.939,282.119,262.432,278.089,262.61,272.859z"/>
		<path fill-rule="evenodd" clip-rule="evenodd" fill="#FFFFFF" d="M299.219,232.507c0.397,2.676,0.757,5.082,1.16,7.791
			c1.645-1.617,3-3.15,4.564-4.432c1.643-1.35,3.403-2.605,5.264-3.625c1.801-0.984,3.748-1.779,5.719-2.357
			c2.035-0.598,4.161-0.984,6.274-1.189c2.04-0.197,4.113-0.043,6.429-0.043c-0.28,5.262-0.986,10.313-1.447,15.539
			c-0.697,0.045-1.273,0.117-1.85,0.115c-5.29-0.029-9.383,2.209-12.415,6.496c-2.672,3.779-4.118,8.049-5.14,12.51
			c-1.32,5.75-1.002,11.549-0.619,17.352c0.496,7.529,1.022,15.057,1.532,22.586c0.018,0.262,0.002,0.525,0.002,1.053
			c-5.139,0.74-10.274,1.201-15.641,1.744c-3.35-23.801-6.676-47.43-10.035-71.291C288.451,234.001,293.765,233.265,299.219,232.507
			z"/>
	</g>
	<path fill-rule="evenodd" clip-rule="evenodd" fill="#FFFFFF" d="M242.646,208.97c1.704-0.354,3.138-0.633,4.562-0.951
		c6.887-1.537,9.928-6.84,10.224-12.888c0.193-3.968-0.567-7.843-1.387-11.696c-1.708-8.024-3.608-16.01-5.137-24.065
		c-0.917-4.837-1.422-9.766-1.855-14.675c-0.357-4.05-0.375-8.132-0.471-12.202c-0.056-2.378,0.008-2.389,2.292-2.386
		c3.675,0.006,7.35,0.026,11.024,0.041c0.268,0.001,0.535-0.003,0.802,0.012c2.832,0.155,2.921,0.193,2.86,3.022
		c-0.255,11.764,1.677,23.254,4.182,34.688c1.355,6.187,2.681,12.392,3.681,18.643c0.997,6.228,1.44,12.597-1.105,18.565
		c-4.413,10.35-12.101,16.895-23.356,18.891c-0.846,0.15-1.733,0.082-2.601,0.082c-2.024,0-2.188-0.096-2.432-2.045
		c-0.463-3.707-0.867-7.42-1.272-11.133C242.592,210.291,242.646,209.693,242.646,208.97z"/>
	<path fill-rule="evenodd" clip-rule="evenodd" fill="#FFFFFF" d="M214.629,103.265c5.617,0,11.064,0,16.56,0
		c0.122,0.533,0.255,0.841,0.253,1.15c-0.052,8.878-0.212,17.758-0.146,26.635c0.042,5.803,0.349,11.607,0.651,17.406
		c0.298,5.729,0.677,11.455,1.136,17.173c0.486,6.048,0.958,12.104,1.723,18.119c0.545,4.288,1.565,8.516,2.379,12.769
		c0.073,0.383,0.183,0.761,0.345,1.422c-4.963,1.984-9.889,3.954-15.049,6.018c-0.401-1.047-0.872-1.923-1.072-2.857
		c-0.978-4.56-2.083-9.106-2.764-13.714c-0.865-5.867-1.443-11.78-2-17.687c-0.413-4.382-0.643-8.784-0.869-13.18
		c-0.422-8.198-0.918-16.396-1.128-24.6c-0.232-9.079-0.181-18.165-0.236-27.249C214.409,104.163,214.566,103.655,214.629,103.265z"
		/>
	<path fill-rule="evenodd" clip-rule="evenodd" fill="#FFFFFF" d="M50.719,270.65c1.112,0.186,2.25,0.277,3.334,0.57
		c4.376,1.178,8.74,2.402,13.103,3.635c4.068,1.146,6.69,3.809,7.795,7.85c1.249,4.564,2.391,9.158,3.494,13.76
		c0.979,4.08-0.011,7.664-3.031,10.627c-3.334,3.271-6.669,6.545-10.03,9.789c-2.997,2.895-6.602,3.672-10.55,2.666
		c-4.585-1.166-9.146-2.439-13.683-3.783c-3.78-1.119-6.403-3.592-7.469-7.422c-1.356-4.879-2.658-9.779-3.755-14.721
		c-0.78-3.516,0.052-6.828,2.619-9.445c3.597-3.668,7.292-7.242,11.02-10.779C45.531,271.529,47.958,270.662,50.719,270.65z
		 M74.36,299.025c-0.126-0.719-0.207-1.449-0.384-2.156c-1.025-4.072-2.113-8.131-3.1-12.211c-0.728-3.014-2.469-4.9-5.508-5.691
		c-4.128-1.076-8.238-2.234-12.329-3.445c-2.868-0.85-5.229-0.133-7.305,1.926c-3.129,3.102-6.267,6.197-9.436,9.258
		c-1.917,1.854-2.494,4.086-1.887,6.592c1.083,4.469,2.273,8.912,3.418,13.369c0.637,2.479,2.204,4.088,4.637,4.795
		c4.482,1.299,8.969,2.584,13.478,3.791c2.344,0.627,4.532,0.158,6.311-1.566c3.452-3.344,6.875-6.721,10.282-10.111
		C73.779,302.339,74.363,300.806,74.36,299.025z"/>
	<path fill-rule="evenodd" clip-rule="evenodd" fill="#FFFFFF" d="M79.229,275.435c0.046-2.975,1.132-5.482,3.225-7.555
		c3.321-3.285,6.637-6.58,10.004-9.82c3.081-2.963,6.735-3.947,10.884-2.818c4.439,1.209,8.864,2.465,13.293,3.711
		c4.145,1.166,6.803,3.822,7.877,7.996c1.246,4.842,2.515,9.678,3.637,14.547c0.793,3.439-0.241,6.564-2.615,9.045
		c-3.6,3.758-7.34,7.393-11.167,10.918c-2.933,2.703-6.523,3.164-10.299,2.152c-4.249-1.141-8.474-2.377-12.719-3.535
		c-4.536-1.238-7.345-4.09-8.457-8.684c-1.036-4.277-2.21-8.518-3.265-12.789C79.377,277.576,79.356,276.492,79.229,275.435z
		 M100.211,259.207c-1.646,0.045-3.021,0.666-4.218,1.707c-0.654,0.57-1.252,1.203-1.874,1.809c-2.679,2.611-5.36,5.221-8.037,7.836
		c-1.711,1.672-2.861,3.656-2.297,6.086c1.115,4.807,2.379,9.582,3.655,14.35c0.657,2.455,2.323,3.994,4.771,4.676
		c4.37,1.219,8.754,2.391,13.108,3.664c2.502,0.732,4.665,0.168,6.476-1.559c3.482-3.316,6.911-6.693,10.29-10.115
		c1.658-1.682,2.192-3.75,1.583-6.096c-1.141-4.389-2.234-8.791-3.363-13.184c-0.687-2.676-2.292-4.428-5.031-5.158
		c-4.319-1.15-8.612-2.395-12.922-3.582C101.653,259.447,100.926,259.349,100.211,259.207z"/>
	<path fill-rule="evenodd" clip-rule="evenodd" fill="#FFFFFF" d="M67.264,325.81c0.007-2.975,1.076-5.486,3.172-7.557
		c3.417-3.379,6.842-6.75,10.284-10.104c3.008-2.93,6.677-3.572,10.583-2.613c4.593,1.131,9.131,2.49,13.673,3.818
		c3.811,1.115,6.377,3.611,7.43,7.441c1.343,4.881,2.569,9.799,3.748,14.723c0.839,3.51-0.107,6.699-2.549,9.252
		c-3.599,3.756-7.328,7.396-11.136,10.943c-2.668,2.484-5.997,3.242-9.509,2.361c-4.847-1.215-9.653-2.602-14.447-4.014
		c-3.903-1.148-6.354-3.846-7.413-7.723c-1.246-4.564-2.369-9.162-3.5-13.756C67.38,327.687,67.371,326.736,67.264,325.81z
		 M95.234,349.929c1.867,0.023,3.394-0.682,4.697-1.955c3.25-3.172,6.504-6.342,9.757-9.512c1.986-1.936,2.665-4.207,1.935-6.934
		c-1.138-4.25-2.227-8.516-3.278-12.791c-0.689-2.803-2.383-4.527-5.156-5.283c-4.183-1.141-8.369-2.277-12.523-3.514
		c-2.776-0.826-5.107-0.262-7.155,1.758c-3.139,3.096-6.298,6.172-9.465,9.236c-2.117,2.049-2.758,4.424-1.968,7.293
		c1.098,3.984,2.114,7.994,3.065,12.018c0.73,3.092,2.485,5.053,5.596,5.869c4.193,1.1,8.359,2.307,12.541,3.449
		C93.917,349.738,94.583,349.81,95.234,349.929z"/>
	<g>
		<path fill-rule="evenodd" clip-rule="evenodd" fill="#FFFFFF" d="M539.059,214.47c-0.104-0.611-0.156-1.07-0.26-1.518
			c-0.703-3.037,0.481-5.787,3.166-7.309c0.291-0.164,0.588-0.322,0.896-0.447c0.674-0.271,0.915-0.713,0.666-1.422
			c-0.237-0.673-0.686-0.908-1.387-0.852c-1.461,0.118-2.925,0.257-4.389,0.27c-4.369,0.039-8.238-1.495-11.734-3.998
			c-0.903-0.646-1.703-1.525-2.336-2.444c-2.091-3.04-1.555-6.638,1.326-8.939c2.789-2.228,6.061-2.679,9.476-2.173
			c1.706,0.252,3.37,0.781,5.056,1.176c0.311,0.073,0.631,0.104,1.183,0.191c0.076-0.746,0.157-1.376,0.202-2.01
			c0.285-4.012,3.672-5.998,7.293-4.229c0.707,0.346,1.321,0.894,1.945,1.389c0.514,0.407,0.979,0.875,1.532,1.377
			c0.664-0.36,1.249-0.659,1.813-0.99c1.418-0.831,2.94-1.234,4.582-1.254c2.992-0.038,5.135,1.304,6.221,4.105
			c0.402,1.04,0.645,2.182,0.732,3.295c0.189,2.385,0.131,2.381,2.519,3.158c0.567,0.186,1.141,0.396,1.661,0.685
			c3.449,1.92,3.787,6.002,0.701,8.441c-0.566,0.448-1.18,0.839-1.98,1.404c0.535,0.502,0.926,0.914,1.362,1.271
			c1.986,1.629,3.634,3.544,4.858,5.802c1.04,1.918,1.528,3.961,1.418,6.166c-0.216,4.281-3.777,7.174-7.97,6.258
			c-5.093-1.113-8.896-4.152-11.77-8.395c-0.782-1.152-1.337-2.461-1.976-3.707c-0.739-1.442-0.771-1.459-2.557-0.643
			c0.637,4.494-1.03,7.623-5.875,8.768c0,1.48,0.004,2.928-0.002,4.375c-0.004,1.113-0.567,1.768-1.473,1.73
			c-1.018-0.043-1.688-1.086-1.256-2.01c0.135-0.291,0.4-0.523,0.617-0.773c1.148-1.33,1.029-2.752-0.385-3.719
			c-0.713-0.486-1.484-0.91-2.277-1.252c-1.486-0.643-2.771,0.01-3.24,1.574c-0.057,0.189-0.04,0.404-0.113,0.586
			c-0.27,0.68-0.789,1.223-1.504,1.035c-0.486-0.127-1.023-0.639-1.227-1.113c-0.283-0.658,0.037-1.271,0.729-1.658
			C536.523,215.994,537.711,215.265,539.059,214.47z M552.908,201.137c0,0.671-0.057,0.997,0.009,1.298
			c0.855,3.94,2.116,7.74,4.512,11.025c2.498,3.428,5.719,5.963,9.91,7.031c4.25,1.082,7.68-2.053,6.955-6.379
			c-0.723-4.326-3.238-7.512-6.673-10.065c-1.008-0.749-2.091-1.044-3.372-0.859c-3.251,0.467-6.368-0.126-9.383-1.373
			C554.329,201.593,553.766,201.432,552.908,201.137z M549.334,199.353c-0.021-0.123,0.003-0.305-0.073-0.372
			c-0.448-0.396-0.913-0.776-1.386-1.145c-2.61-2.031-4.915-4.289-6.132-7.491c-0.255-0.668-0.925-1.329-1.574-1.672
			c-3.155-1.672-6.534-2.313-10.065-1.62c-1.221,0.24-2.472,0.649-3.545,1.265c-3.131,1.8-3.756,5.472-1.404,8.197
			c0.859,0.992,1.904,1.904,3.029,2.578c6.857,4.096,13.896,3.334,20.969,0.602C549.242,199.661,549.273,199.474,549.334,199.353z
			 M553.125,199.138c1.222,1.12,2.984,1.896,5.605,2.572c3.535,0.913,6.891,0.456,9.951-1.496c3.027-1.932,2.77-5.086-0.462-6.689
			c-0.531-0.264-1.103-0.521-1.681-0.605c-2.607-0.382-5.24-0.449-7.527,1.062c-1.817,1.202-3.46,2.672-5.146,4.064
			C553.536,198.318,553.362,198.779,553.125,199.138z M551.151,198.097c0.146-0.186,0.373-0.365,0.453-0.597
			c0.947-2.76,1.302-5.625,0.846-8.483c-0.445-2.79-1.843-5.166-4.28-6.734c-3.036-1.954-5.845-0.439-5.955,3.143
			C542.056,190.523,546.116,196.31,551.151,198.097z M544.907,216.357c2.891,0.031,5.167-2.109,5.231-4.918
			s-2.375-5.322-5.156-5.313c-2.706,0.008-5.108,2.408-5.141,5.133C539.809,214.054,542.065,216.326,544.907,216.357z
			 M560.703,191.764c0.607-0.111,1.084-0.143,1.521-0.292c0.47-0.16,0.9-0.428,1.35-0.649c-0.33-0.444-0.566-1.045-1.004-1.305
			c-2.355-1.395-4.76-2.706-7.149-4.042c-0.524-0.292-1.04-0.618-1.597-0.831c-0.262-0.101-0.711-0.082-0.893,0.083
			c-0.186,0.169-0.279,0.632-0.186,0.883c0.482,1.303,0.928,2.592,2.417,3.238c1.462,0.634,2.81,1.535,4.218,2.3
			C559.839,191.399,560.333,191.592,560.703,191.764z M544.868,202.533c-0.071,1.172,0.127,2.039,0.982,2.287
			c1.646,0.479,3.009,1.332,4.324,2.396c0.37,0.298,1.25,0.082,1.847-0.08c0.227-0.061,0.502-0.676,0.436-0.964
			c-0.41-1.786-0.912-3.552-1.437-5.524C548.813,201.324,546.872,201.919,544.868,202.533z M563.426,188.695
			c0.033-2.489-0.639-4.521-2.902-5.68c-1.929-0.987-4.202-0.638-6.094,1.063C557.402,185.759,560.165,187.587,563.426,188.695z
			 M554.265,189.136c-0.661,2.753-0.388,3.419,1.462,4.237c1.136,0.502,2.17,0.049,3.324-1.578
			C557.51,190.939,555.993,190.095,554.265,189.136z M555.894,194.384c-0.839-0.439-1.285-0.671-1.974-1.031
			c-0.139,0.952-0.23,1.583-0.323,2.215c0.138,0.07,0.275,0.141,0.414,0.212C554.493,195.423,554.975,195.065,555.894,194.384z"/>
		<path fill="#FFFFFF" d="M544.035,224.498l-0.093-0.002c-0.655-0.027-1.248-0.375-1.586-0.932
			c-0.328-0.541-0.365-1.205-0.098-1.779c0.134-0.287,0.346-0.512,0.531-0.711l0.162-0.178c0.489-0.566,0.713-1.145,0.645-1.668
			c-0.063-0.488-0.388-0.943-0.936-1.318c-0.682-0.467-1.421-0.873-2.195-1.207c-1.173-0.506-2.191-0.012-2.574,1.262
			c-0.017,0.059-0.021,0.121-0.028,0.182c-0.015,0.127-0.034,0.287-0.099,0.447c-0.414,1.039-1.217,1.555-2.086,1.328
			c-0.613-0.162-1.282-0.76-1.555-1.395c-0.371-0.861,0-1.758,0.941-2.283c0.853-0.477,1.689-0.977,2.578-1.506l0.877-0.521
			l-0.039-0.24c-0.053-0.336-0.096-0.627-0.162-0.912c-0.758-3.277,0.515-6.211,3.404-7.849c0.309-0.175,0.625-0.342,0.954-0.476
			c0.454-0.184,0.539-0.361,0.386-0.801c-0.156-0.439-0.396-0.559-0.883-0.525l-0.597,0.05c-1.251,0.104-2.544,0.212-3.827,0.222
			l-0.164,0.002c-4.137,0-8.018-1.338-11.861-4.092c-0.89-0.637-1.738-1.523-2.455-2.566c-2.248-3.267-1.676-7.126,1.424-9.602
			c2.627-2.098,5.909-2.86,9.856-2.276c1.177,0.173,2.343,0.479,3.468,0.772c0.543,0.143,1.084,0.284,1.629,0.412
			c0.188,0.044,0.381,0.071,0.635,0.108l0.02-0.19c0.049-0.453,0.096-0.872,0.125-1.291c0.228-3.192,2.3-5.336,5.158-5.336
			c0.936,0,1.893,0.236,2.843,0.7c0.632,0.308,1.178,0.751,1.706,1.18l0.33,0.267c0.363,0.289,0.705,0.606,1.068,0.945l0.234,0.216
			l0.281-0.151c0.424-0.226,0.82-0.437,1.206-0.664c1.46-0.855,3.083-1.3,4.825-1.321l0.127-0.001c3.17,0,5.438,1.528,6.559,4.42
			c0.405,1.044,0.669,2.232,0.765,3.434l0.013,0.169c0.15,1.903,0.15,1.903,2.166,2.56c0.539,0.176,1.168,0.399,1.749,0.722
			c1.794,0.998,2.907,2.612,3.054,4.426c0.146,1.808-0.687,3.569-2.285,4.834c-0.387,0.304-0.793,0.583-1.264,0.907l-0.247,0.171
			l0.063,0.06c0.295,0.286,0.555,0.539,0.834,0.768c2.096,1.719,3.771,3.72,4.98,5.949c1.093,2.016,1.59,4.176,1.477,6.426
			c-0.201,3.994-3.113,6.895-6.922,6.895c-0.541,0-1.096-0.061-1.645-0.18c-4.865-1.063-8.926-3.957-12.073-8.602
			c-0.587-0.865-1.05-1.814-1.497-2.732c-0.168-0.344-0.335-0.688-0.51-1.025c-0.292-0.571-0.479-0.919-0.602-0.919
			c-0.176,0-0.549,0.155-0.979,0.349c0.546,4.689-1.444,7.666-5.919,8.855l0.001,0.881c0,1.045,0.001,2.078-0.003,3.111
			C545.921,223.625,545.179,224.498,544.035,224.498z M539.56,215.511c0.421,0,0.856,0.096,1.296,0.287
			c0.832,0.357,1.627,0.795,2.36,1.297c0.788,0.539,1.257,1.232,1.357,2.006c0.104,0.811-0.198,1.654-0.878,2.441l-0.185,0.203
			c-0.15,0.16-0.291,0.311-0.359,0.457c-0.13,0.277-0.112,0.588,0.046,0.85c0.167,0.273,0.459,0.445,0.784,0.459l0.053,0.494v-0.492
			c0.784,0,0.903-0.779,0.905-1.242c0.004-1.031,0.004-2.063,0.004-3.107l-0.002-1.656l0.38-0.088
			c4.34-1.025,6.14-3.715,5.502-8.221l-0.052-0.365l0.334-0.152c0.846-0.387,1.307-0.588,1.721-0.588c0.734,0,1.03,0.578,1.48,1.454
			c0.176,0.345,0.346,0.694,0.517,1.044c0.433,0.887,0.88,1.805,1.428,2.611c3.042,4.49,6.792,7.17,11.466,8.191
			c0.482,0.104,0.965,0.158,1.436,0.158c3.266,0,5.764-2.508,5.938-5.961c0.105-2.094-0.34-4.025-1.358-5.904
			c-1.148-2.117-2.743-4.02-4.738-5.656c-0.3-0.246-0.579-0.517-0.896-0.822l-0.934-0.885l1.246-0.869
			c0.45-0.309,0.839-0.575,1.209-0.867c1.335-1.057,2.033-2.508,1.914-3.98c-0.12-1.479-1.049-2.808-2.551-3.644
			c-0.508-0.282-1.081-0.485-1.574-0.646c-2.52-0.82-2.652-0.98-2.844-3.421l-0.012-0.168c-0.09-1.107-0.332-2.199-0.701-3.156
			c-0.977-2.516-2.874-3.792-5.641-3.792c-1.706,0.021-3.125,0.409-4.453,1.188c-0.398,0.233-0.805,0.45-1.241,0.683l-0.895,0.481
			l-0.759-0.697c-0.342-0.32-0.663-0.621-1.007-0.894l-0.339-0.272c-0.508-0.412-0.988-0.801-1.518-1.06
			c-0.814-0.397-1.625-0.6-2.41-0.6c-2.31,0-3.986,1.776-4.174,4.42c-0.031,0.432-0.078,0.863-0.129,1.329l-0.129,1.215l-1.01-0.156
			c-0.289-0.042-0.508-0.074-0.723-0.125c-0.552-0.129-1.102-0.273-1.65-0.417c-1.102-0.288-2.24-0.585-3.364-0.752
			c-3.704-0.546-6.661,0.128-9.096,2.072c-2.671,2.133-3.164,5.458-1.228,8.274c0.652,0.948,1.42,1.751,2.217,2.323
			c3.672,2.628,7.363,3.906,11.287,3.906l0.156-0.001c1.246-0.011,2.521-0.116,3.754-0.218l0.6-0.05
			c0.957-0.091,1.587,0.319,1.891,1.179c0.33,0.938-0.006,1.664-0.945,2.043c-0.289,0.117-0.567,0.266-0.839,0.42
			c-2.489,1.41-3.584,3.939-2.93,6.768c0.071,0.309,0.12,0.621,0.177,0.984l0.145,0.896l-1.452,0.863
			c-0.896,0.533-1.743,1.037-2.602,1.518c-0.29,0.162-0.742,0.512-0.518,1.035c0.151,0.35,0.581,0.746,0.899,0.83
			c0.527,0.143,0.842-0.541,0.921-0.74c0.017-0.041,0.026-0.119,0.034-0.195c0.014-0.121,0.031-0.238,0.064-0.352
			C537.356,216.324,538.333,215.511,539.56,215.511z M569.004,221.201c-0.586,0-1.188-0.078-1.787-0.232
			c-4.016-1.021-7.442-3.451-10.188-7.217c-2.129-2.92-3.547-6.379-4.595-11.211c-0.055-0.252-0.046-0.498-0.034-0.809
			c0.006-0.164,0.014-0.357,0.014-0.595v-0.69l1.437,0.485c0.466,0.153,0.84,0.277,1.204,0.428c3.205,1.325,6.184,1.76,9.123,1.34
			c1.402-0.204,2.6,0.108,3.736,0.952c3.941,2.932,6.188,6.326,6.865,10.381c0.328,1.961-0.125,3.793-1.277,5.154
			C572.403,220.484,570.806,221.201,569.004,221.201z M553.384,201.816c-0.009,0.234-0.013,0.393,0.014,0.514
			c1.019,4.693,2.384,8.037,4.429,10.84c2.605,3.578,5.848,5.881,9.633,6.844c2.082,0.533,4.078-0.031,5.291-1.463
			c0.961-1.137,1.338-2.684,1.058-4.355c-0.635-3.789-2.755-6.98-6.481-9.752c-0.922-0.686-1.881-0.931-3.008-0.768
			c-3.119,0.445-6.269-0.01-9.642-1.404c-0.343-0.143-0.696-0.258-1.134-0.402L553.384,201.816z M544.97,216.849L544.97,216.849
			c-1.573-0.018-2.979-0.605-4.024-1.656c-1.047-1.057-1.615-2.455-1.598-3.939c0.035-2.985,2.667-5.611,5.633-5.619h0.018
			c1.445,0,2.891,0.633,3.968,1.734c1.092,1.115,1.698,2.605,1.665,4.082C550.56,214.529,548.125,216.849,544.97,216.849z
			 M544.999,206.126l-0.015,0.494c-2.448,0.006-4.621,2.176-4.649,4.643c-0.015,1.221,0.451,2.369,1.311,3.234
			c0.863,0.867,2.023,1.354,3.268,1.367l0,0c2.665,0,4.675-1.908,4.732-4.438c0.028-1.213-0.477-2.441-1.383-3.37
			c-0.893-0.913-2.082-1.437-3.264-1.437V206.126z M550.741,207.857C550.74,207.857,550.74,207.857,550.741,207.857
			c-0.375,0-0.66-0.084-0.876-0.258c-1.468-1.188-2.749-1.898-4.151-2.306c-1.481-0.431-1.373-2.206-1.338-2.79l0.02-0.341
			l6.97-2.136l0.521,1.942c0.383,1.416,0.743,2.749,1.051,4.093c0.109,0.473-0.231,1.399-0.785,1.551
			C551.678,207.74,551.18,207.857,550.741,207.857z M550.485,206.833c0,0,0.058,0.038,0.255,0.038h0.001
			c0.369,0,0.879-0.137,1.152-0.209c-0.021-0.025,0.087-0.293,0.08-0.395c-0.303-1.316-0.66-2.637-1.04-4.041l-0.257-0.957
			l-5.33,1.633c-0.009,1.098,0.314,1.35,0.642,1.444C547.522,204.792,548.91,205.559,550.485,206.833L550.485,206.833z
			 M562.15,202.656L562.15,202.656c-1.149,0-2.341-0.157-3.542-0.467c-2.777-0.718-4.572-1.547-5.815-2.688l-0.31-0.285l0.231-0.35
			c0.067-0.104,0.129-0.215,0.191-0.328c0.163-0.294,0.348-0.627,0.646-0.873c0.365-0.302,0.729-0.605,1.092-0.911
			c1.303-1.095,2.65-2.228,4.098-3.184c1.4-0.925,3.047-1.375,5.034-1.375c0.835,0,1.735,0.075,2.836,0.236
			c0.644,0.094,1.259,0.37,1.829,0.652c1.734,0.861,2.774,2.205,2.854,3.691c0.077,1.448-0.776,2.854-2.347,3.855
			C566.84,201.974,564.553,202.656,562.15,202.656z M553.758,199.033c1.111,0.897,2.707,1.585,5.096,2.201
			c1.12,0.289,2.229,0.436,3.296,0.436l0,0c2.213,0,4.321-0.629,6.269-1.871c1.279-0.816,1.951-1.871,1.891-2.971
			c-0.06-1.119-0.9-2.164-2.307-2.86c-0.498-0.248-1.027-0.485-1.534-0.56c-1.052-0.155-1.908-0.226-2.693-0.226
			c-1.788,0-3.257,0.396-4.491,1.211c-1.4,0.925-2.726,2.039-4.008,3.117c-0.365,0.307-0.729,0.613-1.096,0.916
			c-0.154,0.127-0.279,0.353-0.412,0.592C553.764,199.023,553.762,199.027,553.758,199.033z M538.466,202.448L538.466,202.448
			c-3.787,0-7.232-0.959-10.536-2.932c-1.128-0.675-2.217-1.601-3.147-2.679c-1.235-1.43-1.757-3.151-1.469-4.845
			c0.288-1.699,1.354-3.156,2.999-4.102c1.032-0.592,2.311-1.049,3.696-1.321c3.497-0.687,7.017-0.119,10.392,1.668
			c0.666,0.353,1.482,1.087,1.804,1.932c1.249,3.289,3.721,5.524,5.974,7.276c0.481,0.375,0.954,0.762,1.41,1.166
			c0.207,0.184,0.22,0.437,0.228,0.588l0.028,0.162l-0.07,0.215c-0.084,0.225-0.174,0.473-0.443,0.576
			C545.336,201.698,541.783,202.448,538.466,202.448z M532.907,187.271c-0.896,0-1.807,0.09-2.707,0.266
			c-1.282,0.252-2.455,0.67-3.396,1.209c-1.386,0.797-2.279,2.008-2.519,3.412c-0.237,1.399,0.203,2.833,1.242,4.035
			c0.865,0.999,1.869,1.856,2.909,2.478c3.146,1.879,6.425,2.793,10.028,2.793h0.001c3.151,0,6.542-0.71,10.36-2.17
			c0.002-0.006,0.004-0.012,0.006-0.016c-0.001-0.006-0.001-0.012-0.001-0.018c-0.407-0.357-0.829-0.701-1.258-1.034
			c-2.362-1.837-4.955-4.188-6.292-7.704c-0.195-0.516-0.748-1.097-1.344-1.413C537.637,187.89,535.272,187.271,532.907,187.271z
			 M551.321,198.681l-0.334-0.119c-5.187-1.84-9.43-7.862-9.266-13.151c0.083-2.68,1.628-4.48,3.846-4.48
			c0.924,0,1.915,0.324,2.869,0.938c2.459,1.583,4.016,4.027,4.5,7.071c0.448,2.805,0.156,5.74-0.865,8.721
			c-0.09,0.26-0.266,0.448-0.406,0.6c-0.045,0.048-0.088,0.094-0.125,0.141L551.321,198.681z M545.567,181.916
			c-1.671,0-2.793,1.384-2.859,3.525c-0.148,4.793,3.623,10.244,8.3,12.076c0.06-0.066,0.116-0.133,0.131-0.178
			c0.97-2.826,1.247-5.601,0.824-8.244c-0.44-2.759-1.844-4.972-4.06-6.397C547.108,182.187,546.301,181.916,545.567,181.916z
			 M554.078,196.344l-1.02-0.501l0.475-3.249l0.491,0.257c-0.757-0.827-0.695-1.927-0.238-3.831l0.098-0.407
			c-0.829-0.746-1.201-1.752-1.564-2.734c-0.201-0.54-0.051-1.216,0.279-1.517c0.263-0.239,0.644-0.273,0.847-0.273
			c0.063,0,0.138,0.003,0.221,0.014l0.435-0.392c1.994-1.794,4.527-2.219,6.648-1.135c2.204,1.128,3.212,3.075,3.17,6.125
			l-0.009,0.678l-0.642-0.217c-0.293-0.099-0.58-0.204-0.865-0.315c0.14,0.082,0.278,0.164,0.417,0.246
			c0.406,0.242,0.658,0.656,0.881,1.022c0.087,0.142,0.173,0.285,0.268,0.413l0.353,0.475l-0.529,0.261
			c-0.133,0.065-0.264,0.135-0.395,0.204c-0.32,0.17-0.65,0.346-1.014,0.471c-0.338,0.114-0.686,0.167-1.055,0.222
			c-0.168,0.026-0.346,0.052-0.537,0.088l-0.154,0.028l-0.502-0.226c-0.159-0.07-0.328-0.144-0.501-0.224l-0.181,0.253
			c-0.959,1.351-1.872,1.979-2.873,1.979l0,0c-0.09,0-0.182-0.005-0.273-0.016l0.512,0.269L554.078,196.344z M554.307,194.112
			l-0.137,0.936l0.799-0.591L554.307,194.112z M554.6,189.886c-0.432,2.05-0.098,2.407,1.326,3.037
			c0.838,0.372,1.537,0.071,2.389-0.973L554.6,189.886z M553.445,185.076c-0.108,0-0.184,0.021-0.203,0.032
			c-0.021,0.039-0.06,0.253-0.036,0.332c0.496,1.339,0.893,2.411,2.152,2.957c0.996,0.432,1.941,0.986,2.857,1.521
			c0.464,0.271,0.928,0.542,1.399,0.798c0.306,0.167,0.629,0.307,0.915,0.432l0.235,0.105c0.146-0.025,0.284-0.046,0.417-0.065
			c0.338-0.051,0.629-0.095,0.883-0.182c0.266-0.09,0.525-0.224,0.798-0.37c-0.001-0.002-0.003-0.005-0.005-0.008
			c-0.178-0.293-0.346-0.571-0.541-0.686c-1.807-1.07-3.676-2.109-5.484-3.114l-2.002-1.12c-0.404-0.231-0.785-0.45-1.184-0.603
			C553.612,185.091,553.539,185.076,553.445,185.076z M555.298,184.007c0.414,0.238,0.825,0.479,1.233,0.718
			c2.121,1.24,4.135,2.417,6.391,3.266c-0.108-2.258-0.934-3.672-2.623-4.537C558.723,182.65,556.874,182.858,555.298,184.007z"/>
	</g>
	<path fill-rule="evenodd" clip-rule="evenodd" fill="#FFFFFF" d="M255.097,120.649c-2.149,0.092-4.392-0.656-6.439-2.025
		c-5.348-3.574-6.166-10.807-1.763-15.49c4.167-4.432,11.553-5.1,16.441-1.489c4.912,3.629,5.613,10.406,1.519,14.951
		C262.346,119.381,259.183,120.706,255.097,120.649z"/>
	<path fill-rule="evenodd" clip-rule="evenodd" fill="#FFFFFF" d="M531.166,25.76c2.716-4.472,5.267-8.674,7.903-13.015
		c7.4,4.496,13.903,9.734,19.821,15.987c-3.71,3.517-7.327,6.943-11.081,10.5C542.828,33.958,537.303,29.592,531.166,25.76z"/>
	<path fill-rule="evenodd" clip-rule="evenodd" fill="#FFFFFF" d="M579.289,147.107c-1.829,8.1-4.046,15.807-7.015,23.534
		c-4.801-1.82-9.439-3.579-13.997-5.307c2.15-7.241,4.246-14.29,6.394-21.516C569.438,144.891,574.225,145.967,579.289,147.107z"/>
	<path fill-rule="evenodd" clip-rule="evenodd" fill="#FFFFFF" d="M560.213,56.596c4.611-2.377,8.973-4.625,13.517-6.969
		c4.032,7.674,6.675,15.619,8.298,24.199c-5,0.961-9.872,1.897-14.928,2.869C565.686,69.679,563.504,63.077,560.213,56.596z"/>
	<path fill-rule="evenodd" clip-rule="evenodd" fill="#FFFFFF" d="M429.97,39.482c-5.915,4.417-11.39,9.05-16.325,14.636
		c-3.83-3.437-7.523-6.752-11.338-10.175c5.558-6.356,11.777-11.715,18.611-16.724C423.958,31.336,426.905,35.33,429.97,39.482z"/>
	<path fill-rule="evenodd" clip-rule="evenodd" fill="#FFFFFF" d="M260.356,45.76c1.515,4.914,2.964,9.611,4.419,14.332
		c-3.207,1.408-6.384,2.597-9.362,4.165c-2.935,1.546-5.668,3.475-8.719,5.378c-3.066-3.659-6.259-7.47-9.606-11.466
		C243.991,52.389,251.682,48.478,260.356,45.76z"/>
	<path fill-rule="evenodd" clip-rule="evenodd" fill="#FFFFFF" d="M333.575,57.969c6.615,3.75,12.986,7.361,19.544,11.078
		c-1.897,4.433-3.851,8.998-5.868,13.712c-7.617-3.267-14.413-7.58-21.488-11.891C328.407,66.502,330.981,62.25,333.575,57.969z"/>
	<path fill-rule="evenodd" clip-rule="evenodd" fill="#FFFFFF" d="M448.772,27.253c-2.267-4.316-4.551-8.666-6.926-13.187
		c7.393-3.938,14.912-7.086,22.99-9.566c1.477,4.835,2.928,9.583,4.352,14.237C462.369,21.581,455.7,24.363,448.772,27.253z"/>
	<path fill-rule="evenodd" clip-rule="evenodd" fill="#FFFFFF" d="M285.963,57.029c0-5.154,0-10.053,0-15.163
		c8.773-0.344,17.165,1.311,25.575,4.524c-1.813,4.744-3.583,9.372-5.434,14.213C299.661,58.192,293.119,56.903,285.963,57.029z"/>
	<path fill-rule="evenodd" clip-rule="evenodd" fill="#FFFFFF" d="M398.58,72.212c-4.662,6.617-16.954,13.784-23.941,13.94
		c-0.936-4.773-1.88-9.584-2.806-14.301c2.926-1.262,5.878-2.194,8.459-3.744c2.598-1.558,4.824-3.73,7.357-5.749
		C391.202,65.563,394.901,68.896,398.58,72.212z"/>
	<path fill-rule="evenodd" clip-rule="evenodd" fill="#FFFFFF" d="M515.424,2.681c-1.276,4.906-2.513,9.655-3.82,14.676
		c-6.882-1.616-13.777-2.436-21.01-2.062c-0.248-5.119-0.484-10.014-0.732-15.15C498.583-0.362,506.975,0.451,515.424,2.681z"/>
	<path fill-rule="evenodd" clip-rule="evenodd" fill="#FFFFFF" d="M583.245,122.964c-5.193-0.549-10.084-1.066-14.938-1.578
		c0.372-7.57,0.735-14.946,1.108-22.533c4.883,0,9.79,0,14.94,0C584.608,106.81,584.101,114.759,583.245,122.964z"/>
	<path fill-rule="evenodd" clip-rule="evenodd" fill="#FFFFFF" d="M230.927,95.336c-4.816-1.382-9.587-2.752-14.506-4.164
		c1.17-4.165,2.564-8.006,4.484-11.859c4.585,2.189,9.02,4.305,13.587,6.486C233.305,88.976,232.15,92.063,230.927,95.336z"/>
	<path fill-rule="evenodd" clip-rule="evenodd" fill="#FFFFFF" d="M56.286,309.437c-0.355-0.053-0.759-0.076-1.142-0.18
		c-2.834-0.768-5.684-1.486-8.487-2.352c-2.107-0.65-3.556-2.08-4.129-4.27c-0.743-2.842-1.518-5.676-2.171-8.537
		c-0.447-1.963,0.212-3.748,1.562-5.154c2.034-2.119,4.153-4.164,6.326-6.143c1.582-1.439,3.498-1.865,5.599-1.277
		c2.506,0.703,5.013,1.402,7.521,2.096c2.542,0.703,4.146,2.291,4.766,4.885c0.604,2.531,1.237,5.055,1.911,7.568
		c0.595,2.223-0.027,4.139-1.537,5.719c-1.984,2.074-4.101,4.021-6.167,6.018C59.221,308.888,57.818,309.261,56.286,309.437z
		 M56.17,304.974c0.494-0.277,1.197-0.521,1.697-0.986c1.707-1.584,3.335-3.256,5.009-4.879c0.798-0.775,0.996-1.627,0.679-2.719
		c-0.631-2.172-1.197-4.363-1.708-6.564c-0.261-1.125-0.939-1.709-1.979-1.998c-2.243-0.623-4.493-1.227-6.727-1.877
		c-0.934-0.273-1.698-0.082-2.377,0.584c-1.757,1.729-3.52,3.451-5.273,5.18c-0.612,0.605-0.855,1.297-0.619,2.176
		c0.636,2.377,1.178,4.781,1.867,7.141c0.167,0.57,0.66,1.305,1.167,1.475C50.55,303.392,53.25,304.121,56.17,304.974z"/>
	<path fill-rule="evenodd" clip-rule="evenodd" fill="#FFFFFF" d="M102.277,265.527c0.341,0.049,1.018,0.078,1.656,0.248
		c2.38,0.643,4.747,1.328,7.118,2.002c2.461,0.697,3.997,2.271,4.604,4.777c0.566,2.33,1.214,4.641,1.79,6.969
		c0.656,2.656,0.197,4.988-1.925,6.918c-1.774,1.617-3.456,3.334-5.147,5.039c-1.818,1.832-3.978,2.35-6.424,1.705
		c-2.447-0.648-4.873-1.373-7.314-2.041c-2.552-0.701-4.117-2.324-4.741-4.896c-0.567-2.33-1.175-4.652-1.775-6.975
		c-0.675-2.605-0.149-4.867,1.838-6.758c1.836-1.746,3.625-3.543,5.465-5.285C98.851,265.876,99.973,265.486,102.277,265.527z
		 M113.262,281.763c-0.061-0.484-0.064-0.688-0.114-0.881c-0.603-2.387-1.21-4.773-1.819-7.16c-0.26-1.018-0.977-1.535-1.946-1.799
		c-2.184-0.596-4.375-1.168-6.543-1.818c-1.093-0.326-1.941-0.066-2.72,0.713c-1.605,1.602-3.205,3.209-4.854,4.764
		c-0.893,0.842-1.044,1.805-0.757,2.914c0.551,2.127,1.111,4.252,1.653,6.381c0.291,1.143,0.966,1.801,2.14,2.098
		c2.131,0.539,4.231,1.191,6.344,1.793c1.12,0.318,2.067,0.104,2.913-0.764c1.583-1.621,3.248-3.164,4.823-4.795
		C112.815,282.761,113.05,282.121,113.262,281.763z"/>
	<path fill-rule="evenodd" clip-rule="evenodd" fill="#FFFFFF" d="M105.744,332.005c0.032,1.625-0.51,3.025-1.649,4.168
		c-1.979,1.982-3.977,3.947-5.984,5.9c-1.829,1.781-4.082,1.885-6.363,1.346c-2.525-0.598-5.011-1.371-7.499-2.121
		c-2.22-0.67-3.628-2.188-4.223-4.418c-0.704-2.639-1.402-5.281-2.014-7.941c-0.498-2.16,0.015-4.107,1.61-5.699
		c1.935-1.932,3.88-3.854,5.844-5.756c1.67-1.617,3.691-2.119,5.911-1.553c2.71,0.691,5.4,1.467,8.08,2.273
		c1.981,0.594,3.397,1.916,3.989,3.893c0.802,2.68,1.449,5.404,2.125,8.119C105.713,330.792,105.69,331.408,105.744,332.005z
		 M101.339,332.048c-0.066-0.396-0.079-0.531-0.112-0.66c-0.64-2.518-1.219-5.057-1.975-7.541c-0.18-0.59-0.875-1.246-1.476-1.447
		c-2.338-0.779-4.729-1.398-7.109-2.049c-0.817-0.225-1.58-0.092-2.222,0.535c-1.769,1.723-3.545,3.438-5.325,5.15
		c-0.692,0.664-0.901,1.453-0.66,2.373c0.605,2.322,1.235,4.637,1.805,6.967c0.255,1.039,0.912,1.592,1.878,1.859
		c2.248,0.625,4.506,1.217,6.744,1.875c0.938,0.277,1.691,0.109,2.38-0.563c1.719-1.678,3.474-3.322,5.16-5.033
		C100.868,333.068,101.111,332.427,101.339,332.048z"/>
</g>
</svg>
