<svg id="Layer_1" data-name="Layer 1" xmlns="http://www.w3.org/2000/svg" viewBox="0 0 841.89 558.33"><defs><style>.cls-1,.cls-2{fill:#ef9c23;}.cls-1{fill-rule:evenodd;}</style></defs><path class="cls-1" d="M625.65,179.43c.83-1.14,1.36-1.89,1.92-2.61,1.74-2.29,3.34-4.72,5.28-6.84,10.41-11.33,26.81-9.68,35.81.33,2.29,2.55,4,5.62,5.94,8.47.58.86,1,1.8,1.77,3.15,1.14-1.38,2-2.43,2.9-3.52A41.3,41.3,0,0,1,691,167.86a31.51,31.51,0,0,1,15.94-4.44A25.17,25.17,0,0,1,727,172.59a43.79,43.79,0,0,1,8.37,16.32,119,119,0,0,1,4.25,24.66c1,11.82.7,23.66.41,35.48-.18,7.39-1,14.76-1.56,22.14a14.65,14.65,0,0,1-.4,1.91l-22.86-2.27c0-1.84-.07-3.35,0-4.85.14-2.69.36-5.37.54-8.05a277.12,277.12,0,0,0,.56-33.73c-.52-9.61-1.32-19.19-4.11-28.46a42,42,0,0,0-3.24-7.67c-1.29-2.42-2.74-2.8-5-1.21a24.74,24.74,0,0,0-5.18,4.93c-3.93,5.08-6.34,11-8.34,17A155.13,155.13,0,0,0,684,238.34c-.16,1.31-.46,2.61-.74,4.23-1.88,0-3.58.08-5.28,0-5.28-.29-10.55-.64-15.83-1-2.31-.16-2.45-.29-2.49-2.54-.05-3.08.06-6.16-.06-9.24-.43-11.06-1.11-22.09-4-32.84a75.14,75.14,0,0,0-3-8.4,20.09,20.09,0,0,0-2.11-3.19,40.37,40.37,0,0,0-2.54,3.52,82,82,0,0,0-7,17.67,253.48,253.48,0,0,0-7.77,37.8c-1,8-2,16-2.9,24-.35,2.94-.67,3.28-3.54,3.29-5.87,0-11.74,0-17.61,0-2.8,0-3-.36-3.19-3.2-.54-9.11-1.13-18.23-1.68-27.34-.24-4.13-.4-8.26-.65-12.39-.53-8.73-1.1-17.46-1.65-26.19-.22-3.55-.41-7.1-.63-10.66q-.54-8.78-1.1-17.55c0-.39,0-.77,0-1.16-.05-2.69,0-2.8,2.62-3,6.15-.37,12.28-.78,18.43-1,3.27-.15,3.27-.05,3.4,3.33A20.3,20.3,0,0,0,625.65,179.43Z" transform="translate(0 -6.5)"/><path class="cls-1" d="M0,220.18c3.29-.42,6.42-.84,9.55-1.21,4-.47,8-1,12-1.33,2.66-.24,2.61-.08,3,2.56,1.17,8.66,2.42,17.32,3.67,26a36.34,36.34,0,0,0,.94,3.56c4.94-5.3,8.84-10.61,13-15.67S50.73,223.64,55,218.44s8.42-10.22,12.77-15.51l21.28,10.46c-.89,1.23-1.58,2.32-2.39,3.32l-43,52.82c-.76.94-1.42,2-2.38,3.31,24.18,14.24,48,28.41,71.9,43.34L100,335.08c-1-.58-2-1-2.82-1.56L44,301.54a10.92,10.92,0,0,0-3.23-1.3,164.36,164.36,0,0,0,4.89,19.85c1.84,6.46,3.87,12.86,5.94,19.67-7.28,2.87-14.62,5.52-21.88,8.13C21.4,334.56-.34,240.91,0,220.18Z" transform="translate(0 -6.5)"/><path class="cls-1" d="M623,511.22c-.81,7.09-1.9,13.76-3,20.53-5-.58-9.53-1.15-14.1-1.65-4.87-.54-9.74-1.12-14.62-1.5a489.33,489.33,0,0,0-53.34-1.1c-11.72.37-23.42,1.22-35.11,2.13-10,.79-20.11,1.69-30.1,3-14.46,2-28.88,4.27-43.28,6.68-21.8,3.65-43.38,8.41-64.77,14-13,3.41-25.9,7.24-38.85,10.88-.82.23-1.65.4-2.42.59-1.37-1.82-6.44-16.57-6.8-19.83,3.39-1.09,6.83-2.25,10.3-3.29a849.79,849.79,0,0,1,83.94-20.61c15.47-3,31-5.41,46.61-7.79,10.34-1.58,20.74-2.8,31.15-3.89,8.31-.87,16.67-1.3,25-1.94,19.69-1.51,39.41-1.45,59.13-1,7.87.18,15.74.84,23.58,1.52,7.66.66,15.29,1.6,22.92,2.46C620.3,510.59,621.41,510.9,623,511.22Z" transform="translate(0 -6.5)"/><path class="cls-1" d="M453.57,208.12a35.08,35.08,0,0,0-2.48-3.78,17,17,0,0,0-15.76-6,58.91,58.91,0,0,0-20,6.14c-.68.34-1.39.62-2.44,1.09l-13.81-18a19.68,19.68,0,0,1,2.13-1.6,82.67,82.67,0,0,1,31.06-10.07,47.13,47.13,0,0,1,19.39,1.61c11.54,3.52,19.49,11.29,25,21.76,3.87,7.39,6.08,15.34,7.62,23.5,2.67,14.08,2.73,28.31,2.36,42.55-.2,7.49-.8,15-1.25,22.46-.11,1.95-.46,2.29-2.54,2.2-3.84-.17-7.68-.47-11.51-.73-2.11-.14-4.22-.35-6.33-.46-3.2-.17-3.46-.41-3.42-3.53,0-1.25,0-2.51,0-3.76a6.81,6.81,0,0,0-.34-1.15c-1.17.2-2.37.32-3.52.61a64.54,64.54,0,0,1-20.28,2.08c-20.72-1.33-32.32-15.72-34.83-30.6-2-11.79,1.65-21.86,9.74-30.39,7.32-7.72,16.51-11.82,27-13.06,3.71-.45,7.47-.43,11.21-.64C451.27,208.33,452,208.25,453.57,208.12Zm-4.51,22.69c-2.95.31-5.65.43-8.28.92-5.91,1.1-10.51,4.17-13.21,9.67-3.27,6.67.18,18.4,12,19,7.48.36,14.44-1.77,21.31-4.35,1.57-.58,1.91-1.7,1.82-3.18q-.6-9.06-1.16-18.12a2.5,2.5,0,0,0-2.42-2.69C455.68,231.65,452.26,231.2,449.06,230.81Z" transform="translate(0 -6.5)"/><path class="cls-1" d="M529.59,244.55a14.48,14.48,0,0,0,5.95,5.46,28.15,28.15,0,0,0,17.57,3.16A45.69,45.69,0,0,0,574.72,245a3.72,3.72,0,0,1,.76-.41,6.51,6.51,0,0,1,1-.17l16.72,14.92c-1,.94-1.66,1.63-2.39,2.2A66.85,66.85,0,0,1,558.69,275c-7.88,1.12-15.75,1.16-23.47-.9-17.52-4.67-28.79-16-34.31-33.1a62.88,62.88,0,0,1-2.49-26.49c1-9,2.87-17.66,7.09-25.68,7.71-14.68,19.47-24.35,36-26.89,20.72-3.17,35.36,8.52,38.63,26.31,2.37,12.91-1.45,23.92-10.37,33.32-7.14,7.52-15.91,12.68-25.26,16.89-4,1.81-8.2,3.3-12.31,5C531.46,243.71,530.7,244.07,529.59,244.55Zm-7.05-21.65c10.25-3.55,19.82-7.48,27.64-14.67a25.52,25.52,0,0,0,4-4.86c3-4.53,3-9.39,1.1-14.33a7.71,7.71,0,0,0-7.83-5.27,17.62,17.62,0,0,0-6.38,1.43c-7,3-11.57,8.42-14.64,15.21-2.9,6.4-3.93,13.23-4.41,20.16A10.86,10.86,0,0,0,522.54,222.9Z" transform="translate(0 -6.5)"/><path class="cls-1" d="M105.32,191.8,129,187.51c1.44,2.67,1.33,5.42,1.71,8,1.77,12,3.42,24,5.11,35.94.23,1.61.45,3.23.73,4.84a13.43,13.43,0,0,0,.74,2c3.72-3.25,6.86-6.57,10.16-9.72s6.65-6.41,10-9.61,6.65-6.38,9.93-9.53c2.24.88,16.36,11.44,18.59,13.9l-38.38,38.22c1.09.95,1.83,1.65,2.63,2.27q23.92,18.6,47.85,37.19c.9.69,1.73,1.47,2.54,2.16-.9,2.05-11.77,14.66-14.89,17.31l-39.59-30.38a8.73,8.73,0,0,0-.56,2.26c.78,7.83,1.56,15.67,2.44,23.5.62,5.39.57,5.61-4.75,6.32-5.88.8-11.79,1.48-18.1,2.27-3.58-22.06-6.67-44.08-10-66S108.63,214.36,105.32,191.8Z" transform="translate(0 -6.5)"/><path class="cls-1" d="M261,200.41l21.17-9c.59,1.06,1.18,1.9,1.57,2.82a172.39,172.39,0,0,1,12,40.54c1.94,12.36,2.29,24.74-1.51,36.85-5.66,18-17.72,29.34-36.43,32.54-12.1,2.07-23-1.56-32.41-9.6-8.24-7.08-13.58-16.12-17.48-26.11a141.66,141.66,0,0,1-8.1-33A185.92,185.92,0,0,1,198.13,209c0-.68,0-1.35,0-2,0-1.41.57-2.12,2.06-2.1,3.66.07,7.32,0,11,.1,2.6.06,5.19.25,7.78.39,2.32.13,2.51.29,2.6,2.47.17,4.32.21,8.65.48,13,1,15.43,3.3,30.58,9.86,44.78A38,38,0,0,0,240.68,278c6.57,6,14.52,6.61,21.92,1.64,5.42-3.64,8.37-8.91,10-15.05a54.88,54.88,0,0,0,1-19.78c-1.6-14.75-5.93-28.76-11.84-42.31C261.5,202,261.36,201.45,261,200.41Z" transform="translate(0 -6.5)"/><path class="cls-1" d="M261.06,535l-6.46-20.92c1.11-.34,2.08-.66,3.06-1q38-11,76.71-18.91,31.65-6.47,63.48-12c15.35-2.63,30.8-4.7,46.26-6.62,15.65-1.94,31.34-3.63,47.05-5,23.11-2,46.27-3.3,69.48-3.22,16,.06,32,.18,47.9.88,13.26.58,26.47,2.05,39.7,3.14,2.39.2,4.78.49,7.17.78,1.12.13,2.23.37,3.66.61-.92,7.24-1.82,14.25-2.74,21.52-1.86-.16-3.55-.27-5.23-.47-34.94-4.32-70-5.3-105.18-4.31-17.31.48-34.61,1.57-51.87,2.85-20.24,1.5-40.4,3.87-60.51,6.63a1266.57,1266.57,0,0,0-162.4,33.08C267.9,533,264.67,534,261.06,535Z" transform="translate(0 -6.5)"/><path class="cls-1" d="M252.64,399.76l66.48,47.86L305.06,466.5l-53.91-38.81-.62.39c2.46,13.22,5.32,26.35,8.93,39.73l-22.17,7c-7.85-17.13-24.61-115.23-22.22-130.28l23.74-1.36c.94,10.84,1.39,21.46,3.09,32.55,13.06-15,25.75-29.49,38.63-44.22l20.65,12.42C284.86,362.69,268.81,381.17,252.64,399.76Z" transform="translate(0 -6.5)"/><path class="cls-1" d="M654,445.2l-23.1-3.05c.23-2.73.44-5.27.68-8.22-1.69.3-3.16.54-4.62.82-7.64,1.46-15.27,1.78-22.89-.11-18.08-4.47-25.26-19-27.15-30.1-3.54-20.81,11.44-38.42,29.92-42.66a60.26,60.26,0,0,1,16.35-1.23c1.12.05,2.25,0,3.9,0-2.61-4.87-5.89-8.21-11.06-9.36-4.74-1.05-9.43-.3-14,.95-4.34,1.19-8.54,2.91-13.27,4.55l-12.65-19.21a22,22,0,0,1,1.88-1.35,71.38,71.38,0,0,1,33.69-8.93c16-.08,28.08,7,36.07,20.86,4.43,7.69,6.72,16.12,8.13,24.81,2.22,13.76,2.3,27.61,1.29,41.46-.65,9-1.65,18-2.52,27C654.58,442.57,654.29,443.68,654,445.2ZM633.5,386.43c-5.31-2.18-14.91-2.86-20.5-1.72a16.26,16.26,0,0,0-9.27,5.47c-3.7,4.29-4.19,9.16-2.14,14.31,1.94,4.91,5.78,7.25,10.91,7.67a37.52,37.52,0,0,0,12-1,41.8,41.8,0,0,0,9-2.84Z" transform="translate(0 -6.5)"/><path class="cls-1" d="M555.32,407.34l17,15.66c-.91.87-1.67,1.69-2.51,2.4a62.61,62.61,0,0,1-30.05,13.78c-9.88,1.73-19.59,1.26-28.91-2.6-14.09-5.84-22.82-16.62-27.43-30.88-3.92-12.09-3.87-24.41-1.53-36.78a61.41,61.41,0,0,1,7.29-20.25c7-11.68,16.73-19.73,30.15-22.89a33.71,33.71,0,0,1,18,.52c11.16,3.5,17.91,11.33,20.89,22.37,4.17,15.47-.27,28.63-11.5,39.72a72.19,72.19,0,0,1-18.88,13.13c-4.3,2.13-8.75,4-13.14,5.91-1,.42-1.94.81-3.06,1.28a13.53,13.53,0,0,0,4.8,4.58c5.48,3.51,11.54,4,17.79,3.2A40.29,40.29,0,0,0,554,408.25C554.32,408,554.74,407.72,555.32,407.34ZM504,386.05a5.9,5.9,0,0,0,1.35,0c7.69-2.87,15.15-6.23,21.52-11.48a36.19,36.19,0,0,0,6.42-6.95c3.12-4.41,3.19-9.37,1.35-14.33-1.49-4-5-5.88-9.19-5-5.38,1.06-9.45,4.18-12.76,8.35C505.85,365.17,504.51,375.38,504,386.05Z" transform="translate(0 -6.5)"/><path class="cls-1" d="M687.07,343.07,710,345.85c-.52,4.66-1,9.1-1.6,14.22,1.08-.88,1.71-1.34,2.28-1.87,4.93-4.47,10.45-7.86,17-9.24,12.92-2.73,24.7,1.7,31.6,13.92a52.36,52.36,0,0,1,5.78,18.33c1.76,11.88,1.28,23.77.17,35.68a325,325,0,0,1-6.52,40.68c-.27,1.2-.58,2.39-1,3.92l-22.13-5.4c.14-1,.19-1.85.38-2.66a285.18,285.18,0,0,0,7-50.2c.36-7.6.2-15.21-1.56-22.66a38.38,38.38,0,0,0-2.4-6.46,4.2,4.2,0,0,0-5.2-2.59,14.6,14.6,0,0,0-5.5,2.27,41.57,41.57,0,0,0-6.68,6.71c-4.21,5.31-7.14,11.39-9.78,17.6-5.74,13.5-9.59,27.57-12.71,41.87-.81,3.75-1.53,7.52-2.37,11.64L674,448.52Z" transform="translate(0 -6.5)"/><path class="cls-1" d="M401.43,396.15c-.11,15.65-2.15,26.34-7.08,36.37-4.72,9.58-11.55,17.2-22,20.53-16.19,5.18-30.81,1.94-43.33-9.65-9.06-8.38-14.2-19-16.89-30.92-2.92-12.91-2.49-25.65,2.63-38,6.12-14.72,16.78-24.34,32.75-27,21-3.49,38.81,6.18,47.93,25.45C399.63,381.76,401.48,391,401.43,396.15Zm-23.13,3.42c-.27-1.91-.56-5.48-1.35-8.92a33.18,33.18,0,0,0-7.48-15.08c-7.57-8.45-23.19-8.1-29.83,1.74a30.87,30.87,0,0,0-4.18,8.48c-3.81,13.16-1.48,25.49,5.85,36.94a22.41,22.41,0,0,0,7.22,6.95c9.8,6,20.14,3.1,25.2-7.18a37.77,37.77,0,0,0,1.65-4C377.34,412.91,378.05,407.1,378.3,399.57Z" transform="translate(0 -6.5)"/><path class="cls-1" d="M431,341.44c.57,3.85,1.09,7.32,1.67,11.22,2.37-2.33,4.33-4.53,6.58-6.38a49.54,49.54,0,0,1,7.58-5.22,41.7,41.7,0,0,1,8.24-3.4,48.56,48.56,0,0,1,9-1.71c2.94-.29,5.92-.06,9.26-.06-.4,7.58-1.42,14.85-2.08,22.38-1,.07-1.84.17-2.67.17-7.62,0-13.52,3.18-17.88,9.35-3.85,5.45-5.94,11.6-7.41,18-1.9,8.28-1.44,16.63-.89,25,.71,10.85,1.47,21.69,2.21,32.54,0,.38,0,.76,0,1.52-7.4,1.06-14.8,1.73-22.53,2.51-4.83-34.29-9.62-68.33-14.46-102.7Z" transform="translate(0 -6.5)"/><path class="cls-1" d="M349.55,307.53c2.45-.51,4.52-.91,6.57-1.37,9.92-2.21,14.3-9.85,14.73-18.56.27-5.72-.82-11.3-2-16.85-2.46-11.56-5.2-23.06-7.4-34.67-1.32-7-2.05-14.07-2.67-21.14-.52-5.83-.54-11.71-.68-17.58-.08-3.42,0-3.44,3.3-3.43q7.94,0,15.88.06c.39,0,.77,0,1.16,0,4.08.23,4.2.28,4.12,4.36-.37,16.94,2.41,33.5,6,50,1.95,8.91,3.86,17.85,5.3,26.85s2.08,18.15-1.59,26.75c-6.36,14.91-17.43,24.34-33.65,27.21a21.14,21.14,0,0,1-3.74.12c-2.92,0-3.15-.14-3.51-2.95-.66-5.34-1.24-10.69-1.83-16C349.47,309.44,349.55,308.58,349.55,307.53Z" transform="translate(0 -6.5)"/><path class="cls-1" d="M309.19,155.26H333a8.89,8.89,0,0,1,.37,1.66c-.08,12.79-.31,25.58-.21,38.37.06,8.35.5,16.72.93,25.07s1,16.5,1.64,24.74c.7,8.71,1.38,17.43,2.48,26.1.79,6.18,2.26,12.27,3.43,18.39.1.56.26,1.1.5,2.05l-21.68,8.67A30.41,30.41,0,0,1,319,296.2c-1.41-6.57-3-13.12-4-19.76-1.24-8.45-2.08-17-2.88-25.48-.59-6.31-.93-12.65-1.25-19-.61-11.8-1.32-23.61-1.63-35.43-.33-13.08-.26-26.17-.34-39.26A11.11,11.11,0,0,1,309.19,155.26Z" transform="translate(0 -6.5)"/><path class="cls-1" d="M73.06,396.39c1.61.27,3.25.4,4.81.82,6.3,1.7,12.59,3.46,18.87,5.23A15.32,15.32,0,0,1,108,413.75c1.8,6.58,3.45,13.2,5,19.83a15.23,15.23,0,0,1-4.37,15.3Q101.44,456,94.19,463c-4.32,4.17-9.51,5.29-15.2,3.84-6.6-1.68-13.17-3.52-19.71-5.45a15,15,0,0,1-10.76-10.7c-2-7-3.83-14.08-5.41-21.2a14.26,14.26,0,0,1,3.78-13.61c5.18-5.28,10.5-10.43,15.87-15.53A14.48,14.48,0,0,1,73.06,396.39Zm34.06,40.87c-.18-1-.3-2.08-.55-3.1-1.48-5.87-3-11.72-4.47-17.59-1-4.35-3.55-7.06-7.93-8.2-6-1.55-11.87-3.22-17.76-5a9.9,9.9,0,0,0-10.53,2.77q-6.75,6.7-13.59,13.34A9.37,9.37,0,0,0,49.57,429c1.56,6.44,3.28,12.84,4.93,19.26a9.14,9.14,0,0,0,6.68,6.91c6.45,1.87,12.92,3.72,19.41,5.46a9,9,0,0,0,9.09-2.26c5-4.81,9.91-9.68,14.81-14.56A8.84,8.84,0,0,0,107.12,437.26Z" transform="translate(0 -6.5)"/><path class="cls-1" d="M114.13,403.28a15.06,15.06,0,0,1,4.65-10.88c4.78-4.74,9.56-9.48,14.41-14.15a15.48,15.48,0,0,1,15.68-4.06c6.39,1.74,12.77,3.55,19.15,5.35a15.23,15.23,0,0,1,11.35,11.52c1.79,7,3.62,13.94,5.24,20.95a13.76,13.76,0,0,1-3.77,13c-5.19,5.41-10.58,10.65-16.09,15.73-4.22,3.89-9.39,4.56-14.83,3.1-6.13-1.64-12.21-3.42-18.33-5.09-6.53-1.79-10.58-5.89-12.18-12.51-1.49-6.16-3.18-12.27-4.7-18.43A40.58,40.58,0,0,1,114.13,403.28Zm30.23-23.38a9.45,9.45,0,0,0-6.08,2.46c-.94.82-1.8,1.73-2.7,2.61-3.85,3.76-7.72,7.52-11.57,11.29-2.47,2.4-4.12,5.26-3.31,8.76,1.6,6.93,3.43,13.81,5.26,20.68a9.19,9.19,0,0,0,6.88,6.73c6.29,1.76,12.61,3.45,18.88,5.28a9,9,0,0,0,9.33-2.25q7.51-7.15,14.82-14.57a8.69,8.69,0,0,0,2.28-8.78c-1.64-6.32-3.22-12.66-4.84-19a9.57,9.57,0,0,0-7.25-7.43c-6.22-1.66-12.41-3.45-18.61-5.16C146.44,380.25,145.39,380.11,144.36,379.9Z" transform="translate(0 -6.5)"/><path class="cls-1" d="M96.9,475.85A14.8,14.8,0,0,1,101.47,465q7.38-7.31,14.81-14.55c4.33-4.22,9.62-5.15,15.25-3.77,6.61,1.63,13.15,3.59,19.69,5.5a14.78,14.78,0,0,1,10.71,10.72c1.93,7,3.7,14.12,5.4,21.21a13.89,13.89,0,0,1-3.68,13.33c-5.18,5.41-10.55,10.65-16,15.76a14.22,14.22,0,0,1-13.7,3.4c-7-1.75-13.9-3.74-20.81-5.78-5.62-1.65-9.15-5.54-10.68-11.12-1.79-6.58-3.41-13.2-5-19.82A31.05,31.05,0,0,1,96.9,475.85Zm40.29,34.74a9.17,9.17,0,0,0,6.77-2.81l14-13.71a9.55,9.55,0,0,0,2.79-10q-2.46-9.19-4.72-18.43a9.74,9.74,0,0,0-7.43-7.61c-6-1.64-12.06-3.28-18-5.06a9.67,9.67,0,0,0-10.31,2.53q-6.78,6.69-13.63,13.3a9.92,9.92,0,0,0-2.84,10.51c1.59,5.74,3,11.52,4.42,17.31,1,4.46,3.58,7.28,8.06,8.46,6,1.58,12,3.32,18.07,5C135.29,510.32,136.25,510.42,137.19,510.59Z" transform="translate(0 -6.5)"/><path class="cls-1" d="M776.54,315.46c-.15-.88-.22-1.54-.37-2.19a9.21,9.21,0,0,1,4.56-10.53,11,11,0,0,1,1.29-.64,1.44,1.44,0,0,0,1-2.05,1.71,1.71,0,0,0-2-1.23c-2.1.17-4.21.37-6.32.39a28.11,28.11,0,0,1-16.9-5.76,14.46,14.46,0,0,1-3.37-3.52,9.17,9.17,0,0,1,1.91-12.88c4-3.21,8.73-3.86,13.65-3.13,2.46.37,4.86,1.13,7.29,1.7.44.1.91.15,1.7.27.11-1.07.23-2,.29-2.89.41-5.78,5.29-8.64,10.51-6.1a16,16,0,0,1,2.8,2c.74.58,1.41,1.26,2.21,2,1-.52,1.8-.95,2.61-1.43a13.06,13.06,0,0,1,6.6-1.8c4.31-.06,7.4,1.87,9,5.91a16.77,16.77,0,0,1,1.05,4.75c.28,3.43.19,3.43,3.63,4.55a13.58,13.58,0,0,1,2.4,1c5,2.77,5.45,8.65,1,12.16-.82.65-1.7,1.21-2.86,2,.77.73,1.34,1.32,2,1.84a28,28,0,0,1,7,8.35,16.55,16.55,0,0,1,2,8.89c-.31,6.16-5.44,10.33-11.48,9-7.34-1.6-12.82-6-17-12.09a49.6,49.6,0,0,1-2.85-5.34c-1.06-2.08-1.11-2.1-3.68-.93.92,6.48-1.48,11-8.46,12.63,0,2.13,0,4.22,0,6.3,0,1.61-.81,2.55-2.12,2.5a2.06,2.06,0,0,1-1.81-2.9,5.49,5.49,0,0,1,.89-1.11c1.66-1.92,1.48-4-.55-5.36a19.73,19.73,0,0,0-3.28-1.8,3.22,3.22,0,0,0-4.67,2.26c-.08.28-.06.59-.16.85-.39,1-1.14,1.76-2.17,1.49a3.09,3.09,0,0,1-1.77-1.6,1.84,1.84,0,0,1,1-2.39C772.89,317.65,774.6,316.6,776.54,315.46Zm20-19.21a10.53,10.53,0,0,0,0,1.87c1.23,5.68,3,11.15,6.5,15.88a25.21,25.21,0,0,0,14.27,10.13c6.13,1.56,11.07-3,10-9.19s-4.66-10.82-9.61-14.5a6.26,6.26,0,0,0-4.86-1.24,25.39,25.39,0,0,1-13.51-2C798.54,296.91,797.73,296.67,796.49,296.25Zm-5.14-2.57c0-.18,0-.44-.11-.54-.64-.57-1.31-1.11-2-1.65-3.76-2.92-7.08-6.17-8.84-10.79a5.12,5.12,0,0,0-2.26-2.41,21.54,21.54,0,0,0-14.5-2.33,17.22,17.22,0,0,0-5.11,1.82,7.48,7.48,0,0,0-2,11.81,18.5,18.5,0,0,0,4.36,3.72c9.88,5.9,20,4.8,30.21.86C791.21,294.12,791.26,293.85,791.35,293.68Zm5.46-.31c1.76,1.61,4.3,2.73,8.07,3.71a17.57,17.57,0,0,0,14.34-2.16c4.36-2.78,4-7.33-.67-9.64a8.26,8.26,0,0,0-2.42-.87c-3.75-.55-7.55-.64-10.84,1.53a88.36,88.36,0,0,0-7.42,5.86A6.66,6.66,0,0,0,796.81,293.37Zm-2.85-1.5a3.65,3.65,0,0,0,.66-.86,25.34,25.34,0,0,0,1.22-12.22,13.75,13.75,0,0,0-6.17-9.7c-4.37-2.82-8.42-.63-8.58,4.53C780.86,281,786.71,289.3,794,291.87Zm-9,26.3a7.25,7.25,0,0,0,7.53-7.08,7.42,7.42,0,1,0-14.83-.26A7.29,7.29,0,0,0,785,318.17Zm22.75-35.42a8.39,8.39,0,0,0,4.14-1.36c-.48-.64-.82-1.5-1.45-1.88-3.39-2-6.85-3.9-10.29-5.82a18.74,18.74,0,0,0-2.31-1.2,1.49,1.49,0,0,0-1.28.12,1.43,1.43,0,0,0-.27,1.27c.69,1.88,1.34,3.74,3.48,4.67s4,2.21,6.08,3.31C806.48,282.22,807.19,282.5,807.72,282.75Zm-22.81,15.51c-.1,1.69.19,2.94,1.42,3.3a17.59,17.59,0,0,1,6.23,3.45c.53.43,1.8.11,2.66-.12a1.61,1.61,0,0,0,.63-1.39c-.6-2.57-1.32-5.11-2.07-7.95Zm26.74-19.93c.05-3.59-.92-6.52-4.18-8.19-2.78-1.42-6.06-.92-8.78,1.54C803,274.1,807,276.73,811.65,278.33Zm-13.2.63c-1,4-.56,4.93,2.11,6.11,1.63.72,3.12.07,4.78-2.28Zm2.35,7.56L798,285c-.2,1.37-.33,2.28-.46,3.19l.59.3Z" transform="translate(0 -6.5)"/><path class="cls-2" d="M783.71,329.9h-.13a2.82,2.82,0,0,1-2.29-1.34,2.75,2.75,0,0,1-.14-2.57,4.27,4.27,0,0,1,.77-1l.23-.26a3.12,3.12,0,0,0,.93-2.4,2.83,2.83,0,0,0-1.35-1.9,18.58,18.58,0,0,0-3.16-1.74,2.56,2.56,0,0,0-3.71,1.82c0,.09,0,.18,0,.26a2.46,2.46,0,0,1-.14.65c-.6,1.49-1.75,2.24-3,1.91a3.77,3.77,0,0,1-2.24-2,2.55,2.55,0,0,1,1.36-3.29c1.23-.68,2.43-1.41,3.71-2.17l1.27-.75-.06-.34c-.08-.49-.14-.91-.23-1.32a9.86,9.86,0,0,1,4.9-11.3,10.45,10.45,0,0,1,1.38-.69c.65-.27.77-.52.55-1.15s-.57-.81-1.27-.76l-.86.07c-1.8.15-3.67.31-5.51.32h-.24c-6,0-11.55-1.92-17.09-5.89a14.91,14.91,0,0,1-3.53-3.7,9.82,9.82,0,0,1,2.05-13.83q5.67-4.53,14.2-3.28a48.12,48.12,0,0,1,5,1.11c.78.21,1.56.41,2.35.6.27.06.55.1.91.15l0-.27c.07-.65.14-1.26.18-1.86.33-4.6,3.32-7.69,7.43-7.69a9.32,9.32,0,0,1,4.1,1,13.28,13.28,0,0,1,2.46,1.7l.47.39c.52.41,1,.87,1.54,1.36l.34.31.4-.22c.61-.32,1.18-.63,1.74-1a13.91,13.91,0,0,1,7-1.9h.18a9.43,9.43,0,0,1,9.45,6.37,17.2,17.2,0,0,1,1.1,4.94l0,.25c.22,2.74.22,2.74,3.12,3.69a13.46,13.46,0,0,1,2.52,1,7.74,7.74,0,0,1,1.11,13.34c-.56.43-1.14.84-1.82,1.3l-.36.25.09.08c.43.42.8.78,1.21,1.11a29.11,29.11,0,0,1,7.17,8.57,17.41,17.41,0,0,1,2.13,9.26c-.29,5.75-4.49,9.93-10,9.93a11.32,11.32,0,0,1-2.37-.26c-7-1.53-12.86-5.7-17.4-12.39a31.44,31.44,0,0,1-2.15-3.94c-.24-.49-.49-1-.74-1.47-.42-.83-.69-1.33-.86-1.33a5,5,0,0,0-1.41.51c.78,6.75-2.08,11-8.53,12.75v5.75C786.43,328.64,785.36,329.9,783.71,329.9ZM777.27,317a4.57,4.57,0,0,1,1.86.41,19,19,0,0,1,3.4,1.87,4.18,4.18,0,0,1,2,2.89,4.5,4.5,0,0,1-1.27,3.51l-.26.3a2.67,2.67,0,0,0-.52.66,1.26,1.26,0,0,0,.07,1.22,1.39,1.39,0,0,0,1.13.66l.07.71v-.71c1.13,0,1.3-1.12,1.31-1.79v-6.86l.55-.12c6.25-1.48,8.84-5.36,7.92-11.85l-.07-.52.48-.22a6.7,6.7,0,0,1,2.48-.85c1,0,1.48.83,2.13,2.1.25.49.5,1,.74,1.5a31,31,0,0,0,2.06,3.76c4.38,6.47,9.79,10.33,16.52,11.8a9.8,9.8,0,0,0,2.07.23c4.7,0,8.3-3.61,8.55-8.59a15.68,15.68,0,0,0-2-8.5,27.56,27.56,0,0,0-6.82-8.15c-.43-.36-.83-.75-1.29-1.19L817,298l1.8-1.25c.65-.45,1.21-.83,1.74-1.25a6.31,6.31,0,0,0-.92-11,12.64,12.64,0,0,0-2.27-.93c-3.63-1.19-3.82-1.42-4.09-4.93l0-.24a16.6,16.6,0,0,0-1-4.55,8,8,0,0,0-8.13-5.46,12.52,12.52,0,0,0-6.41,1.71c-.57.33-1.16.65-1.79,1l-1.29.69-1.09-1c-.49-.46-1-.89-1.45-1.29l-.49-.39a12.23,12.23,0,0,0-2.19-1.53,7.93,7.93,0,0,0-3.47-.86c-3.33,0-5.74,2.56-6,6.37-.05.62-.11,1.24-.19,1.91l-.18,1.75-1.46-.22c-.41-.06-.73-.11-1-.18l-2.38-.6a44.53,44.53,0,0,0-4.84-1.09c-5.34-.78-9.6.19-13.11,3A8.49,8.49,0,0,0,755,289.53a13.66,13.66,0,0,0,3.2,3.34c5.29,3.79,10.61,5.63,16.26,5.63h.22c1.8,0,3.63-.17,5.41-.32l.87-.07a2.38,2.38,0,0,1,2.72,1.7,2.13,2.13,0,0,1-1.36,2.94,10.54,10.54,0,0,0-1.21.61,8.5,8.5,0,0,0-4.22,9.75c.1.44.17.89.25,1.42l.21,1.29-2.09,1.24c-1.29.77-2.51,1.49-3.75,2.19-.42.23-1.07.73-.74,1.49a2.37,2.37,0,0,0,1.29,1.19c.76.21,1.21-.78,1.33-1.06a1.43,1.43,0,0,0,0-.28,2.71,2.71,0,0,1,.09-.51A4,4,0,0,1,777.27,317Zm42.41,8.19a10.42,10.42,0,0,1-2.57-.33c-5.79-1.47-10.72-5-14.68-10.4-3.06-4.2-5.11-9.19-6.62-16.15a4.82,4.82,0,0,1,0-1.16c0-.24,0-.52,0-.86v-1l2.07.69c.68.22,1.22.4,1.74.62a24.55,24.55,0,0,0,13.14,1.93,6.92,6.92,0,0,1,5.38,1.37c5.68,4.23,8.92,9.12,9.89,15a9,9,0,0,1-1.84,7.42A8.31,8.31,0,0,1,819.68,325.15Zm-22.5-27.92a3.31,3.31,0,0,0,0,.74c1.47,6.76,3.44,11.58,6.38,15.61,3.76,5.16,8.43,8.48,13.88,9.86a7.37,7.37,0,0,0,7.62-2.1,7.6,7.6,0,0,0,1.53-6.28c-.92-5.46-4-10.05-9.34-14.05a5.54,5.54,0,0,0-4.33-1.1,26,26,0,0,1-13.89-2c-.5-.2-1-.37-1.64-.57Zm-12.12,21.65h0a8.19,8.19,0,0,1-5.8-2.38,7.93,7.93,0,0,1-2.3-5.68,8.4,8.4,0,0,1,8.12-8.09h0a8.09,8.09,0,0,1,5.72,2.5,8.23,8.23,0,0,1,2.4,5.88A7.92,7.92,0,0,1,785.06,318.88Zm0-15.44,0,.71a6.94,6.94,0,0,0-6.7,6.69,6.46,6.46,0,0,0,1.89,4.66,6.7,6.7,0,0,0,4.71,2h0a6.56,6.56,0,0,0,6.82-6.4,6.81,6.81,0,0,0-2-4.85,6.64,6.64,0,0,0-4.7-2.07Zm8.27,2.49h0a1.93,1.93,0,0,1-1.26-.37,16.62,16.62,0,0,0-6-3.32c-2.13-.62-2-3.18-1.93-4l0-.49,10-3.08.75,2.8c.56,2,1.07,4,1.52,5.89a2.17,2.17,0,0,1-1.13,2.24A8.48,8.48,0,0,1,793.37,305.93Zm-.37-1.47a.87.87,0,0,0,.37.05h0a7.69,7.69,0,0,0,1.66-.3s.13-.42.12-.57c-.44-1.9-.95-3.8-1.5-5.82l-.37-1.38-7.68,2.35c0,1.58.45,1.95.93,2.08a18.08,18.08,0,0,1,6.47,3.59Zm16.81-6h0a20.72,20.72,0,0,1-5.1-.67c-4-1-6.59-2.23-8.38-3.88l-.45-.41.34-.5.27-.47a4.12,4.12,0,0,1,.93-1.26l1.57-1.31a65.14,65.14,0,0,1,5.91-4.59,12.75,12.75,0,0,1,7.25-2,28.16,28.16,0,0,1,4.08.34,8.76,8.76,0,0,1,2.64.94c2.5,1.24,4,3.17,4.11,5.31s-1.12,4.12-3.38,5.56A17.92,17.92,0,0,1,809.81,298.44Zm-12.09-5.22c1.6,1.29,3.9,2.28,7.34,3.17a18.93,18.93,0,0,0,4.75.63h0a16.57,16.57,0,0,0,9-2.7c1.84-1.17,2.81-2.69,2.72-4.28s-1.29-3.12-3.32-4.12a7.76,7.76,0,0,0-2.21-.8,25.55,25.55,0,0,0-3.88-.33,11.43,11.43,0,0,0-6.47,1.74,67.54,67.54,0,0,0-5.77,4.49c-.53.45-1,.89-1.58,1.32a3.15,3.15,0,0,0-.59.86S797.73,293.21,797.72,293.22Zm-22,4.92h0a28.79,28.79,0,0,1-15.18-4.23,19,19,0,0,1-4.53-3.85,8.18,8.18,0,0,1,2.2-12.89,17.74,17.74,0,0,1,5.33-1.91,22.23,22.23,0,0,1,15,2.41,5.88,5.88,0,0,1,2.6,2.78c1.8,4.74,5.36,8,8.6,10.48q1.05.81,2,1.68a1.16,1.16,0,0,1,.32.85l0,.23-.1.31a1.2,1.2,0,0,1-.63.83A43.33,43.33,0,0,1,775.69,298.14Zm-8-21.87a19.92,19.92,0,0,0-3.9.39,16.21,16.21,0,0,0-4.89,1.74,6.77,6.77,0,0,0-1.84,10.73,17.72,17.72,0,0,0,4.19,3.57,27.51,27.51,0,0,0,14.45,4h0a41.64,41.64,0,0,0,14.92-3.13v0c-.59-.52-1.19-1-1.81-1.49-3.4-2.65-7.14-6-9.07-11.1a4.34,4.34,0,0,0-1.93-2A21.58,21.58,0,0,0,767.68,276.27Zm26.53,16.44-.48-.17c-7.47-2.65-13.59-11.33-13.35-18.94.12-3.87,2.34-6.46,5.54-6.46a7.77,7.77,0,0,1,4.13,1.35,14.41,14.41,0,0,1,6.49,10.19,26,26,0,0,1-1.25,12.56,2.38,2.38,0,0,1-.59.87l-.18.2Zm-8.29-24.15c-2.41,0-4,2-4.12,5.08-.21,6.9,5.22,14.76,12,17.39a1.5,1.5,0,0,0,.19-.25,24.53,24.53,0,0,0,1.18-11.88,13,13,0,0,0-5.85-9.21A6.3,6.3,0,0,0,785.92,268.56Zm12.26,20.79-1.47-.73.69-4.68.7.37c-1.09-1.19-1-2.77-.34-5.52l.14-.58a9.34,9.34,0,0,1-2.25-3.94,2.16,2.16,0,0,1,.4-2.19,1.88,1.88,0,0,1,1.22-.39l.32,0,.62-.56c2.88-2.59,6.53-3.2,9.58-1.64s4.63,4.43,4.57,8.82v1l-.93-.31c-.42-.14-.84-.29-1.25-.45.21.11.4.23.61.35a4,4,0,0,1,1.26,1.47c.13.21.25.41.39.6l.51.68-.76.38-.57.29a9.75,9.75,0,0,1-1.46.68,9.31,9.31,0,0,1-1.52.32c-.24,0-.5.07-.78.13l-.22,0-.72-.33-.72-.32-.26.36c-1.39,1.95-2.7,2.85-4.14,2.85h0a2.75,2.75,0,0,1-.4,0l.74.39Zm.33-3.22-.2,1.35,1.15-.85Zm.42-6.09c-.62,3-.14,3.47,1.91,4.38,1.21.53,2.22.1,3.44-1.4Zm-1.66-6.93a.6.6,0,0,0-.29.05,1.17,1.17,0,0,0-.06.48c.72,1.93,1.29,3.47,3.1,4.26a38.48,38.48,0,0,1,4.12,2.19c.67.39,1.34.78,2,1.15.44.24.9.44,1.31.62l.34.15.6-.09a8.55,8.55,0,0,0,1.27-.26,7.44,7.44,0,0,0,1.15-.54h0a3.1,3.1,0,0,0-.78-1c-2.61-1.54-5.3-3-7.9-4.48L799.26,274a14.4,14.4,0,0,0-1.7-.87A.9.9,0,0,0,797.27,273.11Zm2.67-1.54,1.78,1a60.44,60.44,0,0,0,9.2,4.7c-.15-3.25-1.34-5.29-3.78-6.53A6.78,6.78,0,0,0,799.94,271.57Z" transform="translate(0 -6.5)"/><path class="cls-1" d="M367.48,180.3a15.65,15.65,0,0,1-9.27-2.91,14.54,14.54,0,0,1-2.54-22.32,18.39,18.39,0,0,1,23.68-2.14,14.42,14.42,0,0,1,2.19,21.54C377.93,178.48,373.37,180.38,367.48,180.3Z" transform="translate(0 -6.5)"/><path class="cls-1" d="M765.17,43.61c3.92-6.44,7.59-12.5,11.39-18.75a136,136,0,0,1,28.55,23L789.15,63A119.44,119.44,0,0,0,765.17,43.61Z" transform="translate(0 -6.5)"/><path class="cls-1" d="M834.5,218.42a242,242,0,0,1-10.11,33.9l-20.16-7.65c3.1-10.43,6.12-20.58,9.21-31Z" transform="translate(0 -6.5)"/><path class="cls-1" d="M807,88l19.47-10a122.93,122.93,0,0,1,12,34.86L816.94,117A112,112,0,0,0,807,88Z" transform="translate(0 -6.5)"/><path class="cls-1" d="M619.4,63.38a151.59,151.59,0,0,0-23.52,21.08L579.55,69.8a162.56,162.56,0,0,1,26.81-24.09Z" transform="translate(0 -6.5)"/><path class="cls-1" d="M375.06,72.42c2.18,7.08,4.27,13.85,6.36,20.65-4.62,2-9.19,3.74-13.48,6s-8.17,5-12.56,7.74L341.54,90.3A95.36,95.36,0,0,1,375.06,72.42Z" transform="translate(0 -6.5)"/><path class="cls-1" d="M480.53,90l28.16,16q-4.11,9.57-8.46,19.75c-11-4.71-20.76-10.92-31-17.13Z" transform="translate(0 -6.5)"/><path class="cls-1" d="M646.48,45.76c-3.26-6.22-6.55-12.48-10-19A186.43,186.43,0,0,1,669.62,13l6.27,20.51Z" transform="translate(0 -6.5)"/><path class="cls-1" d="M412,88.65V66.81c12.63-.49,24.72,1.89,36.84,6.52-2.61,6.83-5.16,13.5-7.83,20.47A77.41,77.41,0,0,0,412,88.65Z" transform="translate(0 -6.5)"/><path class="cls-1" d="M574.18,110.53c-6.72,9.53-24.43,19.85-34.49,20.08l-4-20.6c4.21-1.82,8.46-3.16,12.18-5.4s6.95-5.37,10.6-8.28Z" transform="translate(0 -6.5)"/><path class="cls-1" d="M742.5,10.36,737,31.5a107.42,107.42,0,0,0-30.27-3c-.36-7.37-.7-14.42-1.05-21.82A116,116,0,0,1,742.5,10.36Z" transform="translate(0 -6.5)"/><path class="cls-1" d="M840.2,183.64l-21.52-2.28c.53-10.9,1.06-21.53,1.59-32.46H841.8A256.69,256.69,0,0,1,840.2,183.64Z" transform="translate(0 -6.5)"/><path class="cls-1" d="M332.66,143.84l-20.89-6a94.52,94.52,0,0,1,6.46-17.08l19.57,9.34C336.09,134.68,334.43,139.12,332.66,143.84Z" transform="translate(0 -6.5)"/><path class="cls-1" d="M81.08,452.26a12.64,12.64,0,0,1-1.64-.26c-4.08-1.1-8.19-2.14-12.23-3.39a8.38,8.38,0,0,1-5.95-6.15c-1.07-4.09-2.18-8.17-3.12-12.29a7.9,7.9,0,0,1,2.25-7.43c2.93-3.05,6-6,9.11-8.85a8.14,8.14,0,0,1,8.07-1.84l10.83,3a9,9,0,0,1,6.87,7Q96.58,427.57,98,433a8.24,8.24,0,0,1-2.22,8.24c-2.85,3-5.9,5.79-8.88,8.67A9.49,9.49,0,0,1,81.08,452.26Zm-.16-6.43a11.66,11.66,0,0,0,2.44-1.42c2.46-2.28,4.81-4.69,7.22-7a3.57,3.57,0,0,0,1-3.91c-.91-3.13-1.73-6.29-2.46-9.46a3.65,3.65,0,0,0-2.86-2.88c-3.23-.89-6.47-1.76-9.69-2.7a3.22,3.22,0,0,0-3.42.84l-7.6,7.46a3,3,0,0,0-.89,3.14c.92,3.42,1.7,6.88,2.69,10.28A3.43,3.43,0,0,0,69,442.28C72.82,443.55,76.71,444.6,80.92,445.83Z" transform="translate(0 -6.5)"/><path class="cls-1" d="M147.34,389a17.92,17.92,0,0,1,2.38.35c3.43.93,6.84,1.92,10.26,2.89a8.86,8.86,0,0,1,6.63,6.88c.81,3.36,1.75,6.69,2.58,10,.94,3.83.28,7.18-2.78,10-2.55,2.33-5,4.81-7.41,7.26a9,9,0,0,1-9.25,2.46c-3.53-.93-7-2-10.54-2.94a9,9,0,0,1-6.83-7.05c-.82-3.36-1.69-6.7-2.56-10.05a9.31,9.31,0,0,1,2.65-9.74c2.65-2.51,5.22-5.1,7.87-7.61C142.4,389.51,144,389,147.34,389Zm15.82,23.39c-.09-.7-.09-1-.16-1.27q-1.31-5.16-2.62-10.32a3.56,3.56,0,0,0-2.81-2.59c-3.14-.86-6.3-1.68-9.42-2.62a3.62,3.62,0,0,0-3.92,1c-2.31,2.31-4.62,4.62-7,6.86a3.91,3.91,0,0,0-1.09,4.2c.79,3.06,1.6,6.12,2.38,9.19a3.84,3.84,0,0,0,3.08,3c3.07.78,6.09,1.72,9.14,2.59a3.89,3.89,0,0,0,4.19-1.1c2.28-2.34,4.68-4.56,6.95-6.91A9.85,9.85,0,0,0,163.16,412.4Z" transform="translate(0 -6.5)"/><path class="cls-1" d="M152.33,484.77a7.94,7.94,0,0,1-2.38,6q-4.27,4.28-8.62,8.5c-2.63,2.56-5.88,2.71-9.16,1.93-3.64-.86-7.22-2-10.8-3a8.59,8.59,0,0,1-6.09-6.36c-1-3.81-2-7.61-2.9-11.44a8.33,8.33,0,0,1,2.32-8.21q4.18-4.18,8.42-8.3a8.55,8.55,0,0,1,8.51-2.23c3.91,1,7.78,2.11,11.64,3.27A8.14,8.14,0,0,1,149,470.5c1.15,3.86,2.09,7.78,3.06,11.7A16.82,16.82,0,0,1,152.33,484.77Zm-6.35.06c-.09-.57-.11-.76-.16-.95-.92-3.62-1.75-7.28-2.84-10.86a3.73,3.73,0,0,0-2.13-2.08c-3.37-1.13-6.81-2-10.24-3a3.13,3.13,0,0,0-3.2.77q-3.82,3.74-7.67,7.42a3.27,3.27,0,0,0-.95,3.42c.87,3.35,1.78,6.68,2.6,10a3.48,3.48,0,0,0,2.7,2.68c3.24.9,6.49,1.75,9.72,2.7a3.21,3.21,0,0,0,3.43-.81c2.47-2.42,5-4.79,7.43-7.25A9.41,9.41,0,0,0,146,484.83Z" transform="translate(0 -6.5)"/></svg>