<svg xmlns="http://www.w3.org/2000/svg" xmlns:xlink="http://www.w3.org/1999/xlink" viewBox="0 0 729.66 796.82"><defs><style>.cls-1,.cls-10,.cls-12,.cls-13,.cls-15,.cls-6{fill:none;}.cls-1{clip-rule:evenodd;}.cls-17,.cls-18,.cls-19,.cls-2,.cls-20,.cls-21,.cls-22,.cls-23,.cls-24,.cls-25,.cls-26,.cls-27,.cls-28,.cls-29,.cls-3,.cls-30,.cls-31,.cls-32,.cls-33,.cls-34,.cls-35,.cls-36,.cls-37,.cls-38,.cls-39,.cls-40,.cls-41,.cls-42,.cls-43,.cls-44,.cls-45,.cls-46,.cls-47,.cls-48,.cls-49,.cls-50,.cls-51,.cls-52,.cls-54,.cls-55,.cls-6{fill-rule:evenodd;}.cls-2{fill:url(#linear-gradient);}.cls-3{fill:url(#linear-gradient-2);}.cls-4{fill:url(#linear-gradient-3);}.cls-5{fill:url(#linear-gradient-4);}.cls-12,.cls-13,.cls-15,.cls-6{stroke:#bd6418;}.cls-10,.cls-12,.cls-13,.cls-15,.cls-6{stroke-miterlimit:10;stroke-width:2px;}.cls-15,.cls-6{stroke-dasharray:5;}.cls-53,.cls-7{fill:#fff;}.cls-7{opacity:0.4;}.cls-8,.cls-9{fill:#fffffd;}.cls-9{opacity:0.5;}.cls-10{stroke:url(#linear-gradient-5);}.cls-11{fill:#955818;}.cls-13{stroke-dasharray:4.96 4.96;}.cls-14,.cls-17{fill:#f09d00;}.cls-16{clip-path:url(#clip-path);}.cls-18{fill:#774f1a;}.cls-19{fill:#fedba7;}.cls-20{fill:#fee8cb;}.cls-21{fill:#fab845;}.cls-22{fill:#bb7517;}.cls-23{fill:#db8e09;}.cls-24{fill:#784f1a;}.cls-25{fill:#feddad;}.cls-26{fill:#bb7617;}.cls-27{fill:#fee8ca;}.cls-28{fill:#faba56;}.cls-29{fill:#fddaa6;}.cls-30{fill:#bd7b1c;}.cls-31{fill:#fab844;}.cls-32{fill:#fefbf4;}.cls-33{fill:#f8b642;}.cls-34{fill:#875e29;}.cls-35{fill:#fddba7;}.cls-36{fill:#fddaa7;}.cls-37{fill:#c2852d;}.cls-38{fill:#7a521d;}.cls-39{fill:#7b521d;}.cls-40{fill:#7b531e;}.cls-41{fill:#fefdfc;}.cls-42{fill:#f2f1f0;}.cls-43{fill:url(#linear-gradient-6);}.cls-44{fill:url(#linear-gradient-7);}.cls-45{fill:url(#linear-gradient-8);}.cls-46{fill:url(#linear-gradient-9);}.cls-47{fill:url(#linear-gradient-10);}.cls-48{fill:url(#linear-gradient-11);}.cls-49{fill:url(#linear-gradient-12);}.cls-50{fill:url(#linear-gradient-13);}.cls-51{fill:url(#linear-gradient-14);}.cls-52{fill:url(#linear-gradient-15);}.cls-54{fill:#dc880a;}.cls-55{fill:#402929;}</style><linearGradient id="linear-gradient" x1="627.87" y1="536.51" x2="21.3" y2="4.59" gradientUnits="userSpaceOnUse"><stop offset="0" stop-color="#fdd289"/><stop offset="1" stop-color="#ef9d00"/></linearGradient><linearGradient id="linear-gradient-2" x1="720.18" y1="431.24" x2="113.62" y2="-100.68" xlink:href="#linear-gradient"/><linearGradient id="linear-gradient-3" x1="444.08" y1="753.32" x2="-160.88" y2="222.81" xlink:href="#linear-gradient"/><linearGradient id="linear-gradient-4" x1="118.69" y1="657.72" x2="-487.86" y2="125.82" gradientTransform="translate(-107.29 287.48) rotate(-37.23)" xlink:href="#linear-gradient"/><linearGradient id="linear-gradient-5" x1="95.2" y1="233.96" x2="407.29" y2="233.96" xlink:href="#linear-gradient"/><clipPath id="clip-path"><path class="cls-1" d="M729.39,145.83s-64.29,44.59-132.73,6.74S521.48,57.17,423.49,65s-86.59,54.44-158.65,39.4S138.33,37.47,72.49,72.72,4.57,194.05,78.71,259.89s101.62,129.62,87.1,200.65-27,198.05,115.1,207.38S409,647.71,472.22,739.47,712.28,789.25,729.39,754Z"/></clipPath><linearGradient id="linear-gradient-6" x1="-168.08" y1="215.91" x2="-141.28" y2="215.91" gradientTransform="matrix(0.25, -0.97, 0.97, 0.25, -35.64, 413.89)" xlink:href="#linear-gradient"/><linearGradient id="linear-gradient-7" x1="-159" y1="222.17" x2="-138.15" y2="222.17" gradientTransform="matrix(0.25, -0.97, 0.97, 0.25, -35.64, 413.89)" xlink:href="#linear-gradient"/><linearGradient id="linear-gradient-8" x1="-174.83" y1="204.03" x2="-156.88" y2="204.03" gradientTransform="matrix(0.25, -0.97, 0.97, 0.25, -35.64, 413.89)" xlink:href="#linear-gradient"/><linearGradient id="linear-gradient-9" x1="-181.73" y1="191.95" x2="-173.98" y2="191.95" gradientTransform="matrix(0.25, -0.97, 0.97, 0.25, -35.64, 413.89)" xlink:href="#linear-gradient"/><linearGradient id="linear-gradient-10" x1="-180.73" y1="193.27" x2="-172.6" y2="193.27" gradientTransform="matrix(0.25, -0.97, 0.97, 0.25, -35.64, 413.89)" xlink:href="#linear-gradient"/><linearGradient id="linear-gradient-11" x1="345.26" y1="403.25" x2="367.91" y2="403.25" gradientTransform="translate(-123.02 -381.26) rotate(9.38)" xlink:href="#linear-gradient"/><linearGradient id="linear-gradient-12" x1="352.93" y1="408.53" x2="370.55" y2="408.53" gradientTransform="translate(-123.02 -381.26) rotate(9.38)" xlink:href="#linear-gradient"/><linearGradient id="linear-gradient-13" x1="339.56" y1="393.21" x2="354.72" y2="393.21" gradientTransform="translate(-123.02 -381.26) rotate(9.38)" xlink:href="#linear-gradient"/><linearGradient id="linear-gradient-14" x1="333.72" y1="383" x2="340.27" y2="383" gradientTransform="translate(-123.02 -381.26) rotate(9.38)" xlink:href="#linear-gradient"/><linearGradient id="linear-gradient-15" x1="334.57" y1="384.12" x2="341.44" y2="384.12" gradientTransform="translate(-123.02 -381.26) rotate(9.38)" xlink:href="#linear-gradient"/></defs><g id="Layer_2" data-name="Layer 2"><g id="Layer_1-2" data-name="Layer 1"><path class="cls-2" d="M729.39,145.83s-64.29,44.59-132.73,6.74S521.48,57.17,423.49,65s-86.59,54.44-158.65,39.4S138.33,37.47,72.49,72.72,4.57,194.05,78.71,259.89s101.62,129.62,87.1,200.65-27,198.05,115.1,207.38S409,647.71,472.22,739.47,712.28,789.25,729.39,754Z"/><path class="cls-3" d="M281.69.14S210.92,6.62,210.92,45s62.73,54.69,99.28,42.77S366.2-3.75,281.69.14Z"/><path class="cls-4" d="M50.11,342.72s-67.22,22.07-39.3,105.15,75.5,94.79,101.69,85.49,46.54-49.3,31-112S100.44,326.52,50.11,342.72Z"/><path class="cls-5" d="M320.73,693S271,706.46,296.54,758.28s67.58,18.1,83.07,7.63,57.77-4,66.83-25.17S405.9,670.83,320.73,693Z"/><path class="cls-6" d="M406.29,208.05s32.41,20,31.45,62.81-47.28,95,27.28,128.63"/><path class="cls-7" d="M115.31,135H387.17a19.12,19.12,0,0,1,19.12,19.12V313.83a19.11,19.11,0,0,1-19.11,19.11H115.31A19.12,19.12,0,0,1,96.2,313.82V154.08A19.11,19.11,0,0,1,115.31,135Z"/><path class="cls-8" d="M291.65,230.78a5.71,5.71,0,0,0-2.4-4.64h0l0,0a6.09,6.09,0,0,0-1.42-.71l-53.24-26.57h0a5.69,5.69,0,0,0-9.19,4.52,5.42,5.42,0,0,0,.06.58l-.06,54.29a5.72,5.72,0,0,0,5.71,5.72,5.65,5.65,0,0,0,1.93-.36h0a5.57,5.57,0,0,0,1.27-.63l54-27h0A5.71,5.71,0,0,0,291.65,230.78Z"/><rect class="cls-9" x="359.22" y="134.97" width="12.85" height="197.97"/><rect class="cls-9" x="379.69" y="134.97" width="6.42" height="197.97"/><path class="cls-10" d="M115.31,135H387.17a19.12,19.12,0,0,1,19.12,19.12V313.83a19.11,19.11,0,0,1-19.11,19.11H115.31A19.12,19.12,0,0,1,96.2,313.82V154.08A19.11,19.11,0,0,1,115.31,135Z"/><rect class="cls-11" x="111.99" y="310.24" width="75.07" height="2.86"/><rect class="cls-9" x="185.99" y="310.24" width="203.69" height="2.86"/><path class="cls-11" d="M191.94,311.67a4.88,4.88,0,1,1-4.88-4.88A4.88,4.88,0,0,1,191.94,311.67Z"/><path class="cls-12" d="M729.39,298.94a18.42,18.42,0,0,0-2.46-.45"/><path class="cls-13" d="M722,298.21c-8.56.1-23.44,3.06-38.74,19.13-22.83,24,8.75,68.51-37.08,88.35"/><path class="cls-12" d="M643.85,406.64c-.76.3-1.54.59-2.34.88"/><path class="cls-8" d="M683.24,266.79s13.3-7.49,13.3-17.41c0,0,2.18,13.54,11.36,17.41,0,0-10.88,6-10.88,15C697,281.79,691.46,266.79,683.24,266.79Z"/><path class="cls-8" d="M641,224.51s8.37-4.71,8.37-11c0,0,1.38,8.53,7.16,11,0,0-6.85,3.81-6.85,9.45C649.65,234,646.15,224.51,641,224.51Z"/><path class="cls-14" d="M659.36,208.91s9.4-5.3,9.4-12.31c0,0,1.54,9.57,8,12.31,0,0-7.69,4.27-7.69,10.6C669.1,219.51,665.17,208.91,659.36,208.91Z"/><path class="cls-8" d="M415.64,400.25s8.37-4.72,8.37-11c0,0,1.37,8.53,7.16,11,0,0-6.85,3.81-6.85,9.44C424.32,409.69,420.82,400.25,415.64,400.25Z"/><path class="cls-8" d="M379.69,108s14.19-8,14.19-18.59c0,0,2.32,14.46,12.13,18.59,0,0-11.62,6.45-11.62,16C394.39,124,388.46,108,379.69,108Z"/><path class="cls-8" d="M409.07,135.61s7.08-4,7.08-9.27c0,0,1.16,7.21,6.06,9.27,0,0-5.8,3.22-5.8,8C416.41,143.6,413.45,135.61,409.07,135.61Z"/><path class="cls-14" d="M386.48,372.26s9.4-5.29,9.4-12.3c0,0,1.54,9.57,8,12.3,0,0-7.69,4.28-7.69,10.6C396.22,382.86,392.29,372.26,386.48,372.26Z"/><path class="cls-8" d="M233.83,609.88s13.3-7.5,13.3-17.41c0,0,2.17,13.54,11.36,17.41,0,0-10.88,6-10.88,15C247.61,624.87,242.05,609.88,233.83,609.88Z"/><path class="cls-8" d="M343.57,750.71s7.58-4.28,7.58-9.94c0,0,1.25,7.73,6.49,9.94,0,0-6.21,3.45-6.21,8.55C351.43,759.26,348.26,750.71,343.57,750.71Z"/><path class="cls-8" d="M170,565.69s8.42-4.74,8.42-11c0,0,1.38,8.57,7.19,11,0,0-6.88,3.83-6.88,9.5C178.77,575.19,175.24,565.69,170,565.69Z"/><path class="cls-14" d="M42.32,608.25s9.4-5.3,9.4-12.31c0,0,1.54,9.57,8,12.31,0,0-7.69,4.27-7.69,10.59C52.06,618.84,48.13,608.25,42.32,608.25Z"/><path class="cls-14" d="M188.58,544.52s9.79-5.52,9.79-12.81c0,0,1.6,10,8.36,12.81,0,0-8,4.45-8,11C198.72,555.56,194.63,544.52,188.58,544.52Z"/><path class="cls-14" d="M363.05,761.82S375,755.1,375,746.19c0,0,1.95,12.16,10.2,15.63,0,0-9.77,5.43-9.77,13.46C375.42,775.28,370.43,761.82,363.05,761.82Z"/><path class="cls-14" d="M637.1,353.93s11.74-6.62,11.74-15.37c0,0,1.92,11.95,10,15.37,0,0-9.61,5.34-9.61,13.24C649.27,367.17,644.36,353.93,637.1,353.93Z"/><path class="cls-15" d="M376.24,576.87s-32.25,27.6-76,30.45-3.33-88.51-126.87-13.41"/><g class="cls-16"><path class="cls-17" d="M718.35,609.46a129.2,129.2,0,0,1,1.14,18.76c.42,4.82-.77,9.46-1.63,14.14-2,10.73-2.94,21.6-4.11,32.44-.56,5.23-2.24,9.54-6.75,12.59-4.73,3.2-7.76,8.09-11.61,12.17-8.84,9.4-19,17.41-27.8,26.85-2.36,1-4.58,0-6.79-.6q-46.62-12.43-93.15-25.21c-7.09-2-8-3.3-4.9-10.18q12.33-27.7,24.1-55.65c.89-2.12,1.79-4.34,4.2-5.32,2.16-.66,4.26-.09,6.39.23,17.69,2.66,35.2,6.32,52.84,9.24,13.88,2.29,27.92,3.43,41.93,4.62,4.79.41,8.58-1.73,15.34-8.41-1.27-1.58-3.19-1.43-4.83-1.73-17.26-3.19-34.51-6.4-51.79-9.52-2.26-.41-4.63-.57-6.42-2.32-3.92-23.87-7.44-47.81-11.12-71.71-2.68-17.45-5.47-34.89-8.09-52.28-1.68,13.71-2.32,27.6-3.87,41.4-1,9-2.29,10.61-11.12,12.35a9.23,9.23,0,0,1-3,.23c-2.79-.71-3.11-3.19-3.73-5.37-8.83-31.21-18-62.32-26.91-93.49-2.19-7.63-4.3-15.29-7.15-22.7-3.38-2.57-4.91,2.3-7.72,1.95-8.86-4.55-16.47-1.12-24.13,3.4C526.53,442,515.88,449.2,507,458.78a28.94,28.94,0,0,0-7.07,12.41c-.51,1.9-.81,3.93-2.45,5.33-1.83.67-3.64,2-5.55.19.08-.64.34-1.35-.32-1.81a27.2,27.2,0,0,0-3.35-2.1c-9.47-4.62-19.42-6.61-29.91-5.15-9,1.25-18,2.68-27,4-2.13.31-4.29.38-6.43.56-3.05.45-7.6,1.72-8.72-.48-1.45-2.85,3.14-4.33,5.12-6.34,11.28-11.46,21.55-23.78,31.88-36.08,12.08-14.39,25.68-27.22,42.21-36.58,5.52-3.12,7.28-2.44,8.57,3.62,1.55,7.29,3.07,14.59,5.22,21.73,1,3.1,3.07,2.74,5.5,1.84,5.22-1.94,10-5,15.43-6.35,3.87-.17,4.34,3.58,6.37,5.53,1.08,1.11,2.22.65,3.37.1,6.57-2.29,12.82-5.33,19.16-8.13,1.5-.67,2.94-1.58,4.7-1.21,2.32,1,3.3,3.15,4.42,5.11,2.87,5,6.48,9.51,9.68,14.29.66,1,1.36,1.87,2.73,1.76,1.57,1.35,2.91,1.94,4.26-.44,1-1.83,2-3.88,4-5,3.31-1.84,5.14-5.1,7.62-7.75,7-7.51,14.36-14.7,21.74-21.85,3.46-3.35,5.81-3.41,10.72-.3,10.48,6.67,18.92,15.44,26.09,25.57,16.36,23.11,25.63,49.16,33,76.22,6.83,25.1,12.35,50.55,19.7,75.52q4.21,14.31,9.32,28.31C717.91,604,717.27,606.85,718.35,609.46Z"/><path class="cls-18" d="M590.81,630.29a21.21,21.21,0,0,0-3.21,6.12C584.42,645,580,653,577.11,661.62c-4.27,7.15-6.23,15.31-10,22.69-1.5,3-2.77,6-4.13,9a17.38,17.38,0,0,0-.71,1.86,2.08,2.08,0,0,0,1.29,2.8,28.48,28.48,0,0,0,2.84.92q18.45,5,36.9,10,28.51,7.7,57,15.35c2.38.65,4.72,1.54,7.24,1.59,4.26-3.06,8.69-5.87,13.07-8.74,1.42-.93,2.83-2.48,4.86-1.21.11.57.23,1.14.34,1.72s0,1.15.33,1.66c2,12.27,2.89,24.68,4.32,37L693.72,784c.08.65.2,1.31.27,2a2.19,2.19,0,0,1-1.66,2.65c-1,.27-1.87.7-2.84.9-6.82,1.36-13.61,2.93-20.48,4-7.86,1.18-15.79,1.89-23.7,2.76a56.28,56.28,0,0,1-5.94.42c-12.1.07-24.2.14-36.29.09-5.47,0-10.92.28-16.4,0-6-.31-11.89-1.05-17.83-1.43-8-.51-15.79-1.92-23.69-2.8-7.6-.84-14.94-3-22.26-5.08-9.26-2.67-18-6.63-26.63-10.88-3-1.46-5.69-3.38-8.53-5.07a2.34,2.34,0,0,1-1.25-2.49c.4-2.79.78-5.57,1.23-8.36q5.8-36.57,11.63-73.14c.42-2.61,1-5.21,1.45-7.81,1.26-1.78,2.94-1,4.53-.75a106.46,106.46,0,0,0,20.23,1.89c11.27-.17,22.44,1.36,34.3,2.08-6.21-5.46-12.56-9.86-17.87-15.44-2.69-2.83-4-5.72-1.07-9.17q14.26-16.1,28.58-32.19c6-6.94,13.37-7.2,22.77-.82C593.09,627.29,592.37,628.91,590.81,630.29Z"/><path class="cls-17" d="M367.26,450.66c3.23,5.75,6.57,11.45,9.68,17.27,4.14,7.72,8.09,15.54,12.15,23.3a10.8,10.8,0,0,0,2.52,3.78c3.46-1.92,5.14-5.58,8.06-7.92,1.92,1.19,2,3.27,2.53,5.17,9.79,37.6,18.27,75.52,27.87,113.17.92,3.63,3.34,6.8,3.13,10.74-9.76,5.33-20,9.73-30,14.48-5.4,2.55-11.24,4-17,5.48-6.75,1.74-12.45-.07-16.87-5.59a48.77,48.77,0,0,1-5.12-7.93c-3.74-7.21-7.53-14.4-11.07-21.7q-11.39-23.5-22.5-47.13a178.18,178.18,0,0,1-13.81-41.42c-1.25-6.36-1.44-12.84-2.23-19.25a6,6,0,0,1,2.69-6c.8-.57,1.53-1.25,2.29-1.89,4.37-4.85,10.43-7.5,15.24-11.84,8.64-7.78,18.39-14.15,27.94-20.74A9.27,9.27,0,0,1,367.26,450.66Z"/><path class="cls-18" d="M497.45,188.48c3.32-.86,6.73-.84,10.13-1,.41,0,1-.14.65-.76-.12-.24-.55-.31-.84-.45-.64-.51-1.49-.38-2.18-.73l-1.73-.31c.81-2.48,2.51-1.17,3.95-.94a1.89,1.89,0,0,1,.88.16c.63.54,1.49.4,2.18.76,1,.48,2.14.88,3.13,1.46,3,1.75,3,1.8,5.63-.71a67.82,67.82,0,0,1,40.67-19c11-1.17,21,2.33,29.27,9.88a47.38,47.38,0,0,1,12.15,16.78c1.8,4.26,3.59,8.54,5,13,.64,2-.11,4.34,1.38,6.14,2-.23,3.93-.54,5.91-.67a21.58,21.58,0,0,1,12.37,3,16.32,16.32,0,0,1,7.55,8.91,41.09,41.09,0,0,1,2,10.7c.07,1,.06,2,.07,3,.1,7.64-.72,15.23-1.36,22.82a92,92,0,0,1-1.7,9.27,2,2,0,0,1-1.15,1c-1.59.41-2.87-.3-4.18-1.08-14.2-8.39-25.56-.82-29.17,12.19-.81,2.89-.66,5.94-1.54,8.8-.47,1.52-.65,3.64-2.82,3.52s-2.85-2.13-2.93-4c-.36-8-2.24-15.73-3.38-23.59-1-6.76-3.37-12.61-8.58-17.4-6-5.56-6-6.5-1.51-15.09-6.82,4.95-11.72,1.34-17.26-.67A79.88,79.88,0,0,0,523.41,229a24.33,24.33,0,0,0-15,7c-2.69,2.76-2.38,3.79,1.4,4.86a56.49,56.49,0,0,1,9.27,3.56,21.34,21.34,0,0,1,4.22,2.57c1.49,1.32,3.18,2.74,2.25,5s-3,2.45-5.07,2.14c-5.41-.85-10.86-.54-16.3-.59a11.1,11.1,0,0,0-3.89.48c-3.87,2.47.66,4.1.63,6.17-1.46,3.53-3.13,6.92-6.56,9-5.67,12-4.21,23.93,3.93,32a9.49,9.49,0,0,0,6.68,2.36c1.92.05,3.91-.18,5.58,1.15a2.42,2.42,0,0,1,.1,2.36c-4.58,2.89-6.89,2.68-12.18-1.16-6.16-3.69-8.9-9.46-10.23-16.23-1.29-6.54-.45-12.84,1.55-19.07.41-1.26.93-2.47,1.39-3.65-.57-1.31-1.83-1.42-2.81-1.93-.44-.23-.9-.44-1.36-.63-13.32-5.67-18.1-16.63-18.5-30.18a43.09,43.09,0,0,1,2.69-16.08c3.45-9.44,9.08-17.23,18.53-21.64,4.35-2,8.63-4.19,13.34-5.28.81-2.28-1.11-1-1.75-1.29C500,189.33,498,191,497.45,188.48Z"/><path class="cls-18" d="M433.2,616.17a7.43,7.43,0,0,1-2.36-3.68c-.88-3-1.87-6-2.62-9-5.63-22.76-11.46-45.48-16.7-68.33-3-13.2-7.07-26.12-10-39.33-.64-2.9-1.22-5.81-1.84-8.71.2-5.6-.11-5,5.23-5.29q30.39-1.91,60.78-3.73c8.73-.52,17.47-.91,26.22-1.36l5.75-.73c8-3.05,14.59-8.18,21.28-13.4C532,452.4,545,442.12,558.7,432.79a11.59,11.59,0,0,1,3.15-1.42c1.58-1.08,3.12-2.23,4.74-3.24,1.14-.71,2.38-1,3.5.14,1.38,2.77-.52,4.2-2.25,5.83-7.51,7.08-16.42,12.33-24.5,18.67-10.67,8.39-21,17.29-32.4,24.7-3,1.94-2.47,4.19-1.72,6.89,7.92,28.6,15.92,57.16,23.72,85.79.52,1.9,2.13,4-.32,5.86a2.92,2.92,0,0,1-2.84-1.07,10.18,10.18,0,0,1-1.72-3.57c-7.74-28.31-15.63-56.57-23.21-84.92-.89-3.31-2.34-4.78-5.91-4.22-3.27.51-6.62.07-9.94.24-2.57.13-3.56,1.42-3,3.95.46,1.94,1.13,3.81,1.76,5.7.88,2.65,2.67,3.61,5.38,3.15a78.68,78.68,0,0,1,8.36-1.22c2.57-.15,4.82.81,5.19,3.54s-1.93,3.64-4.05,4.24c-2.39.67-4.92.66-7.36,1.21-1.55.34-3.63.19-3.18,2.74.38,2.19,1.53,3.7,4.06,3.37q3.21-.42,6.39-1a16.47,16.47,0,0,1,3.95-.41c1.93.15,3.81.66,4.17,2.82s-1.22,3.33-2.95,4.12a24.84,24.84,0,0,1-7.74,1.77c-3.53.4-5.21,1.86-3.7,5.58a27.21,27.21,0,0,1,.89,3.36c1.79,6.91,1.78,6.79,9.09,6.27,2.75-.2,6.84-1.46,7.43,2.56.55,3.78-3.34,4.41-6.29,4.86-3.12.49-5.94,1.1-6.32,5-1.6,2.16-3.26.53-4.8,0-2.17-.79-4.26-1.76-6.6-1.9-1.52-.09-3,0-3.92,1.49s-.33,2.91.49,4.18a32,32,0,0,0,6.52,6.67c4.28,3.6,8.69,7,13.15,10.4a7.53,7.53,0,0,1,2.35,2.84c.26,3.07,3.53,5.92.69,9.22-4.66,0-6.1-4.47-9.21-6.62q-8.65-8.89-17.55-17.54c-2.42-2.35-5.27-5.83-8.86-3-3.3,2.56-1.54,6.54,0,9.61,3.7,7.27,9.45,13.11,14.45,19.47.41.52.88,1,1.28,1.52,2.05,3.26,5.29,5.48,7.5,8.57,1,1.36,3,3,1.35,4.69-1.33,1.4-3.1-.07-4.46-.93-2.24-1.42-4.5-2.81-6.58-4.44C482.19,584,478.41,579,474.7,574a19.61,19.61,0,0,0-3.51-4.14c-1.76-1.37-3.73-2.5-5.86-1s-1.46,3.61-.7,5.44a131.4,131.4,0,0,0,13.7,24.61c1.63,2.06,3.71,3.7,5.31,5.77.6.77,1.36,1.73.69,2.64-.86,1.19-2.05.54-3.06,0a23.77,23.77,0,0,1-4.39-3.12c-3.41-2.65-6.7-5.4-9.17-9a9,9,0,0,0-2.89-2.69c-1.15-.68-2.38-1.4-3.72-.69s-1.26,2.21-1.22,3.53a11.88,11.88,0,0,0,2.11,6c2,3.22,4.21,6.35,6.33,9.52.83,1.25,3.65,2.61,2.18,4.5-5.28.29-11.66.38-16.95.67A189.23,189.23,0,0,1,433.2,616.17Z"/><path class="cls-19" d="M518.25,245.19c-4.73-1.87-9.43-3.86-15.12-4,1.91-3.88,4.09-6.72,7.2-8.74a31,31,0,0,1,15.84-5.2,104.33,104.33,0,0,1,32.4,4,23.09,23.09,0,0,1,8,3.84,4.57,4.57,0,0,0,5.12.44,44.75,44.75,0,0,1,8.16-3.26c-.39,2.1-1.54,3.29-2.34,4.62-.59,1-1.33,1.9-1.92,2.9-1.11,1.88-1.05,2.87.4,4.46,2.23,2.44,4.48,4.87,6.81,7.22A19,19,0,0,1,587.93,262c1.18,6.85,2.36,13.7,3.44,20.57.41,2.6.53,5.26.79,7.89.08.81,0,1.68.58,2.35.34.35.68.78,1.25.57a1.73,1.73,0,0,0,.79-.5c.77-1.17.66-2.55.8-3.84a45.94,45.94,0,0,1,1.33-8.32,27.07,27.07,0,0,1,6.8-11.4,12.94,12.94,0,0,1,10.2-4.29c2,.11,4,.05,6,.21,3.36.29,6.56,1,8.84,3.84a3.46,3.46,0,0,0,3.1,1.25c10.38,8.1,9,26.95,1.58,35.78-3.61,4.31-8.13,7.05-13.73,6.89-5.21-.15-8.22.94-10,6.69a41,41,0,0,1-25.19,26.76c5.31-2.49,14.3-4.71,21.4-10.76.75-.64,1.73-1.35,2.7-.93,1.37.59.72,2,.82,3.09.29,3.27-.54,6.6.46,9.84.36,1,1.28,1.8,1,3-15.23,11.28-30.92,22-45.75,33.78-7.25,10.79-15.84,20.59-23.19,31.31-1.09,1.58-2,3.43-4.1,4.12a2.44,2.44,0,0,1-1.58-.33,4.55,4.55,0,0,1-.85-1.5c-1.39-6.7-1.07-13.53-.51-20.19.87-10.34.27-20.72,1.34-31,1.07-2.77,3.34-1.93,5.43-1.84,12.08.52,22.3-3.89,31.49-11.68-1.54-1.27-3.78-.17-4.39-2.28,1.19-6.65,4-12.88,4.07-19.87,0-10.6-.25-21.18-.48-31.76a4.3,4.3,0,0,1,.41-2.88c4.27-6.6,3.65-14.08,2.74-21.12-1.24-9.64-7.9-15.1-17.1-17.56-2.11-1.48-4.6-2.69-4.23-5.93,3.43-1.94,7-.92,10.57-.54,3.85.42,7.47,2.36,11.71,1.86-10.48-10.87-22.45-13.35-29.22-.95C538.47,246,528.38,245.52,518.25,245.19Z"/><path class="cls-20" d="M320.15,446.09c-.33-2.95-.75-5.88-1.12-8.81a26,26,0,0,0-5.22-12.68c-1.2-1.58-2.28-3.25-3.59-4.73-3.47-3.91-4.7-8.61-4.94-13.66a28.29,28.29,0,0,0-.62-5.4,17.82,17.82,0,0,1-.31-5.41,13.72,13.72,0,0,0-2.67-8.84c-1.85-2.73-3.81-5.39-5.85-8a15.22,15.22,0,0,1-2.57-4.75c-1.55-4.71-.87-6.19,4-8.34a4.21,4.21,0,0,1,2.76,2.67c2.64,5.54,5.92,10.73,8.65,16.22,1.67,3.33,3.07,6.7-.88,9.94,3.25.48,4.08-1.6,5.32-3s2.82-2.47,4.78-2c2.17.53,2.44,2.5,2.62,4.34.5,5.14,2.47,9.89,3.88,14.8a80.43,80.43,0,0,1-.87-23.55c.86-9.35,5.28-16.57,11.25-23.23,3.84-4.27,3.77-4.71-1.31-7.47-7.54-4.11-10.67-9.82-9.24-16.85a2.9,2.9,0,0,1,1-1.66,11.88,11.88,0,0,0,2.79.93c2.19.19,3.11-.14,3.14-2.62a8.68,8.68,0,0,1,.42-2.92c1.68-4.51-.18-8.12-3-11.34a100.6,100.6,0,0,0-7.36-7.39,38.57,38.57,0,0,1-7.92-11.3,10.87,10.87,0,0,1-1-5.78c.19-2.73,1.72-4.23,4.42-4.34a14.45,14.45,0,0,1,8.4,2.58c2.77,1.78,5.4,3.8,8,5.83,3.9,3,7.71,6.2,11.59,9.26,8.73,6.87,15.51,15.16,19.72,25.57a55.2,55.2,0,0,1,3.66,14.3c.28,2.28.74,4.55,1.15,6.8a56.19,56.19,0,0,1,0,17.7c-.77,5.9-2,11.66-3.24,17.46a32.36,32.36,0,0,1-1,3.33c-1.75,5.5-3.86,10.87-5.63,16.37-1.41,4.4-2.63,8.84-3.91,13.26a12.87,12.87,0,0,0-.3,5.41c.08.57.66,1.08,1,1.62a2.07,2.07,0,0,1-1.37,1.88c-10.79,5-22.07,8.88-32.81,14A1.85,1.85,0,0,1,320.15,446.09Z"/><path class="cls-20" d="M566.05,622.78c-7.32-2.52-10.41-7.38-9.6-15.09a95.54,95.54,0,0,0,.09-10.84c.19-5.16.06-10.33.06-15.49-.05-1.16-.12-2.32-.16-3.47-.1-2.34-.15-4.89-2.87-5.74-2.94-.91-5,.84-6.76,3a9.93,9.93,0,0,0-1.93,6c-.11,2.47,0,5-.12,7.41-.1,1.46,0,3.27-1.92,3.56-1.49.22-2.26-1.18-2.9-2.34-3-5.32-6.25-10.42-9.55-15.52l-1.18-2.5c-2.15-5.11-5.62-9.34-9.19-13.47-1.7-1.95-3.37-4.19-6.36-4.32-7.66,1.59-10.48,5.53-8.3,11.61.66.69,1.31,1.38,2,2.08a74.22,74.22,0,0,1,6.88,12.53c-1.86-1.91-3.5-3.2-5.66-3.65l-8.13-7c-5.6-1.14-11.47,4.29-12.15,11.26.89,2,2.57,3.41,4,5s3.12,3.43,4.59,5.23c.42.5,1.33,1.06.58,2-3.78-1.14-6.56-3.92-9.95-5.62-6.57,1.24-11.11,6.64-10,11.84a1.55,1.55,0,0,0,.21.45q3.21,3.39,6.44,6.77a.65.65,0,0,1,.19.44c0,.12-.2.22-.51.52-2.44-.72-4.05-3-6.4-4-4,.56-7.77,6.95-6.95,11.9a4.24,4.24,0,0,1,2.25.85c1.53,1.17,3,2.42,4.63,3.47-.44-.14,8.86,6.5,10.72,9.18.06.08.09.16.15.24l.07,0c3.95,3.18,7.72,6.76,12.63,8.57,3.92,1.29,7.72,3,12,3,5-.08,9.92.13,14.88-.65,6.19-1,7.79.32,9.51,6.53,1,3.82,1.58,7.8,3.31,11.42a1.85,1.85,0,0,0,1.43.71c1.11-1.22,2.23-2.44,3.33-3.68l24.79-27.86C570.92,623.75,568,623.43,566.05,622.78Z"/><path class="cls-21" d="M718.35,609.46c-.28-.41-.82-.82-.8-1.21.17-3.13-1.39-5.7-2.41-8.49-2.1-5.73-4.22-11.45-6-17.31-3.66-11.83-6.68-23.84-10.07-35.74-1.77-6.18-3-12.5-4.53-18.75-2.79-11.72-6-23.33-9.41-34.88-2.22-7.43-4.2-14.94-6.55-22.33a150.66,150.66,0,0,0-8-19.76,206.6,206.6,0,0,0-16.87-29.19,89.64,89.64,0,0,0-12.18-14.28,84.91,84.91,0,0,0-11.82-9.78c-.42-.27-.77-.64-1.2-.88-7-3.93-6.58-3-11,1.4-5.87,5.86-11.77,11.68-17.56,17.62-2.88,2.95-5.53,6.13-8.32,9.18a12.36,12.36,0,0,1-1.86,1.6c-.13.09-.55-.22-.83-.35-.77-1.63.23-2.88,1-4.13,8.7-14.68,17.64-29.22,26.53-43.79.85-1.39,1.67-2.89,3.31-3.59,5.68,2.25,11.57,3.94,17.1,6.68,7.79,3.86,14.66,9,21.4,14.38,12.09,9.67,21.4,21.61,28.71,35.17a60.76,60.76,0,0,1,5.4,13.86c5,19.58,9.34,39.3,12.74,59.22q3.82,22.51,6.93,45.14c1.73,12.46,3,25,4.45,37.47.65,5.75,1.18,11.52,1.71,17.29C718.38,605.82,718.31,607.64,718.35,609.46Z"/><path class="cls-20" d="M572.75,298.7c1.36.83,1.29,2.19,1.29,3.51,0,5.13,0,10.25,0,15.38,0,2.3-.25,4.62.7,6.85a3.8,3.8,0,0,1-.09,2.92,9.38,9.38,0,0,0-.6,4.38c.4,6.46-1.82,12.32-4.12,18.16-.25.61-.57,1.19-.85,1.79a3.18,3.18,0,0,1-2.06,2c-9.93,2.89-19.87,3.37-29.79,0-2-1.73-4.69-1.48-7-1.9a34.7,34.7,0,0,1-21.47-12.32,27.66,27.66,0,0,1-4.3-7.19,62.29,62.29,0,0,1-4.19-16.75c-.34-3.22-.44-6.59-1.85-9.65,3.89,1.34,7.81,2.29,11.89.85,4.24.4,8.33,1.63,12.76.91,3.57-.59,4.88-2.14,4.76-5.53-.29-8.93-.82-17.85-1.9-26.72,2.91-4,6.71-2.51,10.38-1.63,3.41.81,4,3.51,4.34,6.46.76,6.12,2.16,12.08,5.57,17.35,5,7.76,13.37,9.37,21.07,4.29C569,300.69,570.27,298.58,572.75,298.7Z"/><path class="cls-22" d="M619.78,374.8c-1.42,3.75-4,6.83-6,10.22-7.89,13.22-15.93,26.36-23.9,39.52-.34.57-.61,1.18-.91,1.77L585.13,432c-.46.67-.89,1.37-1.41,2a1.93,1.93,0,0,1-1.65.89c-.86-.09-.93-.8-1-1.44a2.81,2.81,0,0,0-1-2.16c-3.54-2.8-3.84-7.14-5.11-11-1.44-4.37-2.26-9-5.22-12.73-.32-6.49-3-12.43-4.47-18.63a18,18,0,0,1-.95-5.29c1.09-2,3.12-2.85,4.81-4.09,10.53-7.71,21.11-15.34,31.63-23,2.67-2,5.21-4.06,7.8-6.11.87-.69,1.51,0,2.22.31C613.25,358.92,616.77,366.76,619.78,374.8Z"/><path class="cls-23" d="M482.47,630.36c.08-1.65.15-3.29.25-4.93a.92.92,0,0,1,1.45-.64c1.5,1,3,2.1,4.43,3.17,3.86,2.84,7.42,6.06,11.56,8.5a89.39,89.39,0,0,1,9.32,5.67c3.17,2.15,6.53,4.22,10.56,3.83,10-1,16,4.93,21.18,12.17l.85.58c-.18.28-.33.57-.51.84-2.07,3-2.08,3.57.21,5.91,4.18,4.24,8.86,7.91,13.4,11.73,2.39,2,4.84,3.91,7.15,5.77-.24,1.23-1,1-1.59,1-7.75-.13-15.45-.88-23.17-1.48-4.93-.38-9.9-.5-14.84-.44s-9.52-.87-14.3-1.05a15,15,0,0,1-4.75-1.28,4.49,4.49,0,0,0-2.87-.11,6.83,6.83,0,0,0-2.08-2.69,38,38,0,0,1-11.09-18.38A190.52,190.52,0,0,1,482.47,630.36Z"/><path class="cls-24" d="M320.15,446.09a112.19,112.19,0,0,1,18.41-8.18c2.77-1,5.42-2.35,8.14-3.51,3.15-1.35,6.33-2.66,9.5-4a10.3,10.3,0,0,0,1.47-.14c3.68-.85,5.32.56,6.12,4,1.28,5.44,2.32,10.94,3.47,16.43a7.13,7.13,0,0,1-1.33,1.45c-7.86,4.91-15.36,10.34-22.74,15.95-2.89,2.2-5.65,4.59-8.48,6.87-4.77,3.84-9.56,7.64-15.15,10.27-3.67-9.2-6.15-18.8-9.1-28.24a11.42,11.42,0,0,1-.41-1.93,3.49,3.49,0,0,1,1.7-3.81c2-1.19,4-2.25,6-3.42C318.6,447.3,319.36,446.66,320.15,446.09Z"/><path class="cls-21" d="M508.46,418.43a37.86,37.86,0,0,1-3.12-9.73q-1.56-7.72-3.22-15.44A1.88,1.88,0,0,0,499.4,392a10.49,10.49,0,0,0-1.79.85c-6.82,4.32-13.76,8.38-20,13.66-5.95,5-11.25,10.69-16.86,16-4,3.77-7.21,8.13-10.65,12.35-4.69,5.73-9.21,11.62-14.49,16.88-4.2,4.18-7.71,9-12.13,13.05-1.83,1.66-3.4,3.59-5.62,4.82-.65.36-1.6,1-1.18,1.91s1.45.43,2.21.46c2,.08,4,.1,5.94.14a6.27,6.27,0,0,1-3.34.76c-2,.16-4,.18-5.95.49a52.78,52.78,0,0,0-5.19,1.35c-.7-1,.14-1.58.59-2.13q5.77-7.15,11.61-14.27c8.76-10.65,16.18-22.24,23.47-33.91,6.7-10.73,14.08-20.91,23.57-29.39,5.81-5.19,11.76-10.18,18.86-13.65a44.86,44.86,0,0,1,20.12-4.75c1.16,0,2.32-.05,3.48-.08,1.62,1.16,1.43,2.86,1.29,4.51-.9,10.37-1.63,20.77-2.86,31.12a57.44,57.44,0,0,1-1.5,5.58Z"/><path class="cls-21" d="M685.55,715.89c-1.77.15-3,1.34-4.36,2.25-3,2-6,4.11-9,6.13-1.36.91-2.68,2-4.53,1.57a4,4,0,0,1,1.58-3c3.89-3.6,7.16-7.84,11.64-10.8a17.81,17.81,0,0,0,2.51-2.41c6.58-6.55,13.23-13,19.24-20.1a15.72,15.72,0,0,1,4.09-3.6c4-2.3,5.3-6.09,5.72-10.37q.78-7.87,1.77-15.71c.45-3.58.6-7.22,1.24-10.8,1.23-7,2.22-14,4.08-20.85.91,1.51.64,3.21.68,4.84.18,7.11.17,14.23.48,21.34.46,10.08.38,20.17.4,30.26a33.4,33.4,0,0,1,0,3.47c-.26,2.51-.82,4.62-3.64,5.84-2.37,1-4.34,3-6.48,4.55-7.08,5.18-14.37,10-21.82,14.66A12.56,12.56,0,0,0,685.55,715.89Z"/><path class="cls-25" d="M325.19,335.69c0,1.5,0,3,0,4.48-.09,5.73,2.46,9.8,7.6,12.29a44.53,44.53,0,0,1,4.87,2.48c3.21,2.08,2.57,3.21.62,5a61,61,0,0,0-8.79,10.7,22.8,22.8,0,0,0-3.56,8.09,78.34,78.34,0,0,0-1.62,21.64,53.25,53.25,0,0,0,1.51,8.24,8.62,8.62,0,0,1,.25,3.42c-.07.43-.3.6-.68.49-.15-.05-.36-.08-.43-.18a7.13,7.13,0,0,1-1.05-1.66c-2-5.92-4.65-11.68-4.72-18.11,0-1-.22-2.26-1.32-2.4a3.56,3.56,0,0,0-3.52,1.31c-.66.95-1.1,2-1.76,3a4.53,4.53,0,0,1-5.27,1.77,2.23,2.23,0,0,1-1.82-2.09c-.07-1,.57-1.47,1.46-1.65s1.79-.23,2-1.15a5.21,5.21,0,0,0,.08-2.92,46.12,46.12,0,0,0-3.44-7.15c-3.18-5.07-5.56-10.53-8.37-15.79,0-1.63.06-3.27.08-4.9,2.46-.47,3,1.65,3.94,3.05A93.31,93.31,0,0,1,308.89,377a33.76,33.76,0,0,0,2.06,4c1.06,1.64,2,4,4.35,3.38s1.8-3.29,2-5.13c.37-3.46-1.4-6.45-2.9-9.36a146.68,146.68,0,0,1-6.95-16.46c-.69-1.84-1.6-3.67-1.25-5.75l.09-3c3.48-1.19,3.76,2,4.65,3.76,2.69,5.3,4.44,11.05,7.62,16.14,2.64,4.22,2.87,4.15,6,.16,2.65-3.33,3-6.14.21-9.69-3.75-4.8-4.41-10.61-3.74-16.54.26-2.35,1-4.43,4.12-2.8Z"/><path class="cls-26" d="M537.33,365.65q-.57,25.92-1.15,51.83c0,.66.07,1.31.11,2l.27.46-.34.4c-1.68-.75-2.25-2.37-2.92-3.86a3.18,3.18,0,0,0-3-2.09c-3.15-12.71-8.51-24.62-13.38-36.69-1.24-3.07-2.31-6.18-3.47-9.26,0-.66-.06-1.36.66-1.68a10.67,10.67,0,0,1,2.3-.81c6.61-1.2,13.21-2.36,19.82-3.53C538.33,362.86,538,364.19,537.33,365.65Z"/><path class="cls-24" d="M513.4,368.41a6.17,6.17,0,0,1,2.32,3.13c3.81,9.12,7.72,18.2,10.93,27.56,1.17,3.43,2.54,6.8,4,10.12a4.9,4.9,0,0,1-.39,5.14l-15.94,7c-.61.27-1.2.59-1.82.8-2.46.83-3.33.21-3.91-2.72-.06-.32-.08-.65-.12-1l0,0c.93-1.55.08-3.32.62-4.91.35-3.44.72-6.88,1-10.32q1.08-12.54,2.09-25.1a9,9,0,0,0-.07-1.47Z"/><path class="cls-20" d="M325.19,335.7c-2.78.53-2.9.57-3,2.36-.19,5-.33,9.95,2.39,14.44a24.93,24.93,0,0,0,2.23,3.25,12.38,12.38,0,0,1,2,3.38,2.36,2.36,0,0,1-.28,2.36c-1.71,2.42-3.42,4.84-5.18,7.23a5.92,5.92,0,0,1-1.47,1.3,1.45,1.45,0,0,1-1.8-.25,1.49,1.49,0,0,1-.35-.36c-1.78-3.16-3.7-6.25-5.28-9.51-1.5-3.11-2.6-6.41-4-9.59-.65-1.52-1.5-2.95-2.24-4.43a2.32,2.32,0,0,0-2-1.21,2.76,2.76,0,0,1-.92-3.14c1.13-4.52,3.34-8.18,8-10,4.22-1.66,7.76-.81,10.74,2.54A16.64,16.64,0,0,1,325.19,335.7Z"/><path class="cls-27" d="M609.82,347.67c-1-.87-.92-2.05-.92-3.21v-8.77c-.67,0-1.13-.13-1.27,0-3.52,4-8.31,5.94-13,8-5.26,2.36-10.68,4.37-16,6.5a.83.83,0,0,1-1.14-.56,1.2,1.2,0,0,1,.2-.91c.68-1,1.86-1.34,2.86-1.88,3.79-2,7.63-3.92,11.37-6a30,30,0,0,0,8.91-7.76c2.51-3.19,5.1-6.45,6.32-10.55a82.33,82.33,0,0,1,3.47-8.19,3.67,3.67,0,0,1,3.83-2.53c1.16.05,2.33-.12,3.47,0,4,.51,7.47-1,10.75-3a9.41,9.41,0,0,0,3-2.53c3.39-5.08,6.66-10.14,6.18-16.81a92.56,92.56,0,0,0-1.16-10.77c-.42-2.19-1.89-3.82-3.21-5.48-.73-.91-1.61-1.68-1.69-2.94l.79-.55a11.49,11.49,0,0,0,3.22,3.74,28.15,28.15,0,0,1,4.54,5.86,7,7,0,0,1,1.26,3.2c.37,6.79.5,13.54-3,19.78a24.83,24.83,0,0,1-8.49,8.82,31.65,31.65,0,0,1-10,4.12c-2.62.61-5.19.35-8.06.25,0,2-.18,3.82-.14,5.61a16.91,16.91,0,0,1-1.08,7.29,13.94,13.94,0,0,0-.93,5.82C609.91,338.72,609.84,343.19,609.82,347.67Z"/><path class="cls-20" d="M306.2,347.63c2.09,2.83,2.69,6.31,3.94,9.48s2.54,6.43,4.12,9.52c.75,1.47,1.51,2.94,2.18,4.44,2.75,6.14,2.76,6.32,1.7,12.73a3,3,0,0,1-4.86,2,9,9,0,0,1-3-3.27c-.68-1.32-1.41-2.62-2-4-2.54-5.95-6.31-11.19-9.48-16.77-.3-.53-1-.82-1.52-1.22-.42-4.93,1.52-8.76,5.32-11.81A5.16,5.16,0,0,1,306.2,347.63Z"/><path class="cls-28" d="M537.33,365.65c-.29-1.11-.08-2.41-1.15-3.26a4.91,4.91,0,0,0,1-3.06c0-1.89,0-3.78.07-5.66a41.46,41.46,0,0,1,10.37.54,13.61,13.61,0,0,0,2.46.26,58.73,58.73,0,0,0,19-2.78c1.87.23,3.58-.5,5.35-.85a.91.91,0,0,1,1.12.69,1.22,1.22,0,0,1-.13.92,32.43,32.43,0,0,1-8.27,7.05c-5.63,3.68-12.1,5.35-18.54,6.83a16.76,16.76,0,0,1-8.37-.24A22,22,0,0,0,537.33,365.65Z"/><path class="cls-29" d="M477.45,603.48c-.46.15-1.18.17-1.32.47a61.73,61.73,0,0,1-4.51,7.32,7.07,7.07,0,0,0-1.12,4.11h0c-.87-1.12-1.42-2-2.1-2.79a80.53,80.53,0,0,1-7.69-10.84,14.56,14.56,0,0,1-2.52-7.88c0-2.8,1.77-4.24,4.49-3.71a6.72,6.72,0,0,1,3.12,1.4,12.88,12.88,0,0,1,2.13,2A72.31,72.31,0,0,0,477.45,603.48Z"/><path class="cls-18" d="M497.45,188.48a2.29,2.29,0,0,0,1.69.78c1.44,0,2.89,0,4.33,0s2.46.53,2.09,1.11a2.06,2.06,0,0,1-2.54.79,3.1,3.1,0,0,0-2.73-.88c-8,.34-15.32,2.48-21.54,7.77a66.3,66.3,0,0,0-7.7,7.75,20.81,20.81,0,0,0-4.67,9.75,23.51,23.51,0,0,1-1.33,4.68A17.22,17.22,0,0,1,467.48,208c6.51-10.8,15.92-17.54,28.5-19.6A6.68,6.68,0,0,1,497.45,188.48Z"/><path class="cls-18" d="M507.43,184.31c-1.24.61-2.88-.44-3.95.94-4,0-7.91-.37-12.52.31C495.41,182.76,502,182.41,507.43,184.31Z"/><path class="cls-21" d="M686.22,719.27a1.17,1.17,0,0,1-.33-1.68A1.21,1.21,0,0,1,686.22,719.27Z"/><path class="cls-30" d="M555.2,597.51c-.53-3.76-.2-7.52-.08-11.28.06-1.8.11-3.6.16-5.4.64-5.43.25-10.87.35-16.31a9.78,9.78,0,0,0-.7-3.39c-1-2.76-2.24-5.44-5.63-5.45-3.62,0-4.42,3-5.09,5.76-1.37,5.68,0,11.6-1.5,17.27-.64,2.46-.08,6.08-3.12,6.64-2.67.5-3.73-2.86-5.13-4.79-1-1.39-2.53-2.72-2.19-4.8a1.68,1.68,0,0,0,.56-1.77c-2.42-8.57-4.88-17.12-7.25-25.7-3.47-12.56-6.86-25.13-10.33-37.68-2.56-9.22-5.2-18.41-7.82-27.61-.22-.79-.47-1.58-.74-2.36a2.13,2.13,0,0,1,1.23-2.85A80.37,80.37,0,0,0,519.39,470c8.72-6.82,17.36-13.72,26.08-20.53a122.28,122.28,0,0,1,10-7.33c4.79-3,8.88-6.86,13.29-10.33a4,4,0,0,0,1.35-3.54c2.37,4,3.31,8.56,4.71,12.92,2.27,7.06,4.16,14.25,6.2,21.38q6.06,21.17,12.12,42.32,4.5,15.71,9.07,31.37,1.78,6.18,3.55,12.35a3.5,3.5,0,0,0,1.14,2.13c2.77,4.28.34,7.25-2.75,9.72-13.25,10.6-25.66,22.22-39.43,32.18-1.74,1.26-3.21,2.86-5.06,4C558.3,597.39,557,598.81,555.2,597.51Z"/><path class="cls-23" d="M555.2,597.51c2.17-.1,3.64-1.67,5.09-2.88,4.05-3.38,8.58-6.16,12.51-9.64,5.05-4.48,10.8-8.13,15.45-13.1a25.65,25.65,0,0,1,2.65-2.21c4.35-3.52,8.63-7.14,13.08-10.52,3-2.24,3.13-5.2,2.9-8.42l7.65-2c3.84-1,5.23-2.69,5.29-6.58a26,26,0,0,1,.85-7.84,12.72,12.72,0,0,0,.16-3.45c0-2.31-.11-4.6.71-6.87a13.15,13.15,0,0,0,.28-3.94c.08-2.8-.25-5.62.81-8.34a7.2,7.2,0,0,0,.18-2.47,37.24,37.24,0,0,1,.81-8.84c.57-2.19.21-4.61.33-6.92a.89.89,0,0,1,.95-.9,1.05,1.05,0,0,1,.78.46,8.83,8.83,0,0,1,1,2.74c.85,8.51,2.65,16.88,3.8,25.34.75,5.53,2,11,2.4,16.59.16,2.42.77,4.86,1.12,7.31.5,3.57,1.14,7.13,1.72,10.69.91,5.51,1.79,11,2.73,16.53.44,2.59.57,5.21,1,7.82,1.37,7.43,2.16,15,3.25,22.44.41,2.76,1,5.5,1.56,8.23s.21,5.59,1.16,8.3c.21.58-.52,1.5-.81,2.26a1.46,1.46,0,0,1-1.07.46c-.81-.08-1.61-.23-2.41-.29a12.12,12.12,0,0,1-2.46-.39,13.8,13.8,0,0,0-2.47-.47,18.46,18.46,0,0,1-3.22-.43,20.24,20.24,0,0,0-2.54-.57,17.44,17.44,0,0,1-2.58-.46,15,15,0,0,0-2.57-.51,20.47,20.47,0,0,1-3.29-.44,16.07,16.07,0,0,0-2.59-.53,23.12,23.12,0,0,1-3.31-.46c-.65-.15-1.3-.32-2-.46-1.11-.19-2.24-.31-3.35-.57a13.27,13.27,0,0,0-2.74-.44,22.68,22.68,0,0,1-2.46-.21c-7.49-1.06-7.48-1.06-10.55,5.86-.72,1.63-1.22,3.47-3.26,4.06l-13.75-3.93a3.37,3.37,0,0,0-3.61.94c-1.45,1.55-2.88,3.12-4.32,4.68a2.74,2.74,0,0,0-1.93-2c-2-.79-4-1.57-5.87-2.5a28.2,28.2,0,0,1-4.2-2.5,6.59,6.59,0,0,1-2.86-5.46C555.25,609,555.24,603.24,555.2,597.51Z"/><path class="cls-31" d="M627.79,618.35l3,.09c.54.6,1.43.38,2,.89l4,.14c.56.55,1.45.34,2,.87l3,.11c.55.57,1.43.36,2,.85a5.35,5.35,0,0,0,1,0l65.85,12c.28,1.55-.67,2.15-1.39,2.73-2.8,2.3-5.63,4.57-8.55,6.72a11,11,0,0,1-10.28,2,5.26,5.26,0,0,0-1.93-.38c-5.16.44-10.19-.77-15.28-1.12-4.42-.32-8.8-1.14-13.2-1.68-3.1-.38-6.2-.64-9.31-1.12-6.51-1-12.94-2.35-19.42-3.48l-15.05-2.65c-4.86-.86-9.69-1.88-14.57-2.54-3.59-.49-7.1-1.58-10.76-1.49.36-1.6.71-3.2,1.06-4.81,1.36-3.16,2.83-6.29,4-9.52a3.34,3.34,0,0,1,3.69-2.52,16.57,16.57,0,0,1,3.89.41,19.62,19.62,0,0,0,5.37.63c.55.57,1.43.36,2,.86l3.95.14c.34.29.69.58,1,.85l4,.13c.55.58,1.43.37,2,.87l3.95.14C626.33,618,627.22,617.82,627.79,618.35Z"/><path class="cls-32" d="M561.85,431.37c-1.27,2.05-3.31,3.23-5.22,4.51-13.8,9.25-26.53,19.9-39.75,29.91-3.84,2.9-7.73,5.7-11.78,8.31-2.37,1.53-4.68,2.38-7.45,1.88.85-7.93,4.47-14.42,10.06-20A128.92,128.92,0,0,1,536,435.06c4-2.26,8.22-4.29,12.3-6.48a6.2,6.2,0,0,1,5.25-.36A52.37,52.37,0,0,1,561.85,431.37Z"/><path class="cls-24" d="M564.34,383.61a7.85,7.85,0,0,1,1.77,3.45q2.34,8,4.73,16a4.08,4.08,0,0,1-.85,4.13c-.79,1.78-2.58,2.13-4.09,2.89a3.86,3.86,0,0,1-1.26.24l-.64,0c-4.39,1.92-8.8,3.79-13.16,5.78a80.12,80.12,0,0,1-11.61,4.31c-1,.29-1.31-.22-1.23-1.13,4.94-7,9.82-14,15.14-20.65C557,393.72,560.61,388.61,564.34,383.61Z"/><path class="cls-33" d="M565,409.59l5-2.41a3,3,0,0,1,2.94,2.16c.77,2.5,1.66,5,2.36,7.5a121.1,121.1,0,0,0,4.8,14.41c-.18.75-.18,1.78-1.43,1.05a2.27,2.27,0,0,1-.7-.68c-4.84-7-10-13.79-14-21.33v0C564.34,410.09,564.67,409.84,565,409.59Z"/><path class="cls-26" d="M538,419.25l1.23,1.13c-1,1.15-2,1.12-3-.07v0a4.88,4.88,0,0,1,.7-.66Z"/><path class="cls-20" d="M518.25,245.19c.18-.79.29-1.82,1.38-1.65,5.77.87,11.68.86,17.34,2.54,1.71.51,3.42,1,5.16,1.48,2.18.54,3.92,1.49,4.54,3.86.05.2.54.29.83.43a5.38,5.38,0,0,1,6.63.12c.78,2.15,3.18,3,4,5.16-.7,2-2.47,2.56-4.17,3.18a19.83,19.83,0,0,0-11.34,9.84c-1.71,3.39-4.07,4.58-7.67,3.24a8.93,8.93,0,0,0-5.39-.3c-4.19,1.19-6.14-.27-7.77-4.26-3.38-8.22-8.77-10.89-18.81-10.31-5.34.3-5.4.23-4.66-5.43a3.44,3.44,0,0,1,2.25-.85c6.57-.44,13.14-.84,19.66.53a16.69,16.69,0,0,0,2.45.27,1.87,1.87,0,0,0,1.94-1.21,2,2,0,0,0-.48-2.26,23.17,23.17,0,0,0-2.65-2.19C520.44,246.61,519.33,245.92,518.25,245.19Z"/><path class="cls-20" d="M510.36,304.94c-1.29.1-2.58.26-3.87.27-3.46,0-6.75-.52-9.35-3.11-.41-11.48-1.16-22.93-3.78-34.16.15-.27.28-.76.44-.77,2.47-.07,3.92-1.19,4.05-3.76.09-1.68,1.5-2.38,2.54-3.35,4.65-3.28,11.67-2.61,16.66,1.85,4.75,4.25,7,9.77,7.34,16.08-.34,1.37-.91,2.51-2.59,2.44-2.5-.95-3.53-5.81-7.16-3.35-3.18,2.16-2,5.93-1.8,9.13a11.53,11.53,0,0,0,2.48,5.8C517.21,296.22,514.94,302.12,510.36,304.94Z"/><path class="cls-34" d="M523.55,277.77a34,34,0,0,0-2.39-8.53c-3-6.74-9.2-10.7-16-10.15a39.61,39.61,0,0,0-4.8,1c-.39-.29-.73-.74-1.16-.85a2.2,2.2,0,0,1-1.83-2.5c.05-1.27-.34-2.66.93-3.62.32,1.6-.33,3.32.72,5.07,5.49-2,10.92-2,16.16,1,5.08,2.93,7.69,7.59,9.3,12.88,1,.92,2,.32,2.89.16a22.89,22.89,0,0,1,10.81.74,1.66,1.66,0,0,0,2.3-1.2,27.43,27.43,0,0,1,1.16-2.74,15.67,15.67,0,0,1,7-7.47c3.09-1.57,6.28-2.94,9.43-4.4,9.46.77,17.67,8.9,18.89,18.75.22,1.81.3,3.64.39,5.46.3,6.28-.78,12.2-4.67,17.36-1.21,1.12-2.37,2.29-3.63,3.35-7.55,6.33-17,5.37-23.09-2.35-3.39-4.27-4.76-9.36-5.93-14.53a26.13,26.13,0,0,1-.63-7.38,2.31,2.31,0,0,0-1.83-2.57c-3.86-1.12-7.74-1.78-11.61,0C525.78,276.6,525.64,278.12,523.55,277.77Z"/><path class="cls-28" d="M523.55,277.77c1.33-.38,1.45-1.92,2.49-2.58,1.06,1.24,2.14,2.35,2.2,4.24.23,7.75.66,15.49.93,23.23.18,5.09.14,6.5-5.92,6.39-2.93-.05-5.81.69-8.83.05a7.21,7.21,0,0,1-4.11-2.39c0-.59,0-1.18.05-1.77,2.3-2.79,3.28-6.3,5.06-9.37.7-1.21-.49-1.71-.78-2.55,2.92-4,3.63-9.17,7-12.92C522.89,279.84,523.27,278.85,523.55,277.77Z"/><path class="cls-30" d="M529.21,571.78c-3-2.88-5.07-6.51-7.65-9.73a48.88,48.88,0,0,0-5.32-5.9,16.26,16.26,0,0,0-2-1.37c-5.05-2.7-10.44-4.93-13.78-10-.17-1.79-.32-3.58-.51-5.64,2.57-.46,5.14-1,7.73-1.34a11.07,11.07,0,0,0,4.23-1.32,2.08,2.08,0,0,0,1.23-2.44,1.79,1.79,0,0,0-1.94-1.22,28.2,28.2,0,0,0-6.91.48c-5.53,1.3-6.25.79-7.67-4.57q-1.35-5-2.68-10.07c-.5-1.91-.22-2.42,1.61-2.76,3.73-.69,7.47-1.37,11.21-2a4.39,4.39,0,0,0,2.87-1.77,1.86,1.86,0,0,0-.82-2.86,7.61,7.61,0,0,0-3.93-.19c-2.77.47-5.5,1.1-8.26,1.57a17.39,17.39,0,0,1-3.46.18,1.44,1.44,0,0,1-1.46-1.13c-.43-2.41-1.76-4.62-1.7-7.31,3.52-.49,6.92-1.06,10.35-1.42a10.06,10.06,0,0,0,4.69-1.4,2,2,0,0,0,.19-3.35,4.32,4.32,0,0,0-4.16-1c-2.59.52-5.17,1-7.77,1.49a24.42,24.42,0,0,1-3,.19,2.51,2.51,0,0,1-3-2c-1-3.65-2.25-7.26-3.32-10.9-.41-1.41.06-2.1,1.54-2.5a11.81,11.81,0,0,1,2.43-.44c4.94-.31,9.93.3,14.85-.82a2,2,0,0,1,2.27,1.57c.54,1.72.84,3.52,1.32,5.28q4.07,15.06,8.19,30.11c2.18,8,4.42,15.91,6.62,23.87,2.11,7.64,4.18,15.29,6.3,22.93C528.22,566.62,529.14,569.1,529.21,571.78Z"/><path class="cls-35" d="M500.41,569.6c-4.07-.05-6.47,2.62-8.64,5.48a60.06,60.06,0,0,0-3.51,5.78,167.85,167.85,0,0,1-14.15-17.75,31.52,31.52,0,0,1-3.33-6.61,9.32,9.32,0,0,1-.43-5.35,4.58,4.58,0,0,1,5.91-3.72,11.33,11.33,0,0,1,3.15,1.37,22.54,22.54,0,0,1,3.53,2.69C489.07,557.22,494.79,563.37,500.41,569.6Z"/><path class="cls-36" d="M532.27,575.76q3.48,4.49,7,9c.08.09.31.07.78.16a61.76,61.76,0,0,0,2.06-12.46c.22-2.47.1-5,.3-7.45a32,32,0,0,1,1-6.35c1.5-5.09,6.73-6.32,10.54-2.63a7.68,7.68,0,0,1,2.08,3.33,17.43,17.43,0,0,1,.93,3.85,57,57,0,0,1-1.62,17.65c-.06-1.81-.06-3.64-.21-5.45-.2-2.23-1.81-3.1-3.91-2.23a7.33,7.33,0,0,0-4.93,6.83c-.13,3-.05,6-.06,9a8.09,8.09,0,0,1-.66,3.87,2.82,2.82,0,0,1-4.16,1.18,7.27,7.27,0,0,1-2.23-2.62c-2.22-3.87-4.58-7.67-6.73-11.57-.94-1.71-2.24-3.35-2-5.51Z"/><path class="cls-36" d="M487.47,587.51A43.35,43.35,0,0,0,479.4,594a6.08,6.08,0,0,0-1.88,5.35c-1.57-1.05-2.38-2.71-3.28-4.26-2.82-4.85-5.61-9.71-8.27-14.64a54.07,54.07,0,0,1-2.7-6.37,8.67,8.67,0,0,1-.56-2.88c-.06-3.53,2.64-5.47,6-4.35a8.71,8.71,0,0,1,3.69,2.42,44.69,44.69,0,0,1,3.48,4.17A103.78,103.78,0,0,0,487.47,587.51Z"/><path class="cls-36" d="M500.41,544.79c4,2.78,8,5.55,12,8.35a17,17,0,0,1,1.76,1.64,5.23,5.23,0,0,1-1.81.73,6.39,6.39,0,0,0-5,2.71,8.07,8.07,0,0,0-2,5.9c0,.49,0,1,0,1.48-2.31-1-4.1-2.7-6-4.24-4.08-3.32-8.34-6.43-12.09-10.15a10.38,10.38,0,0,1-3.1-5c-.78-3.27.95-5.57,4.25-5.6a17.26,17.26,0,0,1,7.57,2C497.47,543.33,498.94,544.07,500.41,544.79Z"/><path class="cls-37" d="M507.32,567.68a9,9,0,0,1,1.6,1.08c2.62,2.65,5.73,8.75,6.89,13.6-3-1.53-5.08-3.71-7.27-5.81.85-.8.68-1.71.39-2.71C508.36,571.79,507.28,569.88,507.32,567.68Z"/><path class="cls-38" d="M554.13,252c-2.2-.57-4.42.07-6.63-.12a3,3,0,0,1,.47-3.62c4.08-4.38,10.59-7.94,18.32-4,3.8,2,7.34,4.4,11,6.67a5.56,5.56,0,0,1,1.4,1.38,2.07,2.07,0,0,1,.39,1.85c-.22.83-.91.83-1.55.89a14.41,14.41,0,0,1-4.87-.66,76.1,76.1,0,0,0-15.57-2.62A26,26,0,0,0,554.13,252Z"/><path class="cls-17" d="M536.91,419.67l-.7.66a3.7,3.7,0,0,1,.08-.88A.68.68,0,0,1,536.91,419.67Z"/><path class="cls-19" d="M541.22,658.13c-3-2.54-6.16-5-9.08-7.65-2.48-2.26-5.22-3.51-8.57-3-5.82.86-10.76-1.11-15.25-4.56-2.75-2.11-5.86-3.76-8.15-6.44,1.39-.23,2.6.47,3.78.94a28.89,28.89,0,0,0,12.54,1.94c3.76-.2,7.55.36,11.26-.86a12.52,12.52,0,0,1,3.93-.15c3.56,0,5.36,1.37,6.35,4.94.86,3.15,1.45,6.38,2.27,9.56C540.75,654.58,541.4,656.27,541.22,658.13Z"/><path class="cls-17" d="M509,413.49c.19,1.69.54,3.39-.62,4.91C508.44,416.74,507.87,415,509,413.49Z"/><path class="cls-17" d="M610.86,615.34a2,2,0,0,1-2-.86A2,2,0,0,1,610.86,615.34Z"/><path class="cls-17" d="M621.82,617.33a2,2,0,0,1-2-.87A2.06,2.06,0,0,1,621.82,617.33Z"/><path class="cls-17" d="M627.79,618.35a2,2,0,0,1-2-.88A2,2,0,0,1,627.79,618.35Z"/><path class="cls-17" d="M638.74,620.34a2,2,0,0,1-2-.87A2,2,0,0,1,638.74,620.34Z"/><path class="cls-17" d="M643.72,621.3a2,2,0,0,1-2-.85A2,2,0,0,1,643.72,621.3Z"/><path class="cls-17" d="M632.77,619.33a2,2,0,0,1-2-.89A2.07,2.07,0,0,1,632.77,619.33Z"/><path class="cls-17" d="M615.85,616.33l-1-.85Z"/><path class="cls-17" d="M565,409.59l-1,.73A1,1,0,0,1,565,409.59Z"/><path class="cls-39" d="M521.62,280.1c-.76,4.36-3,8.09-4.91,12-.41.86-1.29.83-2.08.92a9.15,9.15,0,0,1-2.83-5.56,25.74,25.74,0,0,1-.12-9.26c.27-1.44.86-2.87,2.55-3.3a5.06,5.06,0,0,1,5.4,1.31A9.68,9.68,0,0,1,521.62,280.1Z"/><path class="cls-20" d="M575.09,282.48c-.08,1.66-.07,3.32-.27,5-.82,7-4.7,11.89-10.76,15.13-4,2.12-8,1.8-11.84-.44a15.27,15.27,0,0,1-6.09-6.4c-3-6-4.8-12.33-4.15-19.16.59-6.24,3.36-11,9.15-13.76,1.65-.78,3.26-1.65,5-2.3a9.3,9.3,0,0,1,9.33,1.36C572.61,267,575.4,273.94,575.09,282.48Z"/><path class="cls-40" d="M558.28,283a13.16,13.16,0,0,1,1-6.29c.82-2,2.09-2.69,4.27-2.7a3.74,3.74,0,0,1,3.85,2.55,14.84,14.84,0,0,1-1.07,12.87,5.37,5.37,0,0,1-1,1.11c-2,1.84-4.5,1.53-5.83-.85a13.31,13.31,0,0,1-1.24-3.73A15.38,15.38,0,0,1,558.28,283Z"/><path class="cls-41" d="M519.38,319.91s6,3.93,17.37,0c0,0-2.4,8.63-8.68,8.63S520.26,323.62,519.38,319.91Z"/><path class="cls-41" d="M401.29,482.06s.87-5.56,12-8.12,41.22-7.48,55-7.35,26,9.81,26,9.81Z"/></g><path class="cls-42" d="M94.21,596.89c-3.17,8.56-4.48,17.44-5.56,26.42-.26,2.17-.05,4.51-.64,6.64a9.82,9.82,0,0,1,4,6.31c3.6,3.19,4.18,2.82,9.27-.26a8.34,8.34,0,0,0,2.66-2.66c.64-1.59,2.07-2.48,3.22-3.62a61.64,61.64,0,0,0,5.49-6.26c2-2.22,3.67-4.72,5.61-7,1.57-2.5,3.87-4.49,4.93-7.33.59-2.89,1.68-5.39,4.78-6.41a1.57,1.57,0,0,0,.51-1.17c-1.67-1.33-5.11,1.3-5.69-2.62-.73-5.07-4.67-7.7-8.68-9.44C106.89,586.36,98,586.73,94.21,596.89Z"/><path class="cls-42" d="M145.4,632.09c-.42,2.07-.69,3.64.87,5.9,3.79,5.51,3.56,11.8.52,17.72-2.79,5.46-7.7,7.72-13.55,6.82a99.33,99.33,0,0,1-32.26-11,13.39,13.39,0,0,1-2.33-3c-3.79-6.3-3.48-7.49,3-11.19a10.77,10.77,0,0,1,3.82-1c1.72.06,3.21-.82,4.81-1.25l8.18-1.76a89.23,89.23,0,0,0,8.86-1.55c3-.17,5.9-1.14,8.93-.93A27.7,27.7,0,0,0,145.4,632.09Z"/><path class="cls-18" d="M103.17,637.66c-6.61,4.14-6.62,4.14-2.88,11.19a3.54,3.54,0,0,1,.69,2.64c-2,1.09-4.31,2.22-6.35,1.75-5.89-1.33-9.07,1.55-11.55,6.22a2.19,2.19,0,0,1-2.51,1.3c-.51-4.49,7.27-6.16,3.11-12.87-4-6.47-8.86-1-12.93-3.47,1.58-2.22,4-1.76,5.89-1.9,3.3-.24,5.65-1,6.43-4.74.32-1.59,1.83-2.94,2.8-4.39,1.67-.15,2.77-3.9,5-.66,1.36,2,1.63,5.55,4.42,5.44,2-.08,4-2.3,6-3.57A2.79,2.79,0,0,1,103.17,637.66Z"/><path class="cls-43" d="M145.4,632.09c-3.18,2.84-6.13.55-9.15-.39a7,7,0,0,1-3.26-2.63q-5-8-9.57-16.28a7.81,7.81,0,0,1-.79-4.12c.36-3.21.39-6.7,5.12-6.42a5.88,5.88,0,0,1,3.25,2.69q7,11.43,13.59,23.11a10.52,10.52,0,0,1,.9,3.21C145.47,631.54,145.43,631.82,145.4,632.09Z"/><path class="cls-44" d="M151.92,615c-.52,3.79-1.2,7.54-3.12,10.93-1.91,0-2.83-1.36-3.67-2.69q-5.2-8.33-9.95-16.93c-.75-1.37-1.54-2.86-.56-4.51a17,17,0,0,1,10.47,2.63C150.15,606.11,151.55,610.2,151.92,615Z"/><path class="cls-18" d="M134.62,601.75l14.18,24.14a12.77,12.77,0,0,1-3.31,5.37c-4.19-4.2-6.23-9.78-9.34-14.68-3-4.68-5.61-9.55-8.4-14.33l.75-.69Z"/><path class="cls-18" d="M151.92,615c-1.87-3.78-3.36-7.82-6.83-10.57L164,600.64C159.6,605.87,155.76,610.41,151.92,615Z"/><path class="cls-18" d="M122.63,608.67l13.62,23a30.67,30.67,0,0,1-8.6.74,27.39,27.39,0,0,1-9.76-16.63Z"/><path class="cls-45" d="M117.89,615.81q4.88,8.31,9.76,16.63c-3,1.28-6.15,1.49-9.27,2A18.82,18.82,0,0,1,111.65,623C113.6,620.49,115.36,617.81,117.89,615.81Z"/><path class="cls-18" d="M111.65,623a49.6,49.6,0,0,1,6.73,11.49l-7.73,1.36a6.81,6.81,0,0,1-4-6.71Z"/><path class="cls-46" d="M103.17,637.66c-.62-1-1.24-2-1.85-3.06.68-.71,1.88-1,1.85-2.3,1-1.28,2.21-2.62,3.8-1.49a5.7,5.7,0,0,1,2.29,3.93c.14,1.91-1.66,2.32-3.22,2.6Z"/><path class="cls-47" d="M106,637.34c1.86-1.05,3.48-2,1.81-4.66-1.57-2.46-3-1.31-4.68-.38.15-2.16,2.25-2.19,3.47-3.17,1.34,2.24,2.67,4.48,4,6.71C109.14,636.43,108,638.18,106,637.34Z"/><path class="cls-42" d="M177.62,39.23c-7.45-2-15-2.45-22.66-2.67-1.85-.06-3.8.3-5.63,0a8.32,8.32,0,0,1-5,3.87c-2.4,3.26-2.05,3.73.93,7.78a7.25,7.25,0,0,0,2.44,2c1.39.42,2.25,1.56,3.3,2.44a51.55,51.55,0,0,0,5.68,4.14c2,1.51,4.25,2.73,6.31,4.19,2.22,1.13,4.08,2.91,6.54,3.6,2.48.27,4.67,1,5.76,3.53a1.36,1.36,0,0,0,1,.34c1-1.51-1.49-4.21,1.77-5,4.21-1,6.12-4.52,7.28-8C187.45,49.1,186.46,41.63,177.62,39.23Z"/><path class="cls-42" d="M151.89,85c-1.77-.19-3.12-.3-4.9,1.18-4.35,3.61-9.65,3.9-14.87,1.79-4.81-1.94-7.08-5.89-6.77-10.89a84,84,0,0,1,6.83-28,11.52,11.52,0,0,1,2.37-2.2c5-3.66,6-3.49,9.64,1.65a9,9,0,0,1,1.11,3.14c.08,1.46.93,2.65,1.42,4q1,3.38,2.1,6.74a74.26,74.26,0,0,0,2,7.34c.37,2.51,1.4,4.88,1.46,7.45A23.36,23.36,0,0,0,151.89,85Z"/><path class="cls-18" d="M144,49.87c-4-5.26-4-5.26-9.63-1.58a3,3,0,0,1-2.17.79c-1.06-1.6-2.19-3.46-2-5.22.68-5-2-7.51-6.1-9.25a1.84,1.84,0,0,1-1.29-2c3.74-.78,5.74,5.64,11.06,1.63,5.14-3.88.14-7.53,1.94-11.14,2,1.16,1.79,3.23,2,4.81.45,2.76,1.27,4.68,4.48,5.05,1.36.15,2.61,1.32,3.91,2,.25,1.4,3.49,2,.93,4.17-1.55,1.29-4.54,1.79-4.24,4.13.23,1.72,2.24,3.2,3.46,4.8A2.37,2.37,0,0,1,144,49.87Z"/><path class="cls-48" d="M151.89,85c-2.63-2.46-.93-5.12-.37-7.73a5.82,5.82,0,0,1,2-2.94q6.34-4.84,13-9.3a6.58,6.58,0,0,1,3.41-1c2.73.06,5.66-.19,5.79,3.82a5,5,0,0,1-2,2.94Q164.55,77.55,155.23,84a8.76,8.76,0,0,1-2.63,1Z"/><path class="cls-49" d="M166.81,89.17a25.42,25.42,0,0,1-9.44-1.8c-.18-1.6.93-2.49,2-3.29q6.6-5,13.49-9.66c1.09-.74,2.29-1.52,3.75-.82a14.41,14.41,0,0,1-1.41,9C174.11,87,170.78,88.49,166.81,89.17Z"/><path class="cls-18" d="M176.6,73.6,157.37,87.37A10.65,10.65,0,0,1,152.6,85c3.21-3.85,7.75-6,11.64-9,3.71-2.85,7.61-5.45,11.42-8.16l.64.58C176.39,70.16,176.5,71.88,176.6,73.6Z"/><path class="cls-18" d="M166.81,89.17c3-1.87,6.32-3.43,8.38-6.56,1.44,4.94,2.9,9.89,4.58,15.64Z"/><path class="cls-18" d="M169.87,64,151.52,77.25a25.37,25.37,0,0,1-1.27-7.18,23.11,23.11,0,0,1,13.25-9.48Z"/><path class="cls-50" d="M163.5,60.59l-13.25,9.48c-1.31-2.39-1.73-5.06-2.43-7.65A16,16,0,0,1,157,55.88C159.23,57.34,161.62,58.61,163.5,60.59Z"/><path class="cls-18" d="M157,55.88a41.42,41.42,0,0,1-9.16,6.54L146.08,56a5.77,5.77,0,0,1,5.35-3.88Z"/><path class="cls-51" d="M144,49.87l2.44-1.79c.65.51,1,1.51,2.08,1.38,1.15.72,2.37,1.66,1.54,3.08a4.8,4.8,0,0,1-3.13,2.23c-1.6.26-2.08-1.22-2.43-2.51C144.31,51.46,144.15,50.66,144,49.87Z"/><path class="cls-52" d="M144.48,52.26c1,1.48,2,2.78,4.05,1.16s.88-2.65,0-4c1.83,0,2,1.72,2.94,2.68L146.08,56C145.47,54.8,143.92,54,144.48,52.26Z"/><path class="cls-14" d="M675.79,77.62H549.54a13.3,13.3,0,0,0-13.31,13.3v70.41l20.16-20.15h119.4a13.3,13.3,0,0,0,13.3-13.3v-37A13.29,13.29,0,0,0,675.79,77.62Z"/><path class="cls-53" d="M568.53,119.48a5.7,5.7,0,1,1-5.7-5.71A5.7,5.7,0,0,1,568.53,119.48Z"/><path class="cls-53" d="M589.39,119.48a5.7,5.7,0,1,1-5.7-5.71A5.7,5.7,0,0,1,589.39,119.48Z"/><path class="cls-53" d="M610.26,119.48a5.7,5.7,0,1,1-5.7-5.71A5.7,5.7,0,0,1,610.26,119.48Z"/><path class="cls-53" d="M631.13,119.48a5.7,5.7,0,1,1-5.71-5.71A5.71,5.71,0,0,1,631.13,119.48Z"/><path class="cls-53" d="M652,119.48a5.7,5.7,0,1,1-5.7-5.71A5.7,5.7,0,0,1,652,119.48Z"/><path class="cls-53" d="M672.85,119.48a5.7,5.7,0,1,1-5.7-5.71A5.7,5.7,0,0,1,672.85,119.48Z"/><path class="cls-42" d="M13.86,527.33c.54-.84,1.72-2.16,1.52-2.42-5.2-6.76-4.25-15.16-6-22.79-.86-3.79-2.27-6-6.06-6.58,1.57-3.32,4.8-3.61,7.81-4.16Q89.44,477,167.75,462.75c2.81-.51,5.61-.86,8.37.21,11.7,6,14.56,25.46,4.9,34.92-2.66,2.35-6,2.85-9.29,3.45Q97.92,514.83,24.1,528.28C20.66,528.9,17,530.42,13.86,527.33Z"/><path class="cls-17" d="M185.05,457.41c29.31-5.41,58.61-10.92,88-16.19,8.78-1.57,18,2.6,21.29,9,5.47,10.52,4.21,19-4.28,28.85a22.35,22.35,0,0,1-12.19,6c-27.36,4.88-54.69,10-82,14.87-3.89.7-8.27,2.4-11-2.48C183.27,490.91,188,485,186,478.06c-1.79-6.18-4.13-11.31-9.72-14.66-1.2-2.5-.09-3.65,2.33-4.21C180.8,458.68,183.15,458.86,185.05,457.41Z"/><path class="cls-54" d="M288.74,482.31Q149.48,507.85,10.22,533.39c-1.51.28-3.06.33-4.61.49.2-5.39,5-5,8.25-6.55L139.8,504.61c11.14-2,22.25-4.1,33.38-6.09,2.81-.5,5.59-.92,7.81-2.92,1.61-.05,3-1.89,4.77-.57.42,4,3,4,6.12,3.43,29.56-5.46,59.16-10.81,88.71-16.32,3.22-.61,6.28-2.05,9.43-3.1C289.59,480.13,289.16,481.22,288.74,482.31Z"/><path class="cls-54" d="M185.05,457.41c-1.49,3.68-8.46.14-8.16,6.18a.9.9,0,0,1-.21,1.56c-2.25-.91-4.5-.64-6.82-.21Q86.61,480.26,3.34,495.54c-3.27-.83-4.95-2.14-1.21-4.7a7.84,7.84,0,0,1,3-.76Q95.07,473.73,185.05,457.41Z"/><path class="cls-18" d="M176.68,465.15l.21-1.56c7.88,2.15,12.5,11,11.17,21.93-.4,3.22-1.52,6.34-2.3,9.51-1.5.87-2.82,3.39-4.77.57C187,484.4,186.13,474.17,176.68,465.15Z"/><polygon class="cls-17" points="27.29 503.99 30.19 519.83 38.27 510.17 48.72 516.44 45.83 500.61 27.29 503.99"/><path class="cls-30" d="M262.49,430.07q-65-9.35-130-18.72-34.29-5-68.55-10.07C54.27,395,50.75,386,53.05,374.84c1.1-5.33,3.61-9.9,9.13-12,6.8-2.66,13.67-2,20.8-1.33,21.33,2.09,42.45,5.62,63.66,8.44,5.26.69,10.21,2.78,15.58,3,1.6.07,3.76.59,4.44,2.47.83,2.25-1.46,2.91-2.67,4.05a5.81,5.81,0,0,0-1.89,2.72c-1.79,5.26-4.39,10.28-3.49,16.21a38,38,0,0,0,2,7.86c1.13,3,3.06,4.8,6.47,4.53,27.22,4.3,54.52,8,81.77,12A56.87,56.87,0,0,1,262,426.64,4.62,4.62,0,0,1,262.49,430.07Z"/><path class="cls-42" d="M262,426.64c-3-.62-6-1.4-9-1.84q-40.92-6-81.87-11.87c-1.91-.28-3.86-.39-5.56-1.45-5.18-3.43-8.3-12.78-6.32-20.28,1.46-5.53,4.18-10.4,9.59-13.21,2.57-.84,5.14-.36,7.7,0q38.88,5.61,77.74,11.31c2.51.36,5.25.3,7,2.68-3.25,5.1-5.84,10.26-6.51,16.58C254,416.18,254.79,422.54,262,426.64Z"/><path class="cls-30" d="M261.35,392q-42.27-6.25-84.53-12.48c-2.79-.41-5.63-1.69-8.47-.14-3.1-.63-4.51,2.86-7.28,3-1-4.21,3.85-3.83,5.15-7-5.59-1.21-11.07-2.67-16.63-3.52-17.25-2.65-34.49-5.57-51.85-7.38-8.89-.92-17.47-4.19-26.63-3.3-3.07.29-5.74,2.39-8.93,1.62,4-3.08,8.57-3.11,13.22-2.64s9.2,1.16,13.8,1.75c2.33-1.18,4.74-.67,7.14-.32,34.09,4.95,68.3,9.17,102.22,15.1,22.44,3.93,45,6.86,67.48,10.43a3,3,0,0,1,1.71.82C268,392.27,268,392.27,261.35,392Z"/><path class="cls-18" d="M161.07,382.38c2.35-1.19,3-6.43,7.27-3-10.05,9.16-10.91,19.23-2.72,32.11-2.54,1.25-3.78-.24-4.9-2.23C155.66,400.22,156.12,391.27,161.07,382.38Z"/><polygon class="cls-17" points="228.98 396.99 226.51 413.99 233.95 409.99 239.07 415.81 241.54 398.82 228.98 396.99"/><path class="cls-6" d="M184.09,103.5s33.95,25.28,69.8,16,60.91-2.54,90.42,15.49"/><path class="cls-42" d="M252.47,753.2c3-2.44,6.94-2.43,10.37-4.45-3.69,1.29-4.49-.38-4.5-3.57,0-5-1.92-9.5-3.44-14.21-1.71-5.3-3.6-10.11-7.24-14.29-1.15-1.32.12-1.94,1.24-2.33a16.78,16.78,0,0,0,5.35-2.56c-3.66,1.22-7.32,2.48-11,3.63-1.24.39-2.44,1.4-3.87.55.84-1.79,2.62-2.19,4.24-2.74q32-10.69,64-21.3a11,11,0,0,1,4.74-.78c15.25,5.32,20.95,24.86,11.38,39.09a5,5,0,0,1-1.12.8c-22,7.61-44.13,14.76-66.2,22.13C255.11,753.6,253.78,754.17,252.47,753.2Z"/><path class="cls-21" d="M313.25,692.25c-1.56-.41-2.92.33-4.32.79L239.36,716c-1.69-.62-1.69-2.14-1.91-3.55.53-2.39,2.77-2.41,4.44-3.18,1.2-.55,2.38-1.16,3.62-1.64a42.74,42.74,0,0,1,6.84-2.5,15.92,15.92,0,0,0,5.86-1.72,3.7,3.7,0,0,1,3.46-.44Q299.33,690.49,337,678c1.88-.62,3.81-1.08,5.72-1.61a61.44,61.44,0,0,1,12.44,18c2,4.67,3.77,9.43,3,14.69-.54,3.08.07,6.18-.33,9.28-.44,3.41-1.83,5.65-5.31,6.8q-47.19,15.6-94.32,31.34a4.83,4.83,0,0,1-.71.22c-1.61.27-3.65,1.57-4.44-.9s1.48-2.74,3.07-3.27Q288,742,319.89,731.31c1.2-.4,2.8-.22,3.47-1.75l-.05-.07c6.22-3.32,6.65-9.3,6.31-15.14-.39-6.6-2.24-13-6.94-18C320.16,693.63,317.25,691.65,313.25,692.25Z"/><path class="cls-21" d="M423.34,650.42a12.41,12.41,0,0,1-3.12-.08c-4,1.41-8.33,2.17-11.92,4.71-.6,1.83.85,2.71,1.79,3.78,9.79,11.1,14.39,23.92,12.94,38.76-.13,1.35-.47,2.73.41,4a18.23,18.23,0,0,0,11.41-3.92c9.47-6.62,13.72-16.44,11-26.82C443,660.18,439.12,652.07,423.34,650.42Z"/><path class="cls-21" d="M412.29,704.86c-6.59,2.95-13.58,4.74-20.39,7.08-7.62,2.63-15.31,5.07-23,7.59-1-1-.71-2.3-.6-3.51,1.4-15.06-3.17-28.1-13.21-39.3-.89-1-2.07-1.89-1.57-3.52a8.75,8.75,0,0,1,3.93-2c11.42-3.8,22.84-7.63,34.27-11.41,1.62-.53,3.32-.81,5-1.21a15,15,0,0,1,2.75,1.88c10,11.11,15.37,23.89,14.22,39A10.59,10.59,0,0,1,412.29,704.86Z"/><path class="cls-23" d="M353.55,673.2c5.42,6,10.24,12.33,13,20.06a50.36,50.36,0,0,1,2.36,26.27l-11.4,3.63c-.09-4.78,1.25-9.55,0-14.33-.65-10.38-5.22-19.07-11.54-27.05-1.28-1.64-3.65-2.68-3.3-5.35Z"/><path class="cls-23" d="M412.29,704.86c.66-7.08.83-14.13-1-21.08-2.29-8.72-6.85-16.16-12.83-22.82-.65-.73-1.16-1.58-1.74-2.37l11.57-3.54c6.05,6.67,11.2,13.84,13.85,22.65a49.32,49.32,0,0,1,1.4,23.6Z"/><path class="cls-55" d="M313.25,692.25c2.67-1.81,6.3-1.2,9.25,2.16,7.35,8.36,9.88,18.06,7.23,28.94-.81,3.3-2.47,6-6.42,6.14,5.24-9.4,5.66-18.79.16-28.28C321.05,697.05,317.12,694.71,313.25,692.25Z"/><polyline class="cls-23" points="260.98 716.11 268.13 737.59 272.9 728.07 282.48 732.86 275.32 711.34 260.87 715.76"/></g></g></svg>