<svg xmlns="http://www.w3.org/2000/svg" viewBox="0 0 234.81 262.26"><defs><style>.cls-1{fill:#db8f0e;}.cls-2{fill:#fff;}</style></defs><g id="Layer_2" data-name="Layer 2"><g id="Layer_1-2" data-name="Layer 1"><path class="cls-1" d="M209.39,217.29c-.25,1.64-1.58,2.6-2.55,3.74a116.63,116.63,0,0,1-33.37,27.08A114.89,114.89,0,0,1,136,260.85a123.16,123.16,0,0,1-28.91,1,117.19,117.19,0,0,1-80.67-42.74,32.16,32.16,0,0,1-4.3-5.93c.26-4.83.44-9.67.78-14.5a404.13,404.13,0,0,1,4.71-41.05c2-11.34,4.5-22.54,8.86-33.24,2.55-6.27,5.71-12.17,10.63-17a19,19,0,0,1,11.13-5.46,105.31,105.31,0,0,0,20.22-4c5.49-1.82,10.84-4,15-8.16,3.48-3.47,5.37-7.49,4-12.65a132,132,0,0,1-4.54-37,66.53,66.53,0,0,1,.95-10.15c1.17-7.78,3.51-15.08,8.86-21.1A24.72,24.72,0,0,1,117.86.6C126-.63,134-.07,141.64,3.25c9.11,4,14.45,11.12,17.24,20.42A69.64,69.64,0,0,1,161,35.74c0,.74,0,1.48,0,2.22a86,86,0,0,1-5.54,31.94A47,47,0,0,1,150.79,79c-3.24,5-2.32,9.53,2.51,13.09a22.91,22.91,0,0,0,4.76,2.66,55.19,55.19,0,0,0,21.37,3.81,14.21,14.21,0,0,1,11.2,5.25,35.27,35.27,0,0,1,5.26,8.36,93.41,93.41,0,0,1,6.43,20.64,300.24,300.24,0,0,1,5.22,41.3C208.5,188.49,209.06,202.88,209.39,217.29Z"/><path class="cls-2" d="M93.85,29.93a66.53,66.53,0,0,0-.95,10.15,132,132,0,0,0,4.54,37c1.37,5.16-.52,9.18-4,12.65-4.18,4.17-9.53,6.34-15,8.16a105.31,105.31,0,0,1-20.22,4,19,19,0,0,0-11.13,5.46c-4.92,4.79-8.08,10.69-10.63,17-4.36,10.7-6.87,21.9-8.86,33.24a404.13,404.13,0,0,0-4.71,41.05c-.34,4.83-.52,9.67-.78,14.5a58.47,58.47,0,0,1-5.25-7.77A116.24,116.24,0,0,1,.27,136.59a114.14,114.14,0,0,1,12.41-45,117.2,117.2,0,0,1,43.4-47A115.85,115.85,0,0,1,92.17,30.05,3.1,3.1,0,0,1,93.85,29.93Z"/><path class="cls-2" d="M209.39,217.29c-.33-14.41-.89-28.8-1.85-43.19a300.24,300.24,0,0,0-5.22-41.3,93.41,93.41,0,0,0-6.43-20.64,35.27,35.27,0,0,0-5.26-8.36,14.21,14.21,0,0,0-11.2-5.25,55.19,55.19,0,0,1-21.37-3.81,22.91,22.91,0,0,1-4.76-2.66c-4.83-3.56-5.75-8-2.51-13.09a47,47,0,0,0,4.66-9.09A86,86,0,0,0,161,38c0-.74,0-1.48,0-2.22a117.5,117.5,0,0,1,70.55,81.55,107.68,107.68,0,0,1,2.63,16.2,118.46,118.46,0,0,1,.6,14.46,116.64,116.64,0,0,1-24,67.92C210.4,216.39,210.14,217.1,209.39,217.29Z"/></g></g></svg>