<svg xmlns="http://www.w3.org/2000/svg" xmlns:xlink="http://www.w3.org/1999/xlink" viewBox="0 0 622.67 347.83"><defs><style>.cls-1{fill:#f09d00;}.cls-2{fill:url(#linear-gradient);}.cls-3{fill:url(#linear-gradient-2);}.cls-4{fill:none;stroke:#bd6418;stroke-miterlimit:10;stroke-width:2px;stroke-dasharray:5;}.cls-5{fill:#f2f1f0;}.cls-10,.cls-11,.cls-5,.cls-6,.cls-7,.cls-8,.cls-9{fill-rule:evenodd;}.cls-6{fill:#774f1a;}.cls-7{fill:url(#linear-gradient-3);}.cls-8{fill:url(#linear-gradient-4);}.cls-9{fill:url(#linear-gradient-5);}.cls-10{fill:url(#linear-gradient-6);}.cls-11{fill:url(#linear-gradient-7);}</style><linearGradient id="linear-gradient" x1="43.32" y1="80.77" x2="584.23" y2="273.07" gradientUnits="userSpaceOnUse"><stop offset="0" stop-color="#fdd289"/><stop offset="1" stop-color="#ef9d00"/></linearGradient><linearGradient id="linear-gradient-2" x1="283.05" y1="167.69" x2="352" y2="192.2" xlink:href="#linear-gradient"/><linearGradient id="linear-gradient-3" x1="-2674.16" y1="-1393.46" x2="-2662.22" y2="-1393.46" gradientTransform="translate(272.7 3039.36) rotate(59.55)" xlink:href="#linear-gradient"/><linearGradient id="linear-gradient-4" x1="-2670.11" y1="-1390.67" x2="-2660.83" y2="-1390.67" gradientTransform="translate(272.7 3039.36) rotate(59.55)" xlink:href="#linear-gradient"/><linearGradient id="linear-gradient-5" x1="-2677.16" y1="-1398.75" x2="-2669.17" y2="-1398.75" gradientTransform="translate(272.7 3039.36) rotate(59.55)" xlink:href="#linear-gradient"/><linearGradient id="linear-gradient-6" x1="-2680.23" y1="-1404.13" x2="-2676.78" y2="-1404.13" gradientTransform="translate(272.7 3039.36) rotate(59.55)" xlink:href="#linear-gradient"/><linearGradient id="linear-gradient-7" x1="-2679.79" y1="-1403.54" x2="-2676.17" y2="-1403.54" gradientTransform="translate(272.7 3039.36) rotate(59.55)" xlink:href="#linear-gradient"/></defs><g id="Layer_2" data-name="Layer 2"><g id="Layer_1-2" data-name="Layer 1"><path class="cls-1" d="M149.88,15.63s3.46-2,3.46-4.53c0,0,.57,3.53,3,4.53,0,0-2.83,1.58-2.83,3.9C153.47,19.53,152,15.63,149.88,15.63Z"/><path class="cls-1" d="M163.78,6.13s4.68-2.64,4.68-6.13c0,0,.77,4.77,4,6.13,0,0-3.84,2.13-3.84,5.28C168.63,11.41,166.68,6.13,163.78,6.13Z"/><path class="cls-1" d="M594.12,223.14s5.2-2.93,5.2-6.8c0,0,.84,5.29,4.43,6.8,0,0-4.25,2.36-4.25,5.85C599.5,229,597.33,223.14,594.12,223.14Z"/><path class="cls-1" d="M609.6,234.15s7-4,7-9.23c0,0,1.15,7.18,6,9.23,0,0-5.77,3.2-5.77,7.94C616.9,242.09,614,234.15,609.6,234.15Z"/><path class="cls-2" d="M556.74,317.16H70.82a16.76,16.76,0,0,1-16.75-16.74v-247A16.76,16.76,0,0,1,70.82,36.68H556.74a16.76,16.76,0,0,1,16.74,16.74v247A16.76,16.76,0,0,1,556.74,317.16ZM70.82,47.84a5.59,5.59,0,0,0-5.58,5.58v247A5.58,5.58,0,0,0,70.82,306H556.74a5.59,5.59,0,0,0,5.58-5.58v-247a5.6,5.6,0,0,0-5.58-5.58Z"/><path class="cls-3" d="M353,181.47a8.83,8.83,0,0,0,0-16L303.85,140.9h0a8.82,8.82,0,0,0-13.41,7.55v50a8.84,8.84,0,0,0,11.65,8.37h0a9.14,9.14,0,0,0,2.19-1.09Z"/><path class="cls-4" d="M54.07,106.18s-4.27,27.5-36.77,27-11.16-36,18.39-47.5,82.36-20.25,83.24-43.25"/><path class="cls-5" d="M140.9,27.09A50.77,50.77,0,0,0,134.33,17a21.67,21.67,0,0,1-1.89-2.29,4.38,4.38,0,0,1-3.25-.73c-2.13.13-2.2.43-2.84,3a3.77,3.77,0,0,0,0,1.67,5.37,5.37,0,0,1,.12,2.15,28.62,28.62,0,0,0,.24,3.7c.07,1.33.33,2.64.44,4,.29,1.28.19,2.63.75,3.86a3.3,3.3,0,0,1,.52,3.52.71.71,0,0,0,.2.53c1-.11,1.2-2,2.62-1,1.83,1.37,3.89,1,5.7.24C140.22,34.4,142.91,31.48,140.9,27.09Z"/><path class="cls-5" d="M113.7,32.13a2.9,2.9,0,0,0-2.13-1.59,7.4,7.4,0,0,1-5.74-5.41A5.42,5.42,0,0,1,108,18.72,44,44,0,0,1,121.58,12a6.08,6.08,0,0,1,1.69.22c3.17.78,3.45,1.26,2.58,4.45a4.73,4.73,0,0,1-.9,1.51,7.32,7.32,0,0,0-1.12,1.91l-2,3.13c-.83,1-1.57,2.15-2.3,3.27A31.4,31.4,0,0,1,117,29.64,12.48,12.48,0,0,0,113.7,32.13Z"/><path class="cls-6" d="M125.24,17.08c.78-3.38.78-3.39-2.61-4.43a1.56,1.56,0,0,1-1-.61A4.33,4.33,0,0,1,123,9.49c2.27-1.44,2.36-3.34,1.68-5.6a1,1,0,0,1,.37-1.19c1.58,1.25-.34,4.22,3.08,5s3.09-2.48,5.16-3c.2,1.19-.7,1.81-1.25,2.45-1,1.12-1.47,2.09-.54,3.51A6.56,6.56,0,0,1,132,13c-.48.57.36,2.1-1.37,1.78-1-.19-2.25-1.23-3.1-.32-.62.67-.54,2-.77,3A1.25,1.25,0,0,1,125.24,17.08Z"/><path class="cls-7" d="M113.7,32.13c.11-1.9,1.76-2.11,3-2.76a3.09,3.09,0,0,1,1.85-.2c2.73.62,5.45,1.33,8.14,2.11a3.49,3.49,0,0,1,1.54,1c.9,1.13,2,2.23.41,3.64a2.63,2.63,0,0,1-1.87.17q-5.81-1.39-11.55-3a4.83,4.83,0,0,1-1.29-.73Z"/><path class="cls-8" d="M117.05,39.58a13.31,13.31,0,0,1-2.46-4.43,1.9,1.9,0,0,1,2-.3q4.26,1,8.46,2.19c.67.2,1.39.42,1.6,1.25a7.6,7.6,0,0,1-4.12,2.46C120.39,41.8,118.66,41,117.05,39.58Z"/><path class="cls-6" d="M126.65,38.29l-12.07-3.14a5.74,5.74,0,0,1-.64-2.73c2.64,0,5,1.12,7.56,1.68s4.77,1.24,7.15,1.87c0,.15,0,.3,0,.45Z"/><path class="cls-6" d="M117.05,39.58c1.78.6,3.51,1.4,5.47,1.17-1.51,2.26-3,4.51-4.77,7.14C117.49,44.85,117.27,42.21,117.05,39.58Z"/><path class="cls-6" d="M128.24,32.33l-11.53-3a13.13,13.13,0,0,1,2.47-2.94,12.23,12.23,0,0,1,8.31,2.16Z"/><path class="cls-9" d="M127.49,28.59l-8.31-2.16a17.68,17.68,0,0,1,2.28-3.56,8.36,8.36,0,0,1,5.73,1.5A18.11,18.11,0,0,1,127.49,28.59Z"/><path class="cls-6" d="M127.19,24.37a22.32,22.32,0,0,1-5.73-1.5c.66-1,1.33-1.91,2-2.86a3,3,0,0,1,3.38.85C127,22,127.07,23.2,127.19,24.37Z"/><path class="cls-10" d="M125.24,17.08l1.55.38c0,.44-.28.91.14,1.31.1.71.13,1.52-.73,1.66a2.52,2.52,0,0,1-2-.51c-.64-.56-.2-1.25.2-1.84Z"/><path class="cls-11" d="M124.44,18.08c-.25.92-.46,1.74.9,2s1.37-.54,1.59-1.35c.63.72,0,1.39-.09,2.09L123.46,20C123.75,19.35,123.56,18.44,124.44,18.08Z"/><path class="cls-4" d="M573.48,246.35s38.65-24.67,25.32,16-74.09,32.11-79,72.83c-3.5,29,53.68-3.5,36.94-18"/></g></g></svg>